  0
SECTION
  2
HEADER
  9
$ACADVER
  1
AC1009
  9
$FILLMODE
 70
0
  9
$EXTMIN
 10
-6.0863
 20
-4.5745
 30
0.0000
  9
$EXTMAX
 10
54.6862
 20
62.1475
 30
0.0000
  0
ENDSEC
  0
SECTION
  2
TABLES
  0
TABLE
  2
LTYPE
 70
1
  0
LTYPE
  2
CONTINUOUS
 70
64
  3
Solid line
 72
65
 73
0
 40
0
  0
ENDTAB
  0
TABLE
  2
LAYER
 70
255
  0
LAYER
  2
20
 70
64
 62
30
  6
CONTINUOUS
  0
LAYER
  2
30
 70
64
 62
253
  6
CONTINUOUS
  0
LAYER
  2
49
 70
64
 62
253
  6
CONTINUOUS
  0
ENDTAB
  0
ENDSEC
  0
SECTION
  2
BLOCKS
  0
BLOCK
  8
0
  2
RECT
 70
64
 10
0.0000
 20
0.0000
 30
0.0000
  3
RECT
  0
SOLID
  8
0
 10
-0.5000
 20
-0.5000
 30
0.0000
 11
0.5000
 21
-0.5000
 31
0.0000
 12
-0.5000
 22
0.5000
 32
0.0000
 13
0.5000
 23
0.5000
 33
0.0000
  0
ENDBLK
  8
0
  0
BLOCK
  8
0
  2
PIE
 70
64
 10
0.0000
 20
0.0000
 30
0.0000
  3
PIE
  0
CIRCLE
  8
0
 10
0.0000
 20
0.0000
 30
0.0000
 40
0.5000
  0
ENDBLK
  8
0
  0
BLOCK
  8
0
  2
OCTAGONP
 70
64
 10
0.0000
 20
0.0000
 30
0.0000
  3
OCTAGONP
  0
POLYLINE
  8
0
 66
1
 10
0.0000
 20
0.0000
 30
0.0000
 40
0.0000
 41
0.0000
 70
1
  0
VERTEX
  8
0
 10
-0.5000
 20
-0.2071
 30
0.0000
  0
VERTEX
  8
0
 10
-0.5000
 20
0.2071
 30
0.0000
  0
VERTEX
  8
0
 10
-0.2071
 20
0.5000
 30
0.0000
  0
VERTEX
  8
0
 10
0.2071
 20
0.5000
 30
0.0000
  0
VERTEX
  8
0
 10
0.5000
 20
0.2071
 30
0.0000
  0
VERTEX
  8
0
 10
0.5000
 20
-0.2071
 30
0.0000
  0
VERTEX
  8
0
 10
0.2071
 20
-0.5000
 30
0.0000
  0
VERTEX
  8
0
 10
-0.2071
 20
-0.5000
 30
0.0000
  0
SEQEND
  8
0
  0
ENDBLK
  8
0
  0
BLOCK
  8
0
  2
SQUAREP
 70
64
 10
0.0000
 20
0.0000
 30
0.0000
  3
SQUAREP
  0
SOLID
  8
0
 10
-0.5000
 20
-0.5000
 30
0.0000
 11
0.5000
 21
-0.5000
 31
0.0000
 12
-0.5000
 22
0.5000
 32
0.0000
 13
0.5000
 23
0.5000
 33
0.0000
  0
ENDBLK
  8
0
  0
BLOCK
  8
0
  2
ROUNDP
 70
64
 10
0.0000
 20
0.0000
 30
0.0000
  3
ROUNDP
  0
CIRCLE
  8
0
 10
0.0000
 20
0.0000
 30
0.0000
 40
0.5000
  0
ENDBLK
  8
0
  0
BLOCK
  8
0
  2
ANNULUSP
 70
64
 10
0.0000
 20
0.0000
 30
0.0000
  3
ANNULUSP
  0
CIRCLE
  8
0
 10
0.0000
 20
0.0000
 30
0.0000
 40
0.5000
  0
ENDBLK
  8
0
  0
BLOCK
  8
0
  2
THERMALP
 70
64
 10
0.0000
 20
0.0000
 30
0.0000
  3
THERMALP
  0
LINE
  8
0
 10
-0.2379
 20
0.4500
 30
0.0000
 11
0.2379
 21
0.4500
 31
0.0000
  0
LINE
  8
0
 10
0.4500
 20
0.2379
 30
0.0000
 11
0.4500
 21
-0.2379
 31
0.0000
  0
LINE
  8
0
 10
0.2379
 20
-0.4500
 30
0.0000
 11
-0.2379
 21
-0.4500
 31
0.0000
  0
LINE
  8
0
 10
-0.4500
 20
-0.2379
 30
0.0000
 11
-0.4500
 21
0.2379
 31
0.0000
  0
ENDBLK
  8
0
  0
BLOCK
  8
0
  2
OCTAGONV
 70
64
 10
0.0000
 20
0.0000
 30
0.0000
  3
OCTAGONV
  0
POLYLINE
  8
0
 66
1
 10
0.0000
 20
0.0000
 30
0.0000
 40
0.0000
 41
0.0000
 70
1
  0
VERTEX
  8
0
 10
-0.5000
 20
-0.2071
 30
0.0000
  0
VERTEX
  8
0
 10
-0.5000
 20
0.2071
 30
0.0000
  0
VERTEX
  8
0
 10
-0.2071
 20
0.5000
 30
0.0000
  0
VERTEX
  8
0
 10
0.2071
 20
0.5000
 30
0.0000
  0
VERTEX
  8
0
 10
0.5000
 20
0.2071
 30
0.0000
  0
VERTEX
  8
0
 10
0.5000
 20
-0.2071
 30
0.0000
  0
VERTEX
  8
0
 10
0.2071
 20
-0.5000
 30
0.0000
  0
VERTEX
  8
0
 10
-0.2071
 20
-0.5000
 30
0.0000
  0
SEQEND
  8
0
  0
ENDBLK
  8
0
  0
BLOCK
  8
0
  2
SQUAREV
 70
64
 10
0.0000
 20
0.0000
 30
0.0000
  3
SQUAREV
  0
SOLID
  8
0
 10
-0.5000
 20
-0.5000
 30
0.0000
 11
0.5000
 21
-0.5000
 31
0.0000
 12
-0.5000
 22
0.5000
 32
0.0000
 13
0.5000
 23
0.5000
 33
0.0000
  0
ENDBLK
  8
0
  0
BLOCK
  8
0
  2
ROUNDV
 70
64
 10
0.0000
 20
0.0000
 30
0.0000
  3
ROUNDV
  0
CIRCLE
  8
0
 10
0.0000
 20
0.0000
 30
0.0000
 40
0.5000
  0
ENDBLK
  8
0
  0
BLOCK
  8
0
  2
ANNULUSV
 70
64
 10
0.0000
 20
0.0000
 30
0.0000
  3
ANNULUSV
  0
CIRCLE
  8
0
 10
0.0000
 20
0.0000
 30
0.0000
 40
0.5000
  0
ENDBLK
  8
0
  0
BLOCK
  8
0
  2
THERMALV
 70
64
 10
0.0000
 20
0.0000
 30
0.0000
  3
THERMALV
  0
LINE
  8
0
 10
-0.2379
 20
0.4500
 30
0.0000
 11
0.2379
 21
0.4500
 31
0.0000
  0
LINE
  8
0
 10
0.4500
 20
0.2379
 30
0.0000
 11
0.4500
 21
-0.2379
 31
0.0000
  0
LINE
  8
0
 10
0.2379
 20
-0.4500
 30
0.0000
 11
-0.2379
 21
-0.4500
 31
0.0000
  0
LINE
  8
0
 10
-0.4500
 20
-0.2379
 30
0.0000
 11
-0.4500
 21
0.2379
 31
0.0000
  0
ENDBLK
  8
0
  0
BLOCK
  8
0
  2
OFFSETP100
 70
64
 10
0.0000
 20
0.0000
 30
0.0000
  3
OFFSETP100
  0
POLYLINE
  8
0
 66
1
 10
0.0000
 20
0.0000
 30
0.0000
 40
0.0000
 41
0.0000
 70
1
  0
VERTEX
  8
0
 10
0.0000
 20
-0.5000
 30
0.0000
  0
VERTEX
  8
0
 10
1.0000
 20
-0.5000
 30
0.0000
 42
1.0000
  0
VERTEX
  8
0
 10
1.0000
 20
0.5000
 30
0.0000
  0
VERTEX
  8
0
 10
0.0000
 20
0.5000
 30
0.0000
 42
1.0000
  0
SEQEND
  8
0
  0
ENDBLK
  8
0
  0
ENDSEC
  0
SECTION
  2
ENTITIES
  0
LINE
  8
20
 10
1.0000
 20
34.0000
 30
0.0000
 11
47.0000
 21
34.0000
 31
0.0000
  0
ARC
  8
20
 10
47.0000
 20
33.0000
 30
0.0000
 40
1.0000
 50
0.0000
 51
90.0000
  0
LINE
  8
20
 10
48.0000
 20
33.0000
 30
0.0000
 11
48.0000
 21
1.0000
 31
0.0000
  0
ARC
  8
20
 10
47.0000
 20
1.0000
 30
0.0000
 40
1.0000
 50
270.0000
 51
0.0000
  0
LINE
  8
20
 10
47.0000
 20
0.0000
 30
0.0000
 11
10.0000
 21
0.0000
 31
0.0000
  0
ARC
  8
20
 10
10.0000
 20
1.0000
 30
0.0000
 40
1.0000
 50
180.0000
 51
270.0000
  0
ARC
  8
20
 10
1.0000
 20
16.0000
 30
0.0000
 40
1.0000
 50
180.0000
 51
270.0000
  0
LINE
  8
20
 10
0.0000
 20
16.0000
 30
0.0000
 11
0.0000
 21
33.0000
 31
0.0000
  0
ARC
  8
20
 10
1.0000
 20
33.0000
 30
0.0000
 40
1.0000
 50
90.0000
 51
180.0000
  0
ARC
  8
20
 10
8.0000
 20
14.0000
 30
0.0000
 40
1.0000
 50
0.0000
 51
90.0000
  0
LINE
  8
20
 10
1.0000
 20
15.0000
 30
0.0000
 11
8.0000
 21
15.0000
 31
0.0000
  0
LINE
  8
20
 10
9.0000
 20
14.0000
 30
0.0000
 11
9.0000
 21
1.0000
 31
0.0000
  0
INSERT
  8
30
  2
ROUNDP
 10
26.9000
 20
7.6000
 30
0.0000
 41
1.6604
 42
1.6604
 43
1.0000
 50
0.0000
  0
INSERT
  8
30
  2
ROUNDP
 10
21.1000
 20
7.6000
 30
0.0000
 41
1.6604
 42
1.6604
 43
1.0000
 50
0.0000
  0
INSERT
  8
30
  2
ROUNDP
 10
26.4000
 20
9.6000
 30
0.0000
 41
1.6604
 42
1.6604
 43
1.0000
 50
0.0000
  0
INSERT
  8
30
  2
ROUNDP
 10
21.6000
 20
9.6000
 30
0.0000
 41
1.6604
 42
1.6604
 43
1.0000
 50
0.0000
  0
INSERT
  8
30
  2
ROUNDP
 10
28.6000
 20
8.0000
 30
0.0000
 41
1.8604
 42
1.8604
 43
1.0000
 50
0.0000
  0
INSERT
  8
30
  2
ROUNDP
 10
19.4000
 20
8.0000
 30
0.0000
 41
1.8604
 42
1.8604
 43
1.0000
 50
0.0000
  0
INSERT
  8
30
  2
OFFSETP100
 10
42.5000
 20
8.0000
 30
0.0000
 41
2.6604
 42
2.6604
 43
1.0000
 50
0.0000
  0
INSERT
  8
30
  2
OFFSETP100
 10
39.0000
 20
4.5000
 30
0.0000
 41
2.6604
 42
2.6604
 43
1.0000
 50
270.0000
  0
INSERT
  8
30
  2
OFFSETP100
 10
35.5000
 20
8.0000
 30
0.0000
 41
2.6604
 42
2.6604
 43
1.0000
 50
180.0000
  0
INSERT
  8
30
  2
OFFSETP100
 10
41.4700
 20
5.5300
 30
0.0000
 41
2.6604
 42
2.6604
 43
1.0000
 50
315.0000
  0
INSERT
  8
30
  2
OFFSETP100
 10
36.5300
 20
5.5300
 30
0.0000
 41
2.6604
 42
2.6604
 43
1.0000
 50
225.0000
  0
INSERT
  8
30
  2
OFFSETP100
 10
39.0000
 20
8.9000
 30
0.0000
 41
2.7432
 42
2.7432
 43
1.0000
 50
90.0000
  0
INSERT
  8
30
  2
OFFSETP100
 10
42.3000
 20
10.9000
 30
0.0000
 41
2.6604
 42
2.6604
 43
1.0000
 50
42.0000
  0
INSERT
  8
30
  2
OFFSETP100
 10
35.7000
 20
10.9000
 30
0.0000
 41
2.6604
 42
2.6604
 43
1.0000
 50
138.0000
  0
INSERT
  8
30
  2
ROUNDP
 10
6.0000
 20
18.8500
 30
0.0000
 41
2.7432
 42
2.7432
 43
1.0000
 50
90.0000
  0
INSERT
  8
30
  2
ROUNDP
 10
6.0000
 20
29.1500
 30
0.0000
 41
2.7432
 42
2.7432
 43
1.0000
 50
90.0000
  0
INSERT
  8
30
  2
ROUNDP
 10
4.4000
 20
24.0000
 30
0.0000
 41
2.7032
 42
2.7032
 43
1.0000
 50
90.0000
  0
INSERT
  8
30
  2
ROUNDP
 10
18.0000
 20
18.8500
 30
0.0000
 41
2.7432
 42
2.7432
 43
1.0000
 50
90.0000
  0
INSERT
  8
30
  2
ROUNDP
 10
18.0000
 20
29.1500
 30
0.0000
 41
2.7432
 42
2.7432
 43
1.0000
 50
90.0000
  0
INSERT
  8
30
  2
ROUNDP
 10
16.4000
 20
24.0000
 30
0.0000
 41
2.7032
 42
2.7032
 43
1.0000
 50
90.0000
  0
INSERT
  8
30
  2
ROUNDP
 10
24.8500
 20
24.0000
 30
0.0000
 41
2.7432
 42
2.7432
 43
1.0000
 50
0.0000
  0
INSERT
  8
30
  2
ROUNDP
 10
35.1500
 20
24.0000
 30
0.0000
 41
2.7432
 42
2.7432
 43
1.0000
 50
0.0000
  0
INSERT
  8
30
  2
ROUNDP
 10
30.0000
 20
25.6000
 30
0.0000
 41
2.7032
 42
2.7032
 43
1.0000
 50
0.0000
  0
INSERT
  8
30
  2
ROUNDP
 10
42.0000
 20
18.8500
 30
0.0000
 41
2.7432
 42
2.7432
 43
1.0000
 50
90.0000
  0
INSERT
  8
30
  2
ROUNDP
 10
42.0000
 20
29.1500
 30
0.0000
 41
2.7432
 42
2.7432
 43
1.0000
 50
90.0000
  0
INSERT
  8
30
  2
ROUNDP
 10
40.4000
 20
24.0000
 30
0.0000
 41
2.7032
 42
2.7032
 43
1.0000
 50
90.0000
  0
INSERT
  8
30
  2
SQUAREP
 10
12.3200
 20
4.5442
 30
0.0000
 41
1.8288
 42
1.8288
 43
1.0000
 50
270.0000
  0
INSERT
  8
30
  2
ROUNDP
 10
12.3200
 20
2.0043
 30
0.0000
 41
1.8288
 42
1.8288
 43
1.0000
 50
270.0000
  0
INSERT
  8
30
  2
SQUAREP
 10
15.4143
 20
16.5580
 30
0.0000
 41
1.8288
 42
1.8288
 43
1.0000
 50
180.0000
  0
INSERT
  8
30
  2
ROUNDP
 10
12.8742
 20
16.5580
 30
0.0000
 41
1.8288
 42
1.8288
 43
1.0000
 50
180.0000
  0
INSERT
  8
30
  2
ROUNDP
 10
10.3343
 20
16.5580
 30
0.0000
 41
1.8288
 42
1.8288
 43
1.0000
 50
180.0000
  0
INSERT
  8
30
  2
SQUAREP
 10
32.6112
 20
16.5655
 30
0.0000
 41
1.8288
 42
1.8288
 43
1.0000
 50
180.0000
  0
INSERT
  8
30
  2
ROUNDP
 10
30.0713
 20
16.5655
 30
0.0000
 41
1.8288
 42
1.8288
 43
1.0000
 50
180.0000
  0
INSERT
  8
30
  2
ROUNDP
 10
27.5313
 20
16.5655
 30
0.0000
 41
1.8288
 42
1.8288
 43
1.0000
 50
180.0000
  0
INSERT
  8
30
  2
ROUNDP
 10
15.3535
 20
12.1088
 30
0.0000
 41
1.6002
 42
1.6002
 43
1.0000
 50
270.0000
  0
INSERT
  8
30
  2
ROUNDP
 10
15.3535
 20
1.9488
 30
0.0000
 41
1.6002
 42
1.6002
 43
1.0000
 50
270.0000
  0
LINE
  8
30
 10
1.8824
 20
47.9291
 30
0.0000
 11
1.5085
 21
48.0787
 31
0.0000
  0
ARC
  8
30
 10
1.5805
 20
48.2587
 30
0.0000
 40
0.1939
 50
89.1810
 51
248.1986
  0
ARC
  8
30
 10
1.5711
 20
47.6034
 30
0.0000
 40
0.8493
 50
65.7609
 51
89.1810
  0
ARC
  8
30
 10
1.8104
 20
47.7490
 30
0.0000
 40
0.1939
 50
269.1810
 51
68.1986
  0
ARC
  8
30
 10
1.8258
 20
48.8235
 30
0.0000
 40
1.2684
 50
250.2096
 51
269.1810
  0
LINE
  8
30
 10
2.4614
 20
48.4526
 30
0.0000
 11
2.9101
 21
48.4526
 31
0.0000
  0
LINE
  8
30
 10
2.6110
 20
48.9014
 30
0.0000
 11
2.6110
 21
47.7795
 31
0.0000
  0
ARC
  8
30
 10
2.8354
 20
47.7795
 30
0.0000
 40
0.2244
 50
180.0000
 51
270.0000
  0
LINE
  8
30
 10
2.8354
 20
47.5552
 30
0.0000
 11
2.9101
 21
47.5552
 31
0.0000
  0
LINE
  8
30
 10
3.4496
 20
47.8543
 30
0.0000
 11
3.4496
 21
48.1535
 31
0.0000
  0
ARC
  8
30
 10
3.7487
 20
48.1535
 30
0.0000
 40
0.2992
 50
0.0000
 51
180.0000
  0
LINE
  8
30
 10
4.0479
 20
48.1535
 30
0.0000
 11
4.0479
 21
47.8543
 31
0.0000
  0
ARC
  8
30
 10
3.7487
 20
47.8543
 30
0.0000
 40
0.2992
 50
180.0000
 51
0.0000
  0
LINE
  8
30
 10
4.6901
 20
47.1064
 30
0.0000
 11
4.6901
 21
48.4526
 31
0.0000
  0
LINE
  8
30
 10
4.6901
 20
48.4526
 30
0.0000
 11
5.0641
 21
48.4526
 31
0.0000
  0
ARC
  8
30
 10
5.0641
 20
48.2283
 30
0.0000
 40
0.2244
 50
0.0000
 51
90.0000
  0
LINE
  8
30
 10
5.2885
 20
48.2283
 30
0.0000
 11
5.2885
 21
47.7795
 31
0.0000
  0
ARC
  8
30
 10
5.0641
 20
47.7795
 30
0.0000
 40
0.2244
 50
270.0008
 51
0.0000
  0
LINE
  8
30
 10
5.0641
 20
47.5552
 30
0.0000
 11
4.6901
 21
47.5552
 31
0.0000
  0
LINE
  8
30
 10
5.9464
 20
47.5552
 30
0.0000
 11
5.9464
 21
48.4526
 31
0.0000
  0
LINE
  8
30
 10
5.9464
 20
48.4526
 30
0.0000
 11
6.6195
 21
48.4526
 31
0.0000
  0
ARC
  8
30
 10
6.6195
 20
48.2283
 30
0.0000
 40
0.2244
 50
0.0000
 51
90.0000
  0
LINE
  8
30
 10
6.8439
 20
48.2283
 30
0.0000
 11
6.8439
 21
47.5552
 31
0.0000
  0
LINE
  8
30
 10
6.3952
 20
47.5552
 30
0.0000
 11
6.3952
 21
48.4526
 31
0.0000
  0
LINE
  8
30
 10
8.1002
 20
48.0787
 30
0.0000
 11
7.7637
 21
48.0787
 31
0.0000
  0
ARC
  8
30
 10
7.7637
 20
47.8169
 30
0.0000
 40
0.2618
 50
90.0000
 51
270.0000
  0
LINE
  8
30
 10
7.7637
 20
47.5552
 30
0.0000
 11
8.1002
 21
47.5552
 31
0.0000
  0
LINE
  8
30
 10
8.1002
 20
47.5552
 30
0.0000
 11
8.1002
 21
48.2283
 31
0.0000
  0
ARC
  8
30
 10
7.8758
 20
48.2283
 30
0.0000
 40
0.2244
 50
0.0000
 51
90.0000
  0
LINE
  8
30
 10
7.8758
 20
48.4526
 30
0.0000
 11
7.5767
 21
48.4526
 31
0.0000
  0
LINE
  8
30
 10
9.2286
 20
47.9291
 30
0.0000
 11
8.8547
 21
48.0787
 31
0.0000
  0
ARC
  8
30
 10
8.9267
 20
48.2587
 30
0.0000
 40
0.1939
 50
89.1810
 51
248.1986
  0
ARC
  8
30
 10
8.9173
 20
47.6034
 30
0.0000
 40
0.8493
 50
65.7609
 51
89.1810
  0
ARC
  8
30
 10
9.1566
 20
47.7490
 30
0.0000
 40
0.1939
 50
269.1810
 51
68.1986
  0
ARC
  8
30
 10
9.1719
 20
48.8235
 30
0.0000
 40
1.2684
 50
250.2096
 51
269.1810
  0
LINE
  8
30
 10
9.9942
 20
47.5552
 30
0.0000
 11
9.9942
 21
48.9014
 31
0.0000
  0
LINE
  8
30
 10
10.5925
 20
48.4526
 30
0.0000
 11
9.9942
 21
48.0039
 31
0.0000
  0
LINE
  8
30
 10
10.5925
 20
47.5552
 30
0.0000
 11
10.2560
 21
48.1909
 31
0.0000
  0
LINE
  8
30
 10
12.3313
 20
47.9291
 30
0.0000
 11
11.9574
 21
48.0787
 31
0.0000
  0
ARC
  8
30
 10
12.0294
 20
48.2587
 30
0.0000
 40
0.1939
 50
89.1810
 51
248.1986
  0
ARC
  8
30
 10
12.0200
 20
47.6034
 30
0.0000
 40
0.8493
 50
65.7609
 51
89.1810
  0
ARC
  8
30
 10
12.2593
 20
47.7490
 30
0.0000
 40
0.1939
 50
269.1810
 51
68.1986
  0
ARC
  8
30
 10
12.2747
 20
48.8235
 30
0.0000
 40
1.2684
 50
250.2096
 51
269.1810
  0
LINE
  8
30
 10
13.0315
 20
47.8543
 30
0.0000
 11
13.0315
 21
48.1535
 31
0.0000
  0
ARC
  8
30
 10
13.3307
 20
48.1535
 30
0.0000
 40
0.2992
 50
0.0000
 51
180.0000
  0
LINE
  8
30
 10
13.6298
 20
48.1535
 30
0.0000
 11
13.6298
 21
47.8543
 31
0.0000
  0
ARC
  8
30
 10
13.3307
 20
47.8543
 30
0.0000
 40
0.2992
 50
180.0000
 51
0.0000
  0
LINE
  8
30
 10
14.2298
 20
48.9014
 30
0.0000
 11
14.2298
 21
47.7795
 31
0.0000
  0
ARC
  8
30
 10
14.4541
 20
47.7795
 30
0.0000
 40
0.2244
 50
180.0000
 51
270.0000
  0
LINE
  8
30
 10
15.5376
 20
48.9014
 30
0.0000
 11
15.5376
 21
47.5552
 31
0.0000
  0
LINE
  8
30
 10
15.5376
 20
47.5552
 30
0.0000
 11
15.1637
 21
47.5552
 31
0.0000
  0
ARC
  8
30
 10
15.1637
 20
47.7795
 30
0.0000
 40
0.2244
 50
180.0000
 51
270.0000
  0
LINE
  8
30
 10
14.9393
 20
47.7795
 30
0.0000
 11
14.9393
 21
48.2283
 31
0.0000
  0
ARC
  8
30
 10
15.1637
 20
48.2283
 30
0.0000
 40
0.2244
 50
89.9992
 51
180.0000
  0
LINE
  8
30
 10
15.1637
 20
48.4526
 30
0.0000
 11
15.5376
 21
48.4526
 31
0.0000
  0
LINE
  8
30
 10
16.7782
 20
47.5552
 30
0.0000
 11
16.4043
 21
47.5552
 31
0.0000
  0
ARC
  8
30
 10
16.4043
 20
47.7795
 30
0.0000
 40
0.2244
 50
180.0000
 51
270.0000
  0
LINE
  8
30
 10
16.1799
 20
47.7795
 30
0.0000
 11
16.1799
 21
48.1535
 31
0.0000
  0
ARC
  8
30
 10
16.4791
 20
48.1535
 30
0.0000
 40
0.2992
 50
0.0000
 51
180.0000
  0
LINE
  8
30
 10
16.7782
 20
48.1535
 30
0.0000
 11
16.7782
 21
48.0039
 31
0.0000
  0
LINE
  8
30
 10
16.7782
 20
48.0039
 30
0.0000
 11
16.1799
 21
48.0039
 31
0.0000
  0
LINE
  8
30
 10
17.4216
 20
47.5552
 30
0.0000
 11
17.4216
 21
48.4526
 31
0.0000
  0
LINE
  8
30
 10
17.4216
 20
48.4526
 30
0.0000
 11
17.8703
 21
48.4526
 31
0.0000
  0
LINE
  8
30
 10
17.8703
 20
48.4526
 30
0.0000
 11
17.8703
 21
48.3030
 31
0.0000
  0
LINE
  8
30
 10
19.5406
 20
47.9291
 30
0.0000
 11
19.1667
 21
48.0787
 31
0.0000
  0
ARC
  8
30
 10
19.2387
 20
48.2587
 30
0.0000
 40
0.1939
 50
89.1810
 51
248.1986
  0
ARC
  8
30
 10
19.2293
 20
47.6034
 30
0.0000
 40
0.8493
 50
65.7609
 51
89.1810
  0
ARC
  8
30
 10
19.4686
 20
47.7490
 30
0.0000
 40
0.1939
 50
269.1810
 51
68.1986
  0
ARC
  8
30
 10
19.4840
 20
48.8235
 30
0.0000
 40
1.2684
 50
250.2096
 51
269.1810
  0
LINE
  8
30
 10
20.2206
 20
47.5552
 30
0.0000
 11
20.2206
 21
48.4526
 31
0.0000
  0
LINE
  8
30
 10
20.1832
 20
48.8266
 30
0.0000
 11
20.1832
 21
48.9014
 31
0.0000
  0
LINE
  8
30
 10
20.1832
 20
48.9014
 30
0.0000
 11
20.2580
 21
48.9014
 31
0.0000
  0
LINE
  8
30
 10
20.2580
 20
48.9014
 30
0.0000
 11
20.2580
 21
48.8266
 31
0.0000
  0
LINE
  8
30
 10
20.2580
 20
48.8266
 30
0.0000
 11
20.1832
 21
48.8266
 31
0.0000
  0
LINE
  8
30
 10
21.3781
 20
48.9014
 30
0.0000
 11
21.3781
 21
47.5552
 31
0.0000
  0
LINE
  8
30
 10
21.3781
 20
47.5552
 30
0.0000
 11
21.0041
 21
47.5552
 31
0.0000
  0
ARC
  8
30
 10
21.0041
 20
47.7795
 30
0.0000
 40
0.2244
 50
180.0000
 51
270.0000
  0
LINE
  8
30
 10
20.7798
 20
47.7795
 30
0.0000
 11
20.7798
 21
48.2283
 31
0.0000
  0
ARC
  8
30
 10
21.0041
 20
48.2283
 30
0.0000
 40
0.2244
 50
89.9992
 51
180.0000
  0
LINE
  8
30
 10
21.0041
 20
48.4526
 30
0.0000
 11
21.3781
 21
48.4526
 31
0.0000
  0
LINE
  8
30
 10
22.6186
 20
47.5552
 30
0.0000
 11
22.2447
 21
47.5552
 31
0.0000
  0
ARC
  8
30
 10
22.2447
 20
47.7795
 30
0.0000
 40
0.2244
 50
180.0000
 51
270.0000
  0
LINE
  8
30
 10
22.0203
 20
47.7795
 30
0.0000
 11
22.0203
 21
48.1535
 31
0.0000
  0
ARC
  8
30
 10
22.3195
 20
48.1535
 30
0.0000
 40
0.2992
 50
0.0000
 51
180.0000
  0
LINE
  8
30
 10
22.6186
 20
48.1535
 30
0.0000
 11
22.6186
 21
48.0039
 31
0.0000
  0
LINE
  8
30
 10
22.6186
 20
48.0039
 30
0.0000
 11
22.0203
 21
48.0039
 31
0.0000
  0
ENDSEC
  0
EOF
