  0
SECTION
  2
HEADER
  9
$ACADVER
  1
AC1009
  9
$FILLMODE
 70
0
  9
$EXTMIN
 10
-6.0863
 20
-4.5745
 30
0.0000
  9
$EXTMAX
 10
54.6862
 20
56.5912
 30
0.0000
  0
ENDSEC
  0
SECTION
  2
TABLES
  0
TABLE
  2
LTYPE
 70
1
  0
LTYPE
  2
CONTINUOUS
 70
64
  3
Solid line
 72
65
 73
0
 40
0
  0
ENDTAB
  0
TABLE
  2
LAYER
 70
255
  0
LAYER
  2
19
 70
64
 62
53
  6
CONTINUOUS
  0
LAYER
  2
20
 70
64
 62
30
  6
CONTINUOUS
  0
LAYER
  2
21
 70
64
 62
253
  6
CONTINUOUS
  0
LAYER
  2
25
 70
64
 62
253
  6
CONTINUOUS
  0
LAYER
  2
48
 70
64
 62
253
  6
CONTINUOUS
  0
LAYER
  2
49
 70
64
 62
253
  6
CONTINUOUS
  0
LAYER
  2
51
 70
64
 62
253
  6
CONTINUOUS
  0
ENDTAB
  0
ENDSEC
  0
SECTION
  2
BLOCKS
  0
BLOCK
  8
0
  2
RECT
 70
64
 10
0.0000
 20
0.0000
 30
0.0000
  3
RECT
  0
SOLID
  8
0
 10
-0.5000
 20
-0.5000
 30
0.0000
 11
0.5000
 21
-0.5000
 31
0.0000
 12
-0.5000
 22
0.5000
 32
0.0000
 13
0.5000
 23
0.5000
 33
0.0000
  0
ENDBLK
  8
0
  0
BLOCK
  8
0
  2
PIE
 70
64
 10
0.0000
 20
0.0000
 30
0.0000
  3
PIE
  0
CIRCLE
  8
0
 10
0.0000
 20
0.0000
 30
0.0000
 40
0.5000
  0
ENDBLK
  8
0
  0
BLOCK
  8
0
  2
OCTAGONP
 70
64
 10
0.0000
 20
0.0000
 30
0.0000
  3
OCTAGONP
  0
POLYLINE
  8
0
 66
1
 10
0.0000
 20
0.0000
 30
0.0000
 40
0.0000
 41
0.0000
 70
1
  0
VERTEX
  8
0
 10
-0.5000
 20
-0.2071
 30
0.0000
  0
VERTEX
  8
0
 10
-0.5000
 20
0.2071
 30
0.0000
  0
VERTEX
  8
0
 10
-0.2071
 20
0.5000
 30
0.0000
  0
VERTEX
  8
0
 10
0.2071
 20
0.5000
 30
0.0000
  0
VERTEX
  8
0
 10
0.5000
 20
0.2071
 30
0.0000
  0
VERTEX
  8
0
 10
0.5000
 20
-0.2071
 30
0.0000
  0
VERTEX
  8
0
 10
0.2071
 20
-0.5000
 30
0.0000
  0
VERTEX
  8
0
 10
-0.2071
 20
-0.5000
 30
0.0000
  0
SEQEND
  8
0
  0
ENDBLK
  8
0
  0
BLOCK
  8
0
  2
SQUAREP
 70
64
 10
0.0000
 20
0.0000
 30
0.0000
  3
SQUAREP
  0
SOLID
  8
0
 10
-0.5000
 20
-0.5000
 30
0.0000
 11
0.5000
 21
-0.5000
 31
0.0000
 12
-0.5000
 22
0.5000
 32
0.0000
 13
0.5000
 23
0.5000
 33
0.0000
  0
ENDBLK
  8
0
  0
BLOCK
  8
0
  2
ROUNDP
 70
64
 10
0.0000
 20
0.0000
 30
0.0000
  3
ROUNDP
  0
CIRCLE
  8
0
 10
0.0000
 20
0.0000
 30
0.0000
 40
0.5000
  0
ENDBLK
  8
0
  0
BLOCK
  8
0
  2
ANNULUSP
 70
64
 10
0.0000
 20
0.0000
 30
0.0000
  3
ANNULUSP
  0
CIRCLE
  8
0
 10
0.0000
 20
0.0000
 30
0.0000
 40
0.5000
  0
ENDBLK
  8
0
  0
BLOCK
  8
0
  2
THERMALP
 70
64
 10
0.0000
 20
0.0000
 30
0.0000
  3
THERMALP
  0
LINE
  8
0
 10
-0.2379
 20
0.4500
 30
0.0000
 11
0.2379
 21
0.4500
 31
0.0000
  0
LINE
  8
0
 10
0.4500
 20
0.2379
 30
0.0000
 11
0.4500
 21
-0.2379
 31
0.0000
  0
LINE
  8
0
 10
0.2379
 20
-0.4500
 30
0.0000
 11
-0.2379
 21
-0.4500
 31
0.0000
  0
LINE
  8
0
 10
-0.4500
 20
-0.2379
 30
0.0000
 11
-0.4500
 21
0.2379
 31
0.0000
  0
ENDBLK
  8
0
  0
BLOCK
  8
0
  2
OCTAGONV
 70
64
 10
0.0000
 20
0.0000
 30
0.0000
  3
OCTAGONV
  0
POLYLINE
  8
0
 66
1
 10
0.0000
 20
0.0000
 30
0.0000
 40
0.0000
 41
0.0000
 70
1
  0
VERTEX
  8
0
 10
-0.5000
 20
-0.2071
 30
0.0000
  0
VERTEX
  8
0
 10
-0.5000
 20
0.2071
 30
0.0000
  0
VERTEX
  8
0
 10
-0.2071
 20
0.5000
 30
0.0000
  0
VERTEX
  8
0
 10
0.2071
 20
0.5000
 30
0.0000
  0
VERTEX
  8
0
 10
0.5000
 20
0.2071
 30
0.0000
  0
VERTEX
  8
0
 10
0.5000
 20
-0.2071
 30
0.0000
  0
VERTEX
  8
0
 10
0.2071
 20
-0.5000
 30
0.0000
  0
VERTEX
  8
0
 10
-0.2071
 20
-0.5000
 30
0.0000
  0
SEQEND
  8
0
  0
ENDBLK
  8
0
  0
BLOCK
  8
0
  2
SQUAREV
 70
64
 10
0.0000
 20
0.0000
 30
0.0000
  3
SQUAREV
  0
SOLID
  8
0
 10
-0.5000
 20
-0.5000
 30
0.0000
 11
0.5000
 21
-0.5000
 31
0.0000
 12
-0.5000
 22
0.5000
 32
0.0000
 13
0.5000
 23
0.5000
 33
0.0000
  0
ENDBLK
  8
0
  0
BLOCK
  8
0
  2
ROUNDV
 70
64
 10
0.0000
 20
0.0000
 30
0.0000
  3
ROUNDV
  0
CIRCLE
  8
0
 10
0.0000
 20
0.0000
 30
0.0000
 40
0.5000
  0
ENDBLK
  8
0
  0
BLOCK
  8
0
  2
ANNULUSV
 70
64
 10
0.0000
 20
0.0000
 30
0.0000
  3
ANNULUSV
  0
CIRCLE
  8
0
 10
0.0000
 20
0.0000
 30
0.0000
 40
0.5000
  0
ENDBLK
  8
0
  0
BLOCK
  8
0
  2
THERMALV
 70
64
 10
0.0000
 20
0.0000
 30
0.0000
  3
THERMALV
  0
LINE
  8
0
 10
-0.2379
 20
0.4500
 30
0.0000
 11
0.2379
 21
0.4500
 31
0.0000
  0
LINE
  8
0
 10
0.4500
 20
0.2379
 30
0.0000
 11
0.4500
 21
-0.2379
 31
0.0000
  0
LINE
  8
0
 10
0.2379
 20
-0.4500
 30
0.0000
 11
-0.2379
 21
-0.4500
 31
0.0000
  0
LINE
  8
0
 10
-0.4500
 20
-0.2379
 30
0.0000
 11
-0.4500
 21
0.2379
 31
0.0000
  0
ENDBLK
  8
0
  0
BLOCK
  8
0
  2
OFFSETP100
 70
64
 10
0.0000
 20
0.0000
 30
0.0000
  3
OFFSETP100
  0
POLYLINE
  8
0
 66
1
 10
0.0000
 20
0.0000
 30
0.0000
 40
0.0000
 41
0.0000
 70
1
  0
VERTEX
  8
0
 10
0.0000
 20
-0.5000
 30
0.0000
  0
VERTEX
  8
0
 10
1.0000
 20
-0.5000
 30
0.0000
 42
1.0000
  0
VERTEX
  8
0
 10
1.0000
 20
0.5000
 30
0.0000
  0
VERTEX
  8
0
 10
0.0000
 20
0.5000
 30
0.0000
 42
1.0000
  0
SEQEND
  8
0
  0
ENDBLK
  8
0
  0
ENDSEC
  0
SECTION
  2
ENTITIES
  0
LINE
  8
20
 10
1.0000
 20
34.0000
 30
0.0000
 11
47.0000
 21
34.0000
 31
0.0000
  0
ARC
  8
20
 10
47.0000
 20
33.0000
 30
0.0000
 40
1.0000
 50
0.0000
 51
90.0000
  0
LINE
  8
20
 10
48.0000
 20
33.0000
 30
0.0000
 11
48.0000
 21
1.0000
 31
0.0000
  0
ARC
  8
20
 10
47.0000
 20
1.0000
 30
0.0000
 40
1.0000
 50
270.0000
 51
0.0000
  0
LINE
  8
20
 10
47.0000
 20
0.0000
 30
0.0000
 11
10.0000
 21
0.0000
 31
0.0000
  0
ARC
  8
20
 10
10.0000
 20
1.0000
 30
0.0000
 40
1.0000
 50
180.0000
 51
270.0000
  0
ARC
  8
20
 10
1.0000
 20
16.0000
 30
0.0000
 40
1.0000
 50
180.0000
 51
270.0000
  0
LINE
  8
20
 10
0.0000
 20
16.0000
 30
0.0000
 11
0.0000
 21
33.0000
 31
0.0000
  0
ARC
  8
20
 10
1.0000
 20
33.0000
 30
0.0000
 40
1.0000
 50
90.0000
 51
180.0000
  0
ARC
  8
20
 10
8.0000
 20
14.0000
 30
0.0000
 40
1.0000
 50
0.0000
 51
90.0000
  0
ARC
  8
20
 10
1.0000
 20
14.0000
 30
0.0000
 40
1.0000
 50
0.0000
 51
90.0000
  0
ARC
  8
20
 10
1.0000
 20
14.0000
 30
0.0000
 40
1.0000
 50
270.0000
 51
0.0000
  0
LINE
  8
20
 10
1.0000
 20
13.0000
 30
0.0000
 11
0.0000
 21
13.0000
 31
0.0000
  0
LINE
  8
20
 10
0.0000
 20
13.0000
 30
0.0000
 11
0.0000
 21
11.0000
 31
0.0000
  0
LINE
  8
20
 10
0.0000
 20
11.0000
 30
0.0000
 11
1.5000
 21
11.0000
 31
0.0000
  0
LINE
  8
20
 10
7.0000
 20
13.0000
 30
0.0000
 11
6.0000
 21
13.0000
 31
0.0000
  0
ARC
  8
20
 10
6.0000
 20
14.0000
 30
0.0000
 40
1.0000
 50
180.0000
 51
270.0000
  0
ARC
  8
20
 10
6.0000
 20
14.0000
 30
0.0000
 40
1.0000
 50
90.0000
 51
180.0000
  0
LINE
  8
20
 10
6.0000
 20
15.0000
 30
0.0000
 11
8.0000
 21
15.0000
 31
0.0000
  0
LINE
  8
20
 10
9.0000
 20
14.0000
 30
0.0000
 11
9.0000
 21
12.0000
 31
0.0000
  0
ARC
  8
20
 10
8.0000
 20
12.0000
 30
0.0000
 40
1.0000
 50
270.0000
 51
0.0000
  0
ARC
  8
20
 10
8.0000
 20
12.0000
 30
0.0000
 40
1.0000
 50
180.0000
 51
270.0000
  0
LINE
  8
20
 10
7.0000
 20
12.0000
 30
0.0000
 11
7.0000
 21
13.0000
 31
0.0000
  0
ARC
  8
20
 10
8.0000
 20
6.0000
 30
0.0000
 40
1.0000
 50
180.0000
 51
270.0000
  0
LINE
  8
20
 10
7.0000
 20
6.0000
 30
0.0000
 11
7.0000
 21
7.0000
 31
0.0000
  0
ARC
  8
20
 10
8.0000
 20
7.0000
 30
0.0000
 40
1.0000
 50
90.0000
 51
180.0000
  0
ARC
  8
20
 10
8.0000
 20
7.0000
 30
0.0000
 40
1.0000
 50
0.0000
 51
90.0000
  0
LINE
  8
20
 10
9.0000
 20
7.0000
 30
0.0000
 11
9.0000
 21
6.0000
 31
0.0000
  0
ARC
  8
20
 10
8.0000
 20
6.0000
 30
0.0000
 40
1.0000
 50
270.0000
 51
0.0000
  0
ARC
  8
20
 10
8.0000
 20
1.0000
 30
0.0000
 40
1.0000
 50
0.0000
 51
90.0000
  0
ARC
  8
20
 10
8.0000
 20
1.0000
 30
0.0000
 40
1.0000
 50
90.0000
 51
180.0000
  0
LINE
  8
20
 10
7.0000
 20
1.0000
 30
0.0000
 11
7.0000
 21
0.0000
 31
0.0000
  0
LINE
  8
20
 10
7.0000
 20
0.0000
 30
0.0000
 11
0.0000
 21
0.0000
 31
0.0000
  0
LINE
  8
20
 10
0.0000
 20
0.0000
 30
0.0000
 11
0.0000
 21
2.0000
 31
0.0000
  0
LINE
  8
20
 10
0.0000
 20
2.0000
 30
0.0000
 11
1.5000
 21
2.0000
 31
0.0000
  0
ARC
  8
20
 10
1.5000
 20
6.5000
 30
0.0000
 40
4.5000
 50
270.0000
 51
90.0000
  0
LINE
  8
21
 10
2.0000
 20
15.0000
 30
0.0000
 11
5.0000
 21
15.0000
 31
0.0000
  0
LINE
  8
21
 10
9.0000
 20
8.0000
 30
0.0000
 11
9.0000
 21
11.0000
 31
0.0000
  0
LINE
  8
21
 10
9.0000
 20
2.0000
 30
0.0000
 11
9.0000
 21
5.0000
 31
0.0000
  0
LINE
  8
21
 10
38.5108
 20
30.0508
 30
0.0000
 11
38.2511
 21
30.0508
 31
0.0000
  0
ARC
  8
21
 10
38.2511
 20
30.3104
 30
0.0000
 40
0.2596
 50
180.0000
 51
270.0000
  0
LINE
  8
21
 10
37.9915
 20
30.3104
 30
0.0000
 11
37.9915
 21
30.9596
 31
0.0000
  0
ARC
  8
21
 10
38.2511
 20
30.9596
 30
0.0000
 40
0.2596
 50
90.0007
 51
180.0000
  0
LINE
  8
21
 10
38.2511
 20
31.2192
 30
0.0000
 11
38.5108
 21
31.2192
 31
0.0000
  0
LINE
  8
21
 10
38.9360
 20
30.3104
 30
0.0000
 11
38.9360
 21
30.5701
 31
0.0000
  0
ARC
  8
21
 10
39.1957
 20
30.5701
 30
0.0000
 40
0.2596
 50
0.0000
 51
180.0000
  0
LINE
  8
21
 10
39.4553
 20
30.5701
 30
0.0000
 11
39.4553
 21
30.3104
 31
0.0000
  0
ARC
  8
21
 10
39.1957
 20
30.3104
 30
0.0000
 40
0.2596
 50
180.0000
 51
0.0000
  0
LINE
  8
21
 10
39.9873
 20
30.0508
 30
0.0000
 11
39.9873
 21
30.8297
 31
0.0000
  0
LINE
  8
21
 10
39.9873
 20
30.8297
 30
0.0000
 11
40.5715
 21
30.8297
 31
0.0000
  0
ARC
  8
21
 10
40.5715
 20
30.6350
 30
0.0000
 40
0.1947
 50
0.0000
 51
90.0000
  0
LINE
  8
21
 10
40.7662
 20
30.6350
 30
0.0000
 11
40.7662
 21
30.0508
 31
0.0000
  0
LINE
  8
21
 10
40.3768
 20
30.0508
 30
0.0000
 11
40.3768
 21
30.8297
 31
0.0000
  0
LINE
  8
21
 10
41.3422
 20
29.6613
 30
0.0000
 11
41.3422
 21
30.8297
 31
0.0000
  0
LINE
  8
21
 10
41.3422
 20
30.8297
 30
0.0000
 11
41.6668
 21
30.8297
 31
0.0000
  0
ARC
  8
21
 10
41.6668
 20
30.6350
 30
0.0000
 40
0.1947
 50
0.0009
 51
90.0000
  0
LINE
  8
21
 10
41.8615
 20
30.6350
 30
0.0000
 11
41.8615
 21
30.2455
 31
0.0000
  0
ARC
  8
21
 10
41.6668
 20
30.2455
 30
0.0000
 40
0.1947
 50
270.0000
 51
0.0000
  0
LINE
  8
21
 10
41.6668
 20
30.0508
 30
0.0000
 11
41.3422
 21
30.0508
 31
0.0000
  0
LINE
  8
21
 10
42.3269
 20
30.3104
 30
0.0000
 11
42.3269
 21
30.5701
 31
0.0000
  0
ARC
  8
21
 10
42.5866
 20
30.5701
 30
0.0000
 40
0.2596
 50
0.0000
 51
180.0000
  0
LINE
  8
21
 10
42.8462
 20
30.5701
 30
0.0000
 11
42.8462
 21
30.3104
 31
0.0000
  0
ARC
  8
21
 10
42.5866
 20
30.3104
 30
0.0000
 40
0.2596
 50
180.0000
 51
0.0000
  0
LINE
  8
21
 10
43.7394
 20
30.3754
 30
0.0000
 11
43.4149
 21
30.5052
 31
0.0000
  0
ARC
  8
21
 10
43.4774
 20
30.6614
 30
0.0000
 40
0.1683
 50
89.1818
 51
248.1989
  0
ARC
  8
21
 10
43.4693
 20
30.0927
 30
0.0000
 40
0.7371
 50
65.7612
 51
89.1819
  0
ARC
  8
21
 10
43.6769
 20
30.2191
 30
0.0000
 40
0.1683
 50
269.1818
 51
68.1989
  0
ARC
  8
21
 10
43.6903
 20
31.1515
 30
0.0000
 40
1.1008
 50
250.2090
 51
269.1819
  0
LINE
  8
21
 10
44.3011
 20
30.0508
 30
0.0000
 11
44.3011
 21
30.8297
 31
0.0000
  0
LINE
  8
21
 10
44.2686
 20
31.1543
 30
0.0000
 11
44.2686
 21
31.2192
 31
0.0000
  0
LINE
  8
21
 10
44.2686
 20
31.2192
 30
0.0000
 11
44.3335
 21
31.2192
 31
0.0000
  0
LINE
  8
21
 10
44.3335
 20
31.2192
 30
0.0000
 11
44.3335
 21
31.1543
 31
0.0000
  0
LINE
  8
21
 10
44.3335
 20
31.1543
 30
0.0000
 11
44.2686
 21
31.1543
 31
0.0000
  0
LINE
  8
21
 10
44.6686
 20
30.8297
 30
0.0000
 11
45.0581
 21
30.8297
 31
0.0000
  0
LINE
  8
21
 10
44.7984
 20
31.2192
 30
0.0000
 11
44.7984
 21
30.2455
 31
0.0000
  0
ARC
  8
21
 10
44.9931
 20
30.2455
 30
0.0000
 40
0.1947
 50
180.0000
 51
270.0000
  0
LINE
  8
21
 10
44.9931
 20
30.0508
 30
0.0000
 11
45.0581
 21
30.0508
 31
0.0000
  0
LINE
  8
21
 10
46.0085
 20
30.0508
 30
0.0000
 11
45.6840
 21
30.0508
 31
0.0000
  0
ARC
  8
21
 10
45.6840
 20
30.2455
 30
0.0000
 40
0.1947
 50
180.0000
 51
270.0000
  0
LINE
  8
21
 10
45.4892
 20
30.2455
 30
0.0000
 11
45.4892
 21
30.5701
 31
0.0000
  0
ARC
  8
21
 10
45.7489
 20
30.5701
 30
0.0000
 40
0.2596
 50
0.0000
 51
180.0000
  0
LINE
  8
21
 10
46.0085
 20
30.5701
 30
0.0000
 11
46.0085
 21
30.4403
 31
0.0000
  0
LINE
  8
21
 10
46.0085
 20
30.4403
 30
0.0000
 11
45.4892
 21
30.4403
 31
0.0000
  0
LINE
  8
21
 10
2.7037
 20
30.0508
 30
0.0000
 11
3.0931
 21
31.2192
 31
0.0000
  0
LINE
  8
21
 10
3.0931
 20
31.2192
 30
0.0000
 11
3.4826
 21
30.0508
 31
0.0000
  0
LINE
  8
21
 10
3.3852
 20
30.3429
 30
0.0000
 11
2.8010
 21
30.3429
 31
0.0000
  0
LINE
  8
21
 10
3.9384
 20
30.8297
 30
0.0000
 11
3.9384
 21
30.2455
 31
0.0000
  0
ARC
  8
21
 10
4.1331
 20
30.2455
 30
0.0000
 40
0.1947
 50
180.0000
 51
270.0000
  0
LINE
  8
21
 10
4.1331
 20
30.0508
 30
0.0000
 11
4.4577
 21
30.0508
 31
0.0000
  0
LINE
  8
21
 10
4.4577
 20
30.0508
 30
0.0000
 11
4.4577
 21
30.8297
 31
0.0000
  0
LINE
  8
21
 10
5.4805
 20
31.2192
 30
0.0000
 11
5.4805
 21
30.0508
 31
0.0000
  0
LINE
  8
21
 10
5.4805
 20
30.0508
 30
0.0000
 11
5.1559
 21
30.0508
 31
0.0000
  0
ARC
  8
21
 10
5.1559
 20
30.2455
 30
0.0000
 40
0.1947
 50
180.0000
 51
270.0000
  0
LINE
  8
21
 10
4.9612
 20
30.2455
 30
0.0000
 11
4.9612
 21
30.6350
 31
0.0000
  0
ARC
  8
21
 10
5.1559
 20
30.6350
 30
0.0000
 40
0.1947
 50
90.0000
 51
180.0000
  0
LINE
  8
21
 10
5.1559
 20
30.8297
 30
0.0000
 11
5.4805
 21
30.8297
 31
0.0000
  0
LINE
  8
21
 10
5.9887
 20
30.0508
 30
0.0000
 11
5.9887
 21
30.8297
 31
0.0000
  0
LINE
  8
21
 10
5.9563
 20
31.1543
 30
0.0000
 11
5.9563
 21
31.2192
 31
0.0000
  0
LINE
  8
21
 10
5.9563
 20
31.2192
 30
0.0000
 11
6.0212
 21
31.2192
 31
0.0000
  0
LINE
  8
21
 10
6.0212
 20
31.2192
 30
0.0000
 11
6.0212
 21
31.1543
 31
0.0000
  0
LINE
  8
21
 10
6.0212
 20
31.1543
 30
0.0000
 11
5.9563
 21
31.1543
 31
0.0000
  0
LINE
  8
21
 10
6.4530
 20
30.3104
 30
0.0000
 11
6.4530
 21
30.5701
 31
0.0000
  0
ARC
  8
21
 10
6.7126
 20
30.5701
 30
0.0000
 40
0.2596
 50
0.0000
 51
180.0000
  0
LINE
  8
21
 10
6.9723
 20
30.5701
 30
0.0000
 11
6.9723
 21
30.3104
 31
0.0000
  0
ARC
  8
21
 10
6.7126
 20
30.3104
 30
0.0000
 40
0.2596
 50
180.0000
 51
0.0000
  0
LINE
  8
21
 10
8.1604
 20
31.2192
 30
0.0000
 11
8.1604
 21
30.0508
 31
0.0000
  0
LINE
  8
21
 10
8.0306
 20
30.0508
 30
0.0000
 11
8.2902
 21
30.0508
 31
0.0000
  0
LINE
  8
21
 10
8.0306
 20
31.2192
 30
0.0000
 11
8.2902
 21
31.2192
 31
0.0000
  0
LINE
  8
21
 10
8.7771
 20
30.0508
 30
0.0000
 11
8.7771
 21
30.8297
 31
0.0000
  0
LINE
  8
21
 10
8.7771
 20
30.8297
 30
0.0000
 11
9.1016
 21
30.8297
 31
0.0000
  0
ARC
  8
21
 10
9.1016
 20
30.6350
 30
0.0000
 40
0.1947
 50
0.0009
 51
90.0000
  0
LINE
  8
21
 10
9.2964
 20
30.6350
 30
0.0000
 11
9.2964
 21
30.0508
 31
0.0000
  0
LINE
  8
21
 10
13.2681
 20
30.0508
 30
0.0000
 11
13.6576
 21
31.2192
 31
0.0000
  0
LINE
  8
21
 10
13.6576
 20
31.2192
 30
0.0000
 11
14.0471
 21
30.0508
 31
0.0000
  0
LINE
  8
21
 10
13.9497
 20
30.3429
 30
0.0000
 11
13.3655
 21
30.3429
 31
0.0000
  0
LINE
  8
21
 10
14.5029
 20
30.8297
 30
0.0000
 11
14.5029
 21
30.2455
 31
0.0000
  0
ARC
  8
21
 10
14.6976
 20
30.2455
 30
0.0000
 40
0.1947
 50
180.0000
 51
270.0000
  0
LINE
  8
21
 10
14.6976
 20
30.0508
 30
0.0000
 11
15.0221
 21
30.0508
 31
0.0000
  0
LINE
  8
21
 10
15.0221
 20
30.0508
 30
0.0000
 11
15.0221
 21
30.8297
 31
0.0000
  0
LINE
  8
21
 10
16.0449
 20
31.2192
 30
0.0000
 11
16.0449
 21
30.0508
 31
0.0000
  0
LINE
  8
21
 10
16.0449
 20
30.0508
 30
0.0000
 11
15.7204
 21
30.0508
 31
0.0000
  0
ARC
  8
21
 10
15.7204
 20
30.2455
 30
0.0000
 40
0.1947
 50
180.0000
 51
270.0000
  0
LINE
  8
21
 10
15.5257
 20
30.2455
 30
0.0000
 11
15.5257
 21
30.6350
 31
0.0000
  0
ARC
  8
21
 10
15.7204
 20
30.6350
 30
0.0000
 40
0.1947
 50
90.0000
 51
180.0000
  0
LINE
  8
21
 10
15.7204
 20
30.8297
 30
0.0000
 11
16.0449
 21
30.8297
 31
0.0000
  0
LINE
  8
21
 10
16.5532
 20
30.0508
 30
0.0000
 11
16.5532
 21
30.8297
 31
0.0000
  0
LINE
  8
21
 10
16.5207
 20
31.1543
 30
0.0000
 11
16.5207
 21
31.2192
 31
0.0000
  0
LINE
  8
21
 10
16.5207
 20
31.2192
 30
0.0000
 11
16.5856
 21
31.2192
 31
0.0000
  0
LINE
  8
21
 10
16.5856
 20
31.2192
 30
0.0000
 11
16.5856
 21
31.1543
 31
0.0000
  0
LINE
  8
21
 10
16.5856
 20
31.1543
 30
0.0000
 11
16.5207
 21
31.1543
 31
0.0000
  0
LINE
  8
21
 10
17.0174
 20
30.3104
 30
0.0000
 11
17.0174
 21
30.5701
 31
0.0000
  0
ARC
  8
21
 10
17.2771
 20
30.5701
 30
0.0000
 40
0.2596
 50
0.0000
 51
180.0000
  0
LINE
  8
21
 10
17.5367
 20
30.5701
 30
0.0000
 11
17.5367
 21
30.3104
 31
0.0000
  0
ARC
  8
21
 10
17.2771
 20
30.3104
 30
0.0000
 40
0.2596
 50
180.0000
 51
0.0000
  0
LINE
  8
21
 10
18.6289
 20
30.3754
 30
0.0000
 11
18.6289
 21
30.8946
 31
0.0000
  0
ARC
  8
21
 10
18.9535
 20
30.8946
 30
0.0000
 40
0.3246
 50
0.0000
 51
180.0000
  0
LINE
  8
21
 10
19.2780
 20
30.8946
 30
0.0000
 11
19.2780
 21
30.3754
 31
0.0000
  0
ARC
  8
21
 10
18.9535
 20
30.3754
 30
0.0000
 40
0.3246
 50
180.0000
 51
0.0000
  0
LINE
  8
21
 10
19.7987
 20
30.8297
 30
0.0000
 11
19.7987
 21
30.2455
 31
0.0000
  0
ARC
  8
21
 10
19.9935
 20
30.2455
 30
0.0000
 40
0.1947
 50
180.0000
 51
270.0000
  0
LINE
  8
21
 10
19.9935
 20
30.0508
 30
0.0000
 11
20.3180
 21
30.0508
 31
0.0000
  0
LINE
  8
21
 10
20.3180
 20
30.0508
 30
0.0000
 11
20.3180
 21
30.8297
 31
0.0000
  0
LINE
  8
21
 10
20.7307
 20
30.8297
 30
0.0000
 11
21.1202
 21
30.8297
 31
0.0000
  0
LINE
  8
21
 10
20.8605
 20
31.2192
 30
0.0000
 11
20.8605
 21
30.2455
 31
0.0000
  0
ARC
  8
21
 10
21.0553
 20
30.2455
 30
0.0000
 40
0.1947
 50
180.0000
 51
270.0000
  0
LINE
  8
21
 10
21.0553
 20
30.0508
 30
0.0000
 11
21.1202
 21
30.0508
 31
0.0000
  0
LINE
  8
21
 10
22.2126
 20
31.2192
 30
0.0000
 11
22.2126
 21
30.0508
 31
0.0000
  0
LINE
  8
21
 10
22.2126
 20
30.0508
 30
0.0000
 11
22.7319
 21
30.0508
 31
0.0000
  0
LINE
  8
21
 10
25.2007
 20
30.0508
 30
0.0000
 11
25.5901
 21
31.2192
 31
0.0000
  0
LINE
  8
21
 10
25.5901
 20
31.2192
 30
0.0000
 11
25.9796
 21
30.0508
 31
0.0000
  0
LINE
  8
21
 10
25.8822
 20
30.3429
 30
0.0000
 11
25.2980
 21
30.3429
 31
0.0000
  0
LINE
  8
21
 10
26.4354
 20
30.8297
 30
0.0000
 11
26.4354
 21
30.2455
 31
0.0000
  0
ARC
  8
21
 10
26.6301
 20
30.2455
 30
0.0000
 40
0.1947
 50
180.0000
 51
270.0000
  0
LINE
  8
21
 10
26.6301
 20
30.0508
 30
0.0000
 11
26.9547
 21
30.0508
 31
0.0000
  0
LINE
  8
21
 10
26.9547
 20
30.0508
 30
0.0000
 11
26.9547
 21
30.8297
 31
0.0000
  0
LINE
  8
21
 10
27.9775
 20
31.2192
 30
0.0000
 11
27.9775
 21
30.0508
 31
0.0000
  0
LINE
  8
21
 10
27.9775
 20
30.0508
 30
0.0000
 11
27.6529
 21
30.0508
 31
0.0000
  0
ARC
  8
21
 10
27.6529
 20
30.2455
 30
0.0000
 40
0.1947
 50
180.0000
 51
270.0000
  0
LINE
  8
21
 10
27.4582
 20
30.2455
 30
0.0000
 11
27.4582
 21
30.6350
 31
0.0000
  0
ARC
  8
21
 10
27.6529
 20
30.6350
 30
0.0000
 40
0.1947
 50
90.0000
 51
180.0000
  0
LINE
  8
21
 10
27.6529
 20
30.8297
 30
0.0000
 11
27.9775
 21
30.8297
 31
0.0000
  0
LINE
  8
21
 10
28.4857
 20
30.0508
 30
0.0000
 11
28.4857
 21
30.8297
 31
0.0000
  0
LINE
  8
21
 10
28.4533
 20
31.1543
 30
0.0000
 11
28.4533
 21
31.2192
 31
0.0000
  0
LINE
  8
21
 10
28.4533
 20
31.2192
 30
0.0000
 11
28.5182
 21
31.2192
 31
0.0000
  0
LINE
  8
21
 10
28.5182
 20
31.2192
 30
0.0000
 11
28.5182
 21
31.1543
 31
0.0000
  0
LINE
  8
21
 10
28.5182
 20
31.1543
 30
0.0000
 11
28.4533
 21
31.1543
 31
0.0000
  0
LINE
  8
21
 10
28.9500
 20
30.3104
 30
0.0000
 11
28.9500
 21
30.5701
 31
0.0000
  0
ARC
  8
21
 10
29.2096
 20
30.5701
 30
0.0000
 40
0.2596
 50
0.0000
 51
180.0000
  0
LINE
  8
21
 10
29.4693
 20
30.5701
 30
0.0000
 11
29.4693
 21
30.3104
 31
0.0000
  0
ARC
  8
21
 10
29.2096
 20
30.3104
 30
0.0000
 40
0.2596
 50
180.0000
 51
0.0000
  0
LINE
  8
21
 10
30.5615
 20
30.3754
 30
0.0000
 11
30.5615
 21
30.8946
 31
0.0000
  0
ARC
  8
21
 10
30.8860
 20
30.8946
 30
0.0000
 40
0.3246
 50
0.0000
 51
180.0000
  0
LINE
  8
21
 10
31.2106
 20
30.8946
 30
0.0000
 11
31.2106
 21
30.3754
 31
0.0000
  0
ARC
  8
21
 10
30.8860
 20
30.3754
 30
0.0000
 40
0.3246
 50
180.0000
 51
0.0000
  0
LINE
  8
21
 10
31.7313
 20
30.8297
 30
0.0000
 11
31.7313
 21
30.2455
 31
0.0000
  0
ARC
  8
21
 10
31.9260
 20
30.2455
 30
0.0000
 40
0.1947
 50
180.0000
 51
270.0000
  0
LINE
  8
21
 10
31.9260
 20
30.0508
 30
0.0000
 11
32.2506
 21
30.0508
 31
0.0000
  0
LINE
  8
21
 10
32.2506
 20
30.0508
 30
0.0000
 11
32.2506
 21
30.8297
 31
0.0000
  0
LINE
  8
21
 10
32.6633
 20
30.8297
 30
0.0000
 11
33.0527
 21
30.8297
 31
0.0000
  0
LINE
  8
21
 10
32.7931
 20
31.2192
 30
0.0000
 11
32.7931
 21
30.2455
 31
0.0000
  0
ARC
  8
21
 10
32.9878
 20
30.2455
 30
0.0000
 40
0.1947
 50
180.0000
 51
270.0000
  0
LINE
  8
21
 10
32.9878
 20
30.0508
 30
0.0000
 11
33.0527
 21
30.0508
 31
0.0000
  0
LINE
  8
21
 10
34.1502
 20
30.0508
 30
0.0000
 11
34.1502
 21
31.2192
 31
0.0000
  0
LINE
  8
21
 10
34.1502
 20
31.2192
 30
0.0000
 11
34.4748
 21
31.2192
 31
0.0000
  0
ARC
  8
21
 10
34.4748
 20
30.8946
 30
0.0000
 40
0.3246
 50
270.0000
 51
90.0000
  0
LINE
  8
21
 10
34.4748
 20
30.5701
 30
0.0000
 11
34.1502
 21
30.5701
 31
0.0000
  0
LINE
  8
21
 10
34.7993
 20
30.0508
 30
0.0000
 11
34.5397
 21
30.5701
 31
0.0000
  0
LINE
  8
21
 10
21.4919
 20
15.9021
 30
0.0000
 11
21.4919
 21
17.0705
 31
0.0000
  0
LINE
  8
21
 10
21.4919
 20
17.0705
 30
0.0000
 11
21.8814
 21
16.4213
 31
0.0000
  0
LINE
  8
21
 10
21.8814
 20
16.4213
 30
0.0000
 11
22.2709
 21
17.0705
 31
0.0000
  0
LINE
  8
21
 10
22.2709
 20
17.0705
 30
0.0000
 11
22.2709
 21
15.9021
 31
0.0000
  0
LINE
  8
21
 10
22.8141
 20
16.2266
 30
0.0000
 11
22.8141
 21
16.7459
 31
0.0000
  0
ARC
  8
21
 10
23.1387
 20
16.7459
 30
0.0000
 40
0.3246
 50
0.0000
 51
180.0000
  0
LINE
  8
21
 10
23.4633
 20
16.7459
 30
0.0000
 11
23.4633
 21
16.2266
 31
0.0000
  0
ARC
  8
21
 10
23.1387
 20
16.2266
 30
0.0000
 40
0.3246
 50
180.0000
 51
0.0000
  0
LINE
  8
21
 10
23.9952
 20
15.9021
 30
0.0000
 11
23.9952
 21
17.0705
 31
0.0000
  0
LINE
  8
21
 10
23.9952
 20
17.0705
 30
0.0000
 11
24.6444
 21
15.9021
 31
0.0000
  0
LINE
  8
21
 10
24.6444
 20
15.9021
 30
0.0000
 11
24.6444
 21
17.0705
 31
0.0000
  0
LINE
  8
21
 10
25.1763
 20
16.2266
 30
0.0000
 11
25.1763
 21
16.7459
 31
0.0000
  0
ARC
  8
21
 10
25.5009
 20
16.7459
 30
0.0000
 40
0.3246
 50
0.0000
 51
180.0000
  0
LINE
  8
21
 10
25.8255
 20
16.7459
 30
0.0000
 11
25.8255
 21
16.2266
 31
0.0000
  0
ARC
  8
21
 10
25.5009
 20
16.2266
 30
0.0000
 40
0.3246
 50
180.0000
 51
0.0000
  0
ARC
  8
21
 10
34.5715
 20
16.1617
 30
0.0000
 40
0.2596
 50
270.0000
 51
0.0000
  0
ARC
  8
21
 10
34.5715
 20
16.4506
 30
0.0000
 40
0.5485
 50
224.7610
 51
269.9999
  0
ARC
  8
21
 10
34.4741
 20
16.8108
 30
0.0000
 40
0.2596
 50
89.9993
 51
180.0000
  0
ARC
  8
21
 10
34.4741
 20
16.5836
 30
0.0000
 40
0.4868
 50
53.1301
 51
89.9993
  0
ARC
  8
21
 10
34.4782
 20
16.8108
 30
0.0000
 40
0.2637
 50
179.9998
 51
239.4902
  0
ARC
  8
21
 10
34.5675
 20
16.1617
 30
0.0000
 40
0.2637
 50
0.0001
 51
59.4899
  0
LINE
  8
21
 10
34.7013
 20
16.3889
 30
0.0000
 11
34.3443
 21
16.5836
 31
0.0000
  0
LINE
  8
21
 10
35.5353
 20
15.9021
 30
0.0000
 11
35.5353
 21
17.0705
 31
0.0000
  0
LINE
  8
21
 10
35.2107
 20
17.0705
 30
0.0000
 11
35.8599
 21
17.0705
 31
0.0000
  0
LINE
  8
21
 10
36.8372
 20
15.9021
 30
0.0000
 11
36.3179
 21
15.9021
 31
0.0000
  0
LINE
  8
21
 10
36.3179
 20
15.9021
 30
0.0000
 11
36.3179
 21
17.0705
 31
0.0000
  0
LINE
  8
21
 10
36.3179
 20
17.0705
 30
0.0000
 11
36.8372
 21
17.0705
 31
0.0000
  0
LINE
  8
21
 10
36.3179
 20
16.5512
 30
0.0000
 11
36.7074
 21
16.5512
 31
0.0000
  0
LINE
  8
21
 10
37.3136
 20
15.9021
 30
0.0000
 11
37.3136
 21
17.0705
 31
0.0000
  0
LINE
  8
21
 10
37.3136
 20
17.0705
 30
0.0000
 11
37.6382
 21
17.0705
 31
0.0000
  0
ARC
  8
21
 10
37.6382
 20
16.7459
 30
0.0000
 40
0.3246
 50
270.0000
 51
90.0000
  0
LINE
  8
21
 10
37.6382
 20
16.4213
 30
0.0000
 11
37.3136
 21
16.4213
 31
0.0000
  0
LINE
  8
21
 10
37.9627
 20
15.9021
 30
0.0000
 11
37.7031
 21
16.4213
 31
0.0000
  0
LINE
  8
21
 10
39.0089
 20
15.9021
 30
0.0000
 11
38.4896
 21
15.9021
 31
0.0000
  0
LINE
  8
21
 10
38.4896
 20
15.9021
 30
0.0000
 11
38.4896
 21
17.0705
 31
0.0000
  0
LINE
  8
21
 10
38.4896
 20
17.0705
 30
0.0000
 11
39.0089
 21
17.0705
 31
0.0000
  0
LINE
  8
21
 10
38.4896
 20
16.5512
 30
0.0000
 11
38.8791
 21
16.5512
 31
0.0000
  0
LINE
  8
21
 10
39.4398
 20
16.2266
 30
0.0000
 11
39.4398
 21
16.7459
 31
0.0000
  0
ARC
  8
21
 10
39.7644
 20
16.7459
 30
0.0000
 40
0.3246
 50
0.0000
 51
180.0000
  0
LINE
  8
21
 10
40.0890
 20
16.7459
 30
0.0000
 11
40.0890
 21
16.2266
 31
0.0000
  0
ARC
  8
21
 10
39.7644
 20
16.2266
 30
0.0000
 40
0.3246
 50
180.0000
 51
0.0000
  0
LINE
  8
21
 10
10.6167
 20
1.5226
 30
0.0000
 11
10.6167
 21
1.2629
 31
0.0000
  0
ARC
  8
21
 10
10.3571
 20
1.2629
 30
0.0000
 40
0.2596
 50
270.0000
 51
0.0000
  0
LINE
  8
21
 10
10.3571
 20
1.0033
 30
0.0000
 11
9.7079
 21
1.0033
 31
0.0000
  0
ARC
  8
21
 10
9.7079
 20
1.2630
 30
0.0000
 40
0.2596
 50
180.0014
 51
270.0000
  0
LINE
  8
21
 10
9.4483
 20
1.2629
 30
0.0000
 11
9.4483
 21
1.5226
 31
0.0000
  0
LINE
  8
21
 10
10.6167
 20
1.9972
 30
0.0000
 11
9.4483
 21
1.9972
 31
0.0000
  0
LINE
  8
21
 10
9.9676
 20
1.9972
 30
0.0000
 11
9.9676
 21
2.6463
 31
0.0000
  0
LINE
  8
21
 10
9.4483
 20
2.6463
 30
0.0000
 11
10.6167
 21
2.6463
 31
0.0000
  0
LINE
  8
21
 10
10.6167
 20
3.2238
 30
0.0000
 11
9.4483
 21
3.2238
 31
0.0000
  0
LINE
  8
21
 10
9.4483
 20
3.2238
 30
0.0000
 11
9.4483
 21
3.5483
 31
0.0000
  0
ARC
  8
21
 10
9.7729
 20
3.5483
 30
0.0000
 40
0.3246
 50
0.0000
 51
180.0000
  0
LINE
  8
21
 10
10.0974
 20
3.5483
 30
0.0000
 11
10.0974
 21
3.2238
 31
0.0000
  0
LINE
  8
21
 10
10.6167
 20
3.8729
 30
0.0000
 11
10.0974
 21
3.6132
 31
0.0000
  0
LINE
  8
21
 10
10.2921
 20
4.3594
 30
0.0000
 11
9.7729
 21
4.3594
 31
0.0000
  0
ARC
  8
21
 10
9.7729
 20
4.6840
 30
0.0000
 40
0.3246
 50
90.0000
 51
270.0000
  0
LINE
  8
21
 10
9.7729
 20
5.0085
 30
0.0000
 11
10.2921
 21
5.0085
 31
0.0000
  0
ARC
  8
21
 10
10.2921
 20
4.6840
 30
0.0000
 40
0.3246
 50
270.0000
 51
90.0000
  0
LINE
  8
21
 10
10.6167
 20
5.5518
 30
0.0000
 11
9.4483
 21
5.5518
 31
0.0000
  0
LINE
  8
21
 10
9.4483
 20
5.5518
 30
0.0000
 11
10.0974
 21
5.9413
 31
0.0000
  0
LINE
  8
21
 10
10.0974
 20
5.9413
 30
0.0000
 11
9.4483
 21
6.3307
 31
0.0000
  0
LINE
  8
21
 10
9.4483
 20
6.3307
 30
0.0000
 11
10.6167
 21
6.3307
 31
0.0000
  0
LINE
  8
21
 10
10.6167
 20
6.8091
 30
0.0000
 11
9.4483
 21
7.1986
 31
0.0000
  0
LINE
  8
21
 10
9.4483
 20
7.1986
 30
0.0000
 11
10.6167
 21
7.5880
 31
0.0000
  0
LINE
  8
21
 10
10.3246
 20
7.4907
 30
0.0000
 11
10.3246
 21
6.9065
 31
0.0000
  0
LINE
  8
21
 10
10.6167
 20
8.6647
 30
0.0000
 11
9.4483
 21
8.6647
 31
0.0000
  0
LINE
  8
21
 10
9.9676
 20
8.6647
 30
0.0000
 11
9.9676
 21
9.3138
 31
0.0000
  0
LINE
  8
21
 10
9.4483
 20
9.3138
 30
0.0000
 11
10.6167
 21
9.3138
 31
0.0000
  0
LINE
  8
21
 10
9.4483
 20
9.9418
 30
0.0000
 11
10.6167
 21
9.9418
 31
0.0000
  0
LINE
  8
21
 10
10.6167
 20
9.8119
 30
0.0000
 11
10.6167
 21
10.0716
 31
0.0000
  0
LINE
  8
21
 10
9.4483
 20
9.8119
 30
0.0000
 11
9.4483
 21
10.0716
 31
0.0000
  0
LINE
  8
21
 10
9.7049
 20
13.8383
 30
0.0000
 11
10.0944
 21
15.0067
 31
0.0000
  0
LINE
  8
21
 10
10.0944
 20
15.0067
 30
0.0000
 11
10.4838
 21
13.8383
 31
0.0000
  0
LINE
  8
21
 10
10.3865
 20
14.1304
 30
0.0000
 11
9.8023
 21
14.1304
 31
0.0000
  0
LINE
  8
21
 10
10.9396
 20
14.6172
 30
0.0000
 11
10.9396
 21
14.0330
 31
0.0000
  0
ARC
  8
21
 10
11.1344
 20
14.0330
 30
0.0000
 40
0.1947
 50
180.0000
 51
270.0000
  0
LINE
  8
21
 10
11.1344
 20
13.8383
 30
0.0000
 11
11.4589
 21
13.8383
 31
0.0000
  0
LINE
  8
21
 10
11.4589
 20
13.8383
 30
0.0000
 11
11.4589
 21
14.6172
 31
0.0000
  0
LINE
  8
21
 10
12.4817
 20
15.0067
 30
0.0000
 11
12.4817
 21
13.8383
 31
0.0000
  0
LINE
  8
21
 10
12.4817
 20
13.8383
 30
0.0000
 11
12.1572
 21
13.8383
 31
0.0000
  0
ARC
  8
21
 10
12.1572
 20
14.0330
 30
0.0000
 40
0.1947
 50
180.0000
 51
270.0000
  0
LINE
  8
21
 10
11.9624
 20
14.0330
 30
0.0000
 11
11.9624
 21
14.4225
 31
0.0000
  0
ARC
  8
21
 10
12.1572
 20
14.4225
 30
0.0000
 40
0.1947
 50
90.0000
 51
180.0000
  0
LINE
  8
21
 10
12.1572
 20
14.6172
 30
0.0000
 11
12.4817
 21
14.6172
 31
0.0000
  0
LINE
  8
21
 10
12.9900
 20
13.8383
 30
0.0000
 11
12.9900
 21
14.6172
 31
0.0000
  0
LINE
  8
21
 10
12.9575
 20
14.9418
 30
0.0000
 11
12.9575
 21
15.0067
 31
0.0000
  0
LINE
  8
21
 10
12.9575
 20
15.0067
 30
0.0000
 11
13.0224
 21
15.0067
 31
0.0000
  0
LINE
  8
21
 10
13.0224
 20
15.0067
 30
0.0000
 11
13.0224
 21
14.9418
 31
0.0000
  0
LINE
  8
21
 10
13.0224
 20
14.9418
 30
0.0000
 11
12.9575
 21
14.9418
 31
0.0000
  0
LINE
  8
21
 10
13.4542
 20
14.0979
 30
0.0000
 11
13.4542
 21
14.3576
 31
0.0000
  0
ARC
  8
21
 10
13.7139
 20
14.3576
 30
0.0000
 40
0.2596
 50
0.0000
 51
180.0000
  0
LINE
  8
21
 10
13.9735
 20
14.3576
 30
0.0000
 11
13.9735
 21
14.0979
 31
0.0000
  0
ARC
  8
21
 10
13.7139
 20
14.0979
 30
0.0000
 40
0.2596
 50
180.0000
 51
0.0000
  0
LINE
  8
21
 10
15.1617
 20
15.0067
 30
0.0000
 11
15.1617
 21
13.8383
 31
0.0000
  0
LINE
  8
21
 10
15.0318
 20
13.8383
 30
0.0000
 11
15.2915
 21
13.8383
 31
0.0000
  0
LINE
  8
21
 10
15.0318
 20
15.0067
 30
0.0000
 11
15.2915
 21
15.0067
 31
0.0000
  0
LINE
  8
21
 10
15.7783
 20
13.8383
 30
0.0000
 11
15.7783
 21
14.6172
 31
0.0000
  0
LINE
  8
21
 10
15.7783
 20
14.6172
 30
0.0000
 11
16.1029
 21
14.6172
 31
0.0000
  0
ARC
  8
21
 10
16.1029
 20
14.4225
 30
0.0000
 40
0.1947
 50
0.0009
 51
90.0000
  0
LINE
  8
21
 10
16.2976
 20
14.4225
 30
0.0000
 11
16.2976
 21
13.8383
 31
0.0000
  0
ARC
  8
21
 10
28.5121
 20
1.1931
 30
0.0000
 40
0.2596
 50
314.9988
 51
45.0022
  0
ARC
  8
21
 10
28.3078
 20
1.3974
 30
0.0000
 40
0.5485
 50
269.7632
 51
314.9988
  0
ARC
  8
21
 10
27.9842
 20
1.5832
 30
0.0000
 40
0.2596
 50
134.9978
 51
225.0022
  0
ARC
  8
21
 10
28.1449
 20
1.4225
 30
0.0000
 40
0.4869
 50
98.1318
 51
134.9978
  0
ARC
  8
21
 10
27.9871
 20
1.5861
 30
0.0000
 40
0.2637
 50
225.0000
 51
284.4903
  0
ARC
  8
21
 10
28.5092
 20
1.1902
 30
0.0000
 40
0.2637
 50
45.0000
 51
104.4903
  0
LINE
  8
21
 10
28.4432
 20
1.4455
 30
0.0000
 11
28.0531
 21
1.3308
 31
0.0000
  0
LINE
  8
21
 10
28.8882
 20
1.8446
 30
0.0000
 11
29.4390
 21
2.3954
 31
0.0000
  0
LINE
  8
21
 10
29.2454
 20
3.2116
 30
0.0000
 11
30.3470
 21
2.6608
 31
0.0000
  0
LINE
  8
21
 10
30.3470
 20
2.6608
 30
0.0000
 11
29.7962
 21
3.7624
 31
0.0000
  0
LINE
  8
21
 10
30.1674
 20
4.1336
 30
0.0000
 11
30.9936
 21
3.3074
 31
0.0000
  0
LINE
  8
21
 10
30.9018
 20
3.2156
 30
0.0000
 11
31.0854
 21
3.3992
 31
0.0000
  0
LINE
  8
21
 10
30.0756
 20
4.0418
 30
0.0000
 11
30.2592
 21
4.2254
 31
0.0000
  0
LINE
  8
21
 10
31.4376
 20
3.7514
 30
0.0000
 11
30.6114
 21
4.5776
 31
0.0000
  0
LINE
  8
21
 10
30.6114
 20
4.5776
 30
0.0000
 11
30.8409
 21
4.8071
 31
0.0000
  0
ARC
  8
21
 10
31.0704
 20
4.5776
 30
0.0000
 40
0.3246
 50
44.9998
 51
135.0002
  0
LINE
  8
21
 10
31.2999
 20
4.8071
 30
0.0000
 11
31.6671
 21
4.4399
 31
0.0000
  0
ARC
  8
21
 10
31.4376
 20
4.2104
 30
0.0000
 40
0.3246
 50
315.0000
 51
45.0000
  0
LINE
  8
21
 10
31.6671
 20
3.9809
 30
0.0000
 11
31.4376
 21
3.7514
 31
0.0000
  0
LINE
  8
21
 10
32.6685
 20
4.9823
 30
0.0000
 11
32.3013
 21
4.6151
 31
0.0000
  0
LINE
  8
21
 10
32.3013
 20
4.6151
 30
0.0000
 11
31.4751
 21
5.4413
 31
0.0000
  0
LINE
  8
21
 10
31.4751
 20
5.4413
 30
0.0000
 11
31.8423
 21
5.8085
 31
0.0000
  0
LINE
  8
21
 10
31.8423
 20
5.0741
 30
0.0000
 11
32.1177
 21
5.3495
 31
0.0000
  0
LINE
  8
21
 10
32.7437
 20
5.5165
 30
0.0000
 11
32.3765
 21
5.8837
 31
0.0000
  0
ARC
  8
21
 10
32.6060
 20
6.1132
 30
0.0000
 40
0.3246
 50
44.9998
 51
225.0002
  0
LINE
  8
21
 10
32.8355
 20
6.3427
 30
0.0000
 11
33.2027
 21
5.9755
 31
0.0000
  0
ARC
  8
21
 10
32.9732
 20
5.7460
 30
0.0000
 40
0.3246
 50
225.0006
 51
45.0002
  0
LINE
  8
21
 10
14.6109
 20
32.0508
 30
0.0000
 11
14.3513
 21
32.0508
 31
0.0000
  0
ARC
  8
21
 10
14.3513
 20
32.3104
 30
0.0000
 40
0.2596
 50
180.0000
 51
270.0000
  0
LINE
  8
21
 10
14.0917
 20
32.3104
 30
0.0000
 11
14.0917
 21
32.9596
 31
0.0000
  0
ARC
  8
21
 10
14.3513
 20
32.9596
 30
0.0000
 40
0.2596
 50
90.0007
 51
180.0000
  0
LINE
  8
21
 10
14.3513
 20
33.2192
 30
0.0000
 11
14.6109
 21
33.2192
 31
0.0000
  0
LINE
  8
21
 10
15.0475
 20
32.6999
 30
0.0000
 11
15.4369
 21
32.6999
 31
0.0000
  0
ARC
  8
21
 10
15.4369
 20
32.4403
 30
0.0000
 40
0.2596
 50
0.0000
 51
90.0000
  0
LINE
  8
21
 10
15.6966
 20
32.4403
 30
0.0000
 11
15.6966
 21
32.3754
 31
0.0000
  0
ARC
  8
21
 10
15.3720
 20
32.3754
 30
0.0000
 40
0.3246
 50
180.0000
 51
0.0000
  0
LINE
  8
21
 10
15.0475
 20
32.3754
 30
0.0000
 11
15.0475
 21
32.6999
 31
0.0000
  0
ARC
  8
21
 10
15.5668
 20
32.6999
 30
0.0000
 40
0.5193
 50
90.0003
 51
180.0000
  0
LINE
  8
21
 10
16.4501
 20
33.2192
 30
0.0000
 11
16.1905
 21
32.3104
 31
0.0000
  0
LINE
  8
21
 10
16.1905
 20
32.3104
 30
0.0000
 11
16.8396
 21
32.3104
 31
0.0000
  0
LINE
  8
21
 10
16.6448
 20
32.5701
 30
0.0000
 11
16.6448
 21
32.0508
 31
0.0000
  0
LINE
  8
21
 10
17.8782
 20
32.0508
 30
0.0000
 11
18.2676
 21
33.2192
 31
0.0000
  0
LINE
  8
21
 10
18.2676
 20
33.2192
 30
0.0000
 11
18.6571
 21
32.0508
 31
0.0000
  0
LINE
  8
21
 10
18.5597
 20
32.3429
 30
0.0000
 11
17.9755
 21
32.3429
 31
0.0000
  0
LINE
  8
21
 10
19.0367
 20
31.9210
 30
0.0000
 11
19.5560
 21
33.3490
 31
0.0000
  0
LINE
  8
21
 10
19.9356
 20
33.2192
 30
0.0000
 11
20.3250
 21
32.0508
 31
0.0000
  0
LINE
  8
21
 10
20.3250
 20
32.0508
 30
0.0000
 11
20.7145
 21
33.2192
 31
0.0000
  0
LINE
  8
21
 10
21.6882
 20
32.0508
 30
0.0000
 11
22.0776
 21
33.2192
 31
0.0000
  0
LINE
  8
21
 10
22.0776
 20
33.2192
 30
0.0000
 11
22.4671
 21
32.0508
 31
0.0000
  0
LINE
  8
21
 10
22.3697
 20
32.3429
 30
0.0000
 11
21.7855
 21
32.3429
 31
0.0000
  0
LINE
  8
21
 10
23.3982
 20
33.2192
 30
0.0000
 11
23.3982
 21
32.0508
 31
0.0000
  0
LINE
  8
21
 10
23.3982
 20
32.0508
 30
0.0000
 11
23.0736
 21
32.0508
 31
0.0000
  0
ARC
  8
21
 10
23.0736
 20
32.2455
 30
0.0000
 40
0.1947
 50
180.0000
 51
270.0000
  0
LINE
  8
21
 10
22.8789
 20
32.2455
 30
0.0000
 11
22.8789
 21
32.6350
 31
0.0000
  0
ARC
  8
21
 10
23.0736
 20
32.6350
 30
0.0000
 40
0.1947
 50
90.0000
 51
180.0000
  0
LINE
  8
21
 10
23.0736
 20
32.8297
 30
0.0000
 11
23.3982
 21
32.8297
 31
0.0000
  0
LINE
  8
21
 10
24.4269
 20
32.5052
 30
0.0000
 11
24.1348
 21
32.5052
 31
0.0000
  0
ARC
  8
21
 10
24.1348
 20
32.2780
 30
0.0000
 40
0.2272
 50
90.0000
 51
270.0000
  0
LINE
  8
21
 10
24.1348
 20
32.0508
 30
0.0000
 11
24.4269
 21
32.0508
 31
0.0000
  0
LINE
  8
21
 10
24.4269
 20
32.0508
 30
0.0000
 11
24.4269
 21
32.6350
 31
0.0000
  0
ARC
  8
21
 10
24.2321
 20
32.6350
 30
0.0000
 40
0.1947
 50
0.0000
 51
90.0000
  0
LINE
  8
21
 10
24.2321
 20
32.8297
 30
0.0000
 11
23.9725
 21
32.8297
 31
0.0000
  0
LINE
  8
21
 10
24.9862
 20
31.6613
 30
0.0000
 11
24.9862
 21
32.8297
 31
0.0000
  0
LINE
  8
21
 10
24.9862
 20
32.8297
 30
0.0000
 11
25.3107
 21
32.8297
 31
0.0000
  0
ARC
  8
21
 10
25.3107
 20
32.6350
 30
0.0000
 40
0.1947
 50
0.0009
 51
90.0000
  0
LINE
  8
21
 10
25.5054
 20
32.6350
 30
0.0000
 11
25.5054
 21
32.2455
 31
0.0000
  0
ARC
  8
21
 10
25.3107
 20
32.2455
 30
0.0000
 40
0.1947
 50
270.0000
 51
0.0000
  0
LINE
  8
21
 10
25.3107
 20
32.0508
 30
0.0000
 11
24.9862
 21
32.0508
 31
0.0000
  0
LINE
  8
21
 10
25.8741
 20
32.8297
 30
0.0000
 11
26.2636
 21
32.8297
 31
0.0000
  0
LINE
  8
21
 10
26.0040
 20
33.2192
 30
0.0000
 11
26.0040
 21
32.2455
 31
0.0000
  0
ARC
  8
21
 10
26.1987
 20
32.2455
 30
0.0000
 40
0.1947
 50
180.0000
 51
270.0000
  0
LINE
  8
21
 10
26.1987
 20
32.0508
 30
0.0000
 11
26.2636
 21
32.0508
 31
0.0000
  0
LINE
  8
21
 10
26.6948
 20
32.3104
 30
0.0000
 11
26.6948
 21
32.5701
 31
0.0000
  0
ARC
  8
21
 10
26.9544
 20
32.5701
 30
0.0000
 40
0.2596
 50
0.0000
 51
180.0000
  0
LINE
  8
21
 10
27.2141
 20
32.5701
 30
0.0000
 11
27.2141
 21
32.3104
 31
0.0000
  0
ARC
  8
21
 10
26.9544
 20
32.3104
 30
0.0000
 40
0.2596
 50
180.0000
 51
0.0000
  0
LINE
  8
21
 10
27.7301
 20
32.0508
 30
0.0000
 11
27.7301
 21
32.8297
 31
0.0000
  0
LINE
  8
21
 10
27.7301
 20
32.8297
 30
0.0000
 11
28.1196
 21
32.8297
 31
0.0000
  0
LINE
  8
21
 10
28.1196
 20
32.8297
 30
0.0000
 11
28.1196
 21
32.6999
 31
0.0000
  0
LINE
  8
21
 10
29.1518
 20
32.0508
 30
0.0000
 11
29.1518
 21
33.2192
 31
0.0000
  0
LINE
  8
21
 10
29.1518
 20
33.2192
 30
0.0000
 11
29.4764
 21
33.2192
 31
0.0000
  0
ARC
  8
21
 10
29.4764
 20
32.8946
 30
0.0000
 40
0.3246
 50
270.0000
 51
90.0000
  0
LINE
  8
21
 10
29.4764
 20
32.5701
 30
0.0000
 11
29.1518
 21
32.5701
 31
0.0000
  0
LINE
  8
21
 10
29.8009
 20
32.0508
 30
0.0000
 11
29.5413
 21
32.5701
 31
0.0000
  0
LINE
  8
21
 10
30.7954
 20
32.0508
 30
0.0000
 11
30.4709
 21
32.0508
 31
0.0000
  0
ARC
  8
21
 10
30.4709
 20
32.2455
 30
0.0000
 40
0.1947
 50
180.0000
 51
270.0000
  0
LINE
  8
21
 10
30.2762
 20
32.2455
 30
0.0000
 11
30.2762
 21
32.5701
 31
0.0000
  0
ARC
  8
21
 10
30.5358
 20
32.5701
 30
0.0000
 40
0.2596
 50
0.0000
 51
180.0000
  0
LINE
  8
21
 10
30.7954
 20
32.5701
 30
0.0000
 11
30.7954
 21
32.4403
 31
0.0000
  0
LINE
  8
21
 10
30.7954
 20
32.4403
 30
0.0000
 11
30.2762
 21
32.4403
 31
0.0000
  0
LINE
  8
21
 10
31.2287
 20
32.8297
 30
0.0000
 11
31.4883
 21
32.0508
 31
0.0000
  0
LINE
  8
21
 10
31.4883
 20
32.0508
 30
0.0000
 11
31.7479
 21
32.8297
 31
0.0000
  0
LINE
  8
21
 10
32.1416
 20
32.0508
 30
0.0000
 11
32.1416
 21
32.1157
 31
0.0000
  0
LINE
  8
21
 10
32.1416
 20
32.1157
 30
0.0000
 11
32.2066
 21
32.1157
 31
0.0000
  0
LINE
  8
21
 10
32.2066
 20
32.1157
 30
0.0000
 11
32.2066
 21
32.0508
 31
0.0000
  0
LINE
  8
21
 10
32.2066
 20
32.0508
 30
0.0000
 11
32.1416
 21
32.0508
 31
0.0000
  0
ARC
  8
21
 10
34.2221
 20
32.6350
 30
0.0000
 40
0.9628
 50
154.0109
 51
180.0001
  0
ARC
  8
21
 10
33.5838
 20
32.9790
 30
0.0000
 40
0.2402
 50
90.0000
 51
161.0751
  0
ARC
  8
21
 10
33.5838
 20
32.9790
 30
0.0000
 40
0.2402
 50
18.9248
 51
90.0002
  0
ARC
  8
21
 10
32.9455
 20
32.6350
 30
0.0000
 40
0.9629
 50
359.9999
 51
25.9891
  0
ARC
  8
21
 10
34.2221
 20
32.6350
 30
0.0000
 40
0.9629
 50
180.0000
 51
205.9888
  0
ARC
  8
21
 10
33.5838
 20
32.2910
 30
0.0000
 40
0.2402
 50
198.9254
 51
269.9998
  0
ARC
  8
21
 10
32.9455
 20
32.6350
 30
0.0000
 40
0.9629
 50
334.0112
 51
360.0000
  0
ARC
  8
21
 10
33.5838
 20
32.2910
 30
0.0000
 40
0.2402
 50
270.0000
 51
341.0747
  0
LINE
  8
21
 10
33.3242
 20
32.3104
 30
0.0000
 11
33.8434
 21
32.9596
 31
0.0000
  0
LINE
  8
48
 10
36.4554
 20
55.3014
 30
0.0000
 11
36.8928
 21
55.6514
 31
0.0000
  0
LINE
  8
48
 10
36.8928
 20
55.6514
 30
0.0000
 11
36.8928
 21
54.0766
 31
0.0000
  0
LINE
  8
48
 10
36.4554
 20
54.0766
 30
0.0000
 11
37.3302
 21
54.0766
 31
0.0000
  0
LINE
  8
48
 10
38.0185
 20
54.0766
 30
0.0000
 11
38.4559
 21
54.0766
 31
0.0000
  0
ARC
  8
48
 10
38.4559
 20
54.5140
 30
0.0000
 40
0.4374
 50
270.0000
 51
90.0000
  0
LINE
  8
48
 10
38.0185
 20
55.6514
 30
0.0000
 11
38.5434
 21
55.6514
 31
0.0000
  0
ARC
  8
48
 10
38.5434
 20
55.3014
 30
0.0000
 40
0.3500
 50
270.0000
 51
90.0000
  0
LINE
  8
48
 10
38.5434
 20
54.9515
 30
0.0000
 11
38.1934
 21
54.9515
 31
0.0000
  0
ARC
  8
48
 10
40.0628
 20
55.2577
 30
0.0000
 40
0.3937
 50
0.0000
 51
90.0000
  0
ARC
  8
48
 10
40.0628
 20
55.1456
 30
0.0000
 40
0.5058
 50
90.0000
 51
162.0550
  0
ARC
  8
48
 10
40.0336
 20
55.2577
 30
0.0000
 40
0.4229
 50
313.6028
 51
359.9999
  0
LINE
  8
48
 10
40.3253
 20
54.9515
 30
0.0000
 11
39.5816
 21
54.0766
 31
0.0000
  0
LINE
  8
48
 10
39.5816
 20
54.0766
 30
0.0000
 11
40.4565
 21
54.0766
 31
0.0000
  0
LINE
  8
48
 10
41.1614
 20
54.6890
 30
0.0000
 11
42.2113
 21
54.6890
 31
0.0000
  0
ARC
  8
48
 10
43.3975
 20
55.2577
 30
0.0000
 40
0.3937
 50
0.0000
 51
90.0000
  0
ARC
  8
48
 10
43.3975
 20
55.1456
 30
0.0000
 40
0.5058
 50
90.0000
 51
162.0550
  0
ARC
  8
48
 10
43.3683
 20
55.2577
 30
0.0000
 40
0.4229
 50
313.6028
 51
359.9999
  0
LINE
  8
48
 10
43.6599
 20
54.9515
 30
0.0000
 11
42.9163
 21
54.0766
 31
0.0000
  0
LINE
  8
48
 10
42.9163
 20
54.0766
 30
0.0000
 11
43.7912
 21
54.0766
 31
0.0000
  0
LINE
  8
48
 10
44.4961
 20
54.6890
 30
0.0000
 11
45.5460
 21
54.6890
 31
0.0000
  0
ARC
  8
48
 10
47.5487
 20
54.8640
 30
0.0000
 40
1.2978
 50
154.0111
 51
180.0000
  0
ARC
  8
48
 10
46.6884
 20
55.3277
 30
0.0000
 40
0.3237
 50
90.0000
 51
161.0758
  0
ARC
  8
48
 10
46.6884
 20
55.3277
 30
0.0000
 40
0.3237
 50
18.9235
 51
90.0002
  0
ARC
  8
48
 10
45.8281
 20
54.8640
 30
0.0000
 40
1.2977
 50
0.0000
 51
25.9895
  0
ARC
  8
48
 10
47.5487
 20
54.8640
 30
0.0000
 40
1.2978
 50
180.0001
 51
205.9888
  0
ARC
  8
48
 10
46.6884
 20
54.4003
 30
0.0000
 40
0.3237
 50
198.9248
 51
270.0001
  0
ARC
  8
48
 10
45.8281
 20
54.8640
 30
0.0000
 40
1.2978
 50
334.0107
 51
359.9999
  0
ARC
  8
48
 10
46.6884
 20
54.4003
 30
0.0000
 40
0.3237
 50
270.0000
 51
341.0761
  0
LINE
  8
48
 10
46.3384
 20
54.4266
 30
0.0000
 11
47.0383
 21
55.3014
 31
0.0000
  0
LINE
  8
48
 10
47.8141
 20
55.3014
 30
0.0000
 11
48.2515
 21
55.6514
 31
0.0000
  0
LINE
  8
48
 10
48.2515
 20
55.6514
 30
0.0000
 11
48.2515
 21
54.0766
 31
0.0000
  0
LINE
  8
48
 10
47.8141
 20
54.0766
 30
0.0000
 11
48.6889
 21
54.0766
 31
0.0000
  0
LINE
  8
48
 10
49.3939
 20
54.6890
 30
0.0000
 11
50.4438
 21
54.6890
 31
0.0000
  0
ARC
  8
48
 10
52.4465
 20
54.8640
 30
0.0000
 40
1.2978
 50
154.0111
 51
180.0000
  0
ARC
  8
48
 10
51.5862
 20
55.3277
 30
0.0000
 40
0.3237
 50
90.0000
 51
161.0758
  0
ARC
  8
48
 10
51.5862
 20
55.3277
 30
0.0000
 40
0.3237
 50
18.9235
 51
90.0002
  0
ARC
  8
48
 10
50.7259
 20
54.8640
 30
0.0000
 40
1.2977
 50
0.0000
 51
25.9895
  0
ARC
  8
48
 10
52.4465
 20
54.8640
 30
0.0000
 40
1.2978
 50
180.0001
 51
205.9888
  0
ARC
  8
48
 10
51.5862
 20
54.4003
 30
0.0000
 40
0.3237
 50
198.9248
 51
270.0001
  0
ARC
  8
48
 10
50.7259
 20
54.8640
 30
0.0000
 40
1.2978
 50
334.0107
 51
359.9999
  0
ARC
  8
48
 10
51.5862
 20
54.4003
 30
0.0000
 40
0.3237
 50
270.0000
 51
341.0761
  0
LINE
  8
48
 10
51.2362
 20
54.4266
 30
0.0000
 11
51.9361
 21
55.3014
 31
0.0000
  0
ARC
  8
48
 10
54.0096
 20
54.8640
 30
0.0000
 40
1.2978
 50
154.0111
 51
180.0000
  0
ARC
  8
48
 10
53.1493
 20
55.3277
 30
0.0000
 40
0.3237
 50
90.0000
 51
161.0758
  0
ARC
  8
48
 10
53.1493
 20
55.3277
 30
0.0000
 40
0.3237
 50
18.9235
 51
90.0002
  0
ARC
  8
48
 10
52.2890
 20
54.8640
 30
0.0000
 40
1.2977
 50
0.0000
 51
25.9895
  0
ARC
  8
48
 10
54.0096
 20
54.8640
 30
0.0000
 40
1.2978
 50
180.0001
 51
205.9888
  0
ARC
  8
48
 10
53.1493
 20
54.4003
 30
0.0000
 40
0.3237
 50
198.9248
 51
270.0001
  0
ARC
  8
48
 10
52.2890
 20
54.8640
 30
0.0000
 40
1.2978
 50
334.0107
 51
359.9999
  0
ARC
  8
48
 10
53.1493
 20
54.4003
 30
0.0000
 40
0.3237
 50
270.0000
 51
341.0761
  0
LINE
  8
48
 10
52.7993
 20
54.4266
 30
0.0000
 11
53.4992
 21
55.3014
 31
0.0000
  0
LINE
  8
48
 10
29.9466
 20
50.9016
 30
0.0000
 11
30.3840
 21
50.9016
 31
0.0000
  0
ARC
  8
48
 10
30.3840
 20
51.3390
 30
0.0000
 40
0.4374
 50
270.0000
 51
90.0000
  0
LINE
  8
48
 10
29.9466
 20
52.4764
 30
0.0000
 11
30.4715
 21
52.4764
 31
0.0000
  0
ARC
  8
48
 10
30.4715
 20
52.1264
 30
0.0000
 40
0.3500
 50
270.0000
 51
90.0000
  0
LINE
  8
48
 10
30.4715
 20
51.7765
 30
0.0000
 11
30.1216
 21
51.7765
 31
0.0000
  0
LINE
  8
48
 10
31.5097
 20
50.9016
 30
0.0000
 11
32.0347
 21
50.9016
 31
0.0000
  0
ARC
  8
48
 10
32.0347
 20
51.2516
 30
0.0000
 40
0.3500
 50
270.0000
 51
359.9995
  0
LINE
  8
48
 10
32.3846
 20
51.2516
 30
0.0000
 11
32.3846
 21
51.4265
 31
0.0000
  0
ARC
  8
48
 10
32.0347
 20
51.4265
 30
0.0000
 40
0.3500
 50
0.0000
 51
90.0000
  0
LINE
  8
48
 10
32.0347
 20
51.7765
 30
0.0000
 11
31.5097
 21
51.7765
 31
0.0000
  0
LINE
  8
48
 10
31.5097
 20
51.7765
 30
0.0000
 11
31.5097
 21
52.4764
 31
0.0000
  0
LINE
  8
48
 10
31.5097
 20
52.4764
 30
0.0000
 11
32.3846
 21
52.4764
 31
0.0000
  0
LINE
  8
48
 10
33.1698
 20
50.3767
 30
0.0000
 11
33.1698
 21
51.9515
 31
0.0000
  0
LINE
  8
48
 10
33.8697
 20
51.9515
 30
0.0000
 11
33.8697
 21
51.2516
 31
0.0000
  0
ARC
  8
48
 10
33.5198
 20
51.2516
 30
0.0000
 40
0.3500
 50
180.0000
 51
0.0000
  0
LINE
  8
48
 10
33.8697
 20
51.2516
 30
0.0000
 11
33.8697
 21
51.0766
 31
0.0000
  0
ARC
  8
48
 10
34.0447
 20
51.0766
 30
0.0000
 40
0.1750
 50
180.0000
 51
270.0010
  0
LINE
  8
48
 10
34.6527
 20
50.9016
 30
0.0000
 11
34.6527
 21
51.9515
 31
0.0000
  0
LINE
  8
48
 10
34.6527
 20
51.9515
 30
0.0000
 11
35.4401
 21
51.9515
 31
0.0000
  0
ARC
  8
48
 10
35.4401
 20
51.6890
 30
0.0000
 40
0.2625
 50
0.0000
 51
90.0000
  0
LINE
  8
48
 10
35.7026
 20
51.6890
 30
0.0000
 11
35.7026
 21
50.9016
 31
0.0000
  0
LINE
  8
48
 10
35.1776
 20
50.9016
 30
0.0000
 11
35.1776
 21
51.9515
 31
0.0000
  0
ARC
  8
48
 10
52.3353
 20
52.0827
 30
0.0000
 40
0.3937
 50
0.0000
 51
90.0000
  0
ARC
  8
48
 10
52.3353
 20
51.9706
 30
0.0000
 40
0.5058
 50
90.0000
 51
162.0550
  0
ARC
  8
48
 10
52.3061
 20
52.0827
 30
0.0000
 40
0.4229
 50
313.6028
 51
359.9999
  0
LINE
  8
48
 10
52.5978
 20
51.7765
 30
0.0000
 11
51.8541
 21
50.9016
 31
0.0000
  0
LINE
  8
48
 10
51.8541
 20
50.9016
 30
0.0000
 11
52.7290
 21
50.9016
 31
0.0000
  0
ARC
  8
48
 10
49.6594
 20
45.3390
 30
0.0000
 40
1.2978
 50
154.0111
 51
180.0000
  0
ARC
  8
48
 10
48.7990
 20
45.8027
 30
0.0000
 40
0.3237
 50
90.0000
 51
161.0758
  0
ARC
  8
48
 10
48.7990
 20
45.8027
 30
0.0000
 40
0.3237
 50
18.9235
 51
90.0002
  0
ARC
  8
48
 10
47.9388
 20
45.3390
 30
0.0000
 40
1.2977
 50
0.0000
 51
25.9895
  0
ARC
  8
48
 10
49.6594
 20
45.3390
 30
0.0000
 40
1.2978
 50
180.0001
 51
205.9888
  0
ARC
  8
48
 10
48.7990
 20
44.8753
 30
0.0000
 40
0.3237
 50
198.9248
 51
270.0001
  0
ARC
  8
48
 10
47.9387
 20
45.3390
 30
0.0000
 40
1.2978
 50
334.0107
 51
359.9999
  0
ARC
  8
48
 10
48.7990
 20
44.8753
 30
0.0000
 40
0.3237
 50
270.0000
 51
341.0761
  0
LINE
  8
48
 10
48.4491
 20
44.9016
 30
0.0000
 11
49.1490
 21
45.7764
 31
0.0000
  0
ARC
  8
48
 10
3.5323
 20
54.4266
 30
0.0000
 40
0.3500
 50
269.9995
 51
0.0000
  0
ARC
  8
48
 10
3.5323
 20
54.8159
 30
0.0000
 40
0.7393
 50
224.7606
 51
269.9996
  0
ARC
  8
48
 10
3.4011
 20
55.3014
 30
0.0000
 40
0.3500
 50
90.0000
 51
180.0000
  0
ARC
  8
48
 10
3.4011
 20
54.9952
 30
0.0000
 40
0.6562
 50
53.1299
 51
89.9999
  0
ARC
  8
48
 10
3.4066
 20
55.3014
 30
0.0000
 40
0.3554
 50
180.0000
 51
239.4897
  0
ARC
  8
48
 10
3.5269
 20
54.4266
 30
0.0000
 40
0.3554
 50
0.0002
 51
59.4895
  0
LINE
  8
48
 10
3.7073
 20
54.7328
 30
0.0000
 11
3.2261
 21
54.9952
 31
0.0000
  0
LINE
  8
48
 10
4.4496
 20
55.1265
 30
0.0000
 11
4.7995
 21
54.0766
 31
0.0000
  0
LINE
  8
48
 10
4.7995
 20
54.0766
 30
0.0000
 11
5.1495
 21
55.1265
 31
0.0000
  0
LINE
  8
48
 10
6.4521
 20
54.0766
 30
0.0000
 11
6.0147
 21
54.0766
 31
0.0000
  0
ARC
  8
48
 10
6.0147
 20
54.3391
 30
0.0000
 40
0.2625
 50
180.0000
 51
270.0000
  0
LINE
  8
48
 10
5.7522
 20
54.3391
 30
0.0000
 11
5.7522
 21
54.7765
 31
0.0000
  0
ARC
  8
48
 10
6.1021
 20
54.7765
 30
0.0000
 40
0.3500
 50
0.0000
 51
180.0000
  0
LINE
  8
48
 10
6.4521
 20
54.7765
 30
0.0000
 11
6.4521
 21
54.6015
 31
0.0000
  0
LINE
  8
48
 10
6.4521
 20
54.6015
 30
0.0000
 11
5.7522
 21
54.6015
 31
0.0000
  0
LINE
  8
48
 10
7.1590
 20
54.0766
 30
0.0000
 11
7.1590
 21
55.1265
 31
0.0000
  0
LINE
  8
48
 10
7.1590
 20
55.1265
 30
0.0000
 11
7.5964
 21
55.1265
 31
0.0000
  0
ARC
  8
48
 10
7.5964
 20
54.8640
 30
0.0000
 40
0.2625
 50
0.0000
 51
90.0000
  0
LINE
  8
48
 10
7.8589
 20
54.8640
 30
0.0000
 11
7.8589
 21
54.0766
 31
0.0000
  0
LINE
  8
48
 10
9.4937
 20
54.0766
 30
0.0000
 11
9.4937
 21
55.6514
 31
0.0000
  0
LINE
  8
48
 10
9.4937
 20
55.6514
 30
0.0000
 11
9.9311
 21
55.6514
 31
0.0000
  0
ARC
  8
48
 10
9.9311
 20
55.2140
 30
0.0000
 40
0.4374
 50
270.0000
 51
90.0000
  0
LINE
  8
48
 10
9.9311
 20
54.7765
 30
0.0000
 11
9.4937
 21
54.7765
 31
0.0000
  0
LINE
  8
48
 10
11.6625
 20
54.0766
 30
0.0000
 11
11.2251
 21
54.0766
 31
0.0000
  0
ARC
  8
48
 10
11.2251
 20
54.3391
 30
0.0000
 40
0.2625
 50
180.0000
 51
270.0000
  0
LINE
  8
48
 10
10.9626
 20
54.3391
 30
0.0000
 11
10.9626
 21
54.7765
 31
0.0000
  0
ARC
  8
48
 10
11.3126
 20
54.7765
 30
0.0000
 40
0.3500
 50
0.0000
 51
180.0000
  0
LINE
  8
48
 10
11.6625
 20
54.7765
 30
0.0000
 11
11.6625
 21
54.6015
 31
0.0000
  0
LINE
  8
48
 10
11.6625
 20
54.6015
 30
0.0000
 11
10.9626
 21
54.6015
 31
0.0000
  0
LINE
  8
48
 10
12.1824
 20
55.1265
 30
0.0000
 11
12.7073
 21
55.1265
 31
0.0000
  0
LINE
  8
48
 10
12.3574
 20
55.6514
 30
0.0000
 11
12.3574
 21
54.3391
 31
0.0000
  0
ARC
  8
48
 10
12.6198
 20
54.3391
 30
0.0000
 40
0.2625
 50
180.0000
 51
270.0000
  0
LINE
  8
48
 10
12.6198
 20
54.0766
 30
0.0000
 11
12.7073
 21
54.0766
 31
0.0000
  0
LINE
  8
48
 10
14.0072
 20
54.0766
 30
0.0000
 11
13.5698
 21
54.0766
 31
0.0000
  0
ARC
  8
48
 10
13.5698
 20
54.3391
 30
0.0000
 40
0.2625
 50
180.0000
 51
270.0000
  0
LINE
  8
48
 10
13.3073
 20
54.3391
 30
0.0000
 11
13.3073
 21
54.7765
 31
0.0000
  0
ARC
  8
48
 10
13.6572
 20
54.7765
 30
0.0000
 40
0.3500
 50
0.0000
 51
180.0000
  0
LINE
  8
48
 10
14.0072
 20
54.7765
 30
0.0000
 11
14.0072
 21
54.6015
 31
0.0000
  0
LINE
  8
48
 10
14.0072
 20
54.6015
 30
0.0000
 11
13.3073
 21
54.6015
 31
0.0000
  0
LINE
  8
48
 10
14.7243
 20
54.0766
 30
0.0000
 11
14.7243
 21
55.1265
 31
0.0000
  0
LINE
  8
48
 10
14.7243
 20
55.1265
 30
0.0000
 11
15.2492
 21
55.1265
 31
0.0000
  0
LINE
  8
48
 10
15.2492
 20
55.1265
 30
0.0000
 11
15.2492
 21
54.9515
 31
0.0000
  0
LINE
  8
48
 10
16.3249
 20
54.5140
 30
0.0000
 11
15.8874
 21
54.6890
 31
0.0000
  0
ARC
  8
48
 10
15.9717
 20
54.8996
 30
0.0000
 40
0.2268
 50
89.1807
 51
248.1990
  0
ARC
  8
48
 10
15.9607
 20
54.1330
 30
0.0000
 40
0.9936
 50
65.7612
 51
89.1807
  0
ARC
  8
48
 10
16.2406
 20
54.3034
 30
0.0000
 40
0.2268
 50
269.1807
 51
68.1990
  0
ARC
  8
48
 10
16.2586
 20
55.5603
 30
0.0000
 40
1.4839
 50
250.2099
 51
269.1807
  0
LINE
  8
48
 10
17.8108
 20
54.0766
 30
0.0000
 11
17.3733
 21
54.0766
 31
0.0000
  0
ARC
  8
48
 10
17.3733
 20
54.3391
 30
0.0000
 40
0.2625
 50
180.0000
 51
270.0000
  0
LINE
  8
48
 10
17.1109
 20
54.3391
 30
0.0000
 11
17.1109
 21
54.7765
 31
0.0000
  0
ARC
  8
48
 10
17.4608
 20
54.7765
 30
0.0000
 40
0.3500
 50
0.0000
 51
180.0000
  0
LINE
  8
48
 10
17.8108
 20
54.7765
 30
0.0000
 11
17.8108
 21
54.6015
 31
0.0000
  0
LINE
  8
48
 10
17.8108
 20
54.6015
 30
0.0000
 11
17.1109
 21
54.6015
 31
0.0000
  0
LINE
  8
48
 10
18.5177
 20
54.0766
 30
0.0000
 11
18.5177
 21
55.1265
 31
0.0000
  0
LINE
  8
48
 10
18.5177
 20
55.1265
 30
0.0000
 11
18.9551
 21
55.1265
 31
0.0000
  0
ARC
  8
48
 10
18.9551
 20
54.8640
 30
0.0000
 40
0.2625
 50
0.0000
 51
90.0000
  0
LINE
  8
48
 10
19.2176
 20
54.8640
 30
0.0000
 11
19.2176
 21
54.0766
 31
0.0000
  0
ARC
  8
48
 10
8.8116
 20
52.0827
 30
0.0000
 40
0.3937
 50
0.0000
 51
90.0000
  0
ARC
  8
48
 10
8.8116
 20
51.9706
 30
0.0000
 40
0.5058
 50
90.0000
 51
162.0550
  0
ARC
  8
48
 10
8.7824
 20
52.0827
 30
0.0000
 40
0.4229
 50
313.6028
 51
359.9999
  0
LINE
  8
48
 10
9.0740
 20
51.7765
 30
0.0000
 11
8.3304
 21
50.9016
 31
0.0000
  0
LINE
  8
48
 10
8.3304
 20
50.9016
 30
0.0000
 11
9.2053
 21
50.9016
 31
0.0000
  0
ARC
  8
48
 10
11.1913
 20
51.6890
 30
0.0000
 40
1.2978
 50
154.0111
 51
180.0000
  0
ARC
  8
48
 10
10.3309
 20
52.1527
 30
0.0000
 40
0.3237
 50
90.0000
 51
161.0758
  0
ARC
  8
48
 10
10.3309
 20
52.1527
 30
0.0000
 40
0.3237
 50
18.9235
 51
90.0002
  0
ARC
  8
48
 10
9.4707
 20
51.6890
 30
0.0000
 40
1.2977
 50
0.0000
 51
25.9895
  0
ARC
  8
48
 10
11.1913
 20
51.6890
 30
0.0000
 40
1.2978
 50
180.0001
 51
205.9888
  0
ARC
  8
48
 10
10.3309
 20
51.2253
 30
0.0000
 40
0.3237
 50
198.9248
 51
270.0001
  0
ARC
  8
48
 10
9.4706
 20
51.6890
 30
0.0000
 40
1.2978
 50
334.0107
 51
359.9999
  0
ARC
  8
48
 10
10.3309
 20
51.2253
 30
0.0000
 40
0.3237
 50
270.0000
 51
341.0761
  0
LINE
  8
48
 10
9.9810
 20
51.2516
 30
0.0000
 11
10.6809
 21
52.1264
 31
0.0000
  0
LINE
  8
48
 10
11.4566
 20
52.1264
 30
0.0000
 11
11.8941
 21
52.4764
 31
0.0000
  0
LINE
  8
48
 10
11.8941
 20
52.4764
 30
0.0000
 11
11.8941
 21
50.9016
 31
0.0000
  0
LINE
  8
48
 10
11.4566
 20
50.9016
 30
0.0000
 11
12.3315
 21
50.9016
 31
0.0000
  0
LINE
  8
48
 10
13.8946
 20
51.6015
 30
0.0000
 11
13.3697
 21
51.6015
 31
0.0000
  0
ARC
  8
48
 10
13.3697
 20
51.9515
 30
0.0000
 40
0.3500
 50
180.0000
 51
270.0000
  0
LINE
  8
48
 10
13.0197
 20
51.9515
 30
0.0000
 11
13.0197
 21
52.0390
 31
0.0000
  0
ARC
  8
48
 10
13.4572
 20
52.0390
 30
0.0000
 40
0.4374
 50
0.0000
 51
180.0000
  0
LINE
  8
48
 10
13.8946
 20
52.0390
 30
0.0000
 11
13.8946
 21
51.6015
 31
0.0000
  0
ARC
  8
48
 10
13.1947
 20
51.6015
 30
0.0000
 40
0.6999
 50
269.9997
 51
0.0000
  0
LINE
  8
21
 10
1.2324
 20
11.5635
 30
0.0000
 11
1.2324
 21
12.4525
 31
0.0000
  0
LINE
  8
21
 10
1.2324
 20
12.4525
 30
0.0000
 11
1.4793
 21
12.4525
 31
0.0000
  0
ARC
  8
21
 10
1.4793
 20
12.2056
 30
0.0000
 40
0.2469
 50
270.0000
 51
90.0000
  0
LINE
  8
21
 10
1.4793
 20
11.9586
 30
0.0000
 11
1.2324
 21
11.9586
 31
0.0000
  0
LINE
  8
21
 10
1.7262
 20
11.5635
 30
0.0000
 11
1.5287
 21
11.9586
 31
0.0000
  0
LINE
  8
21
 10
2.5228
 20
11.5635
 30
0.0000
 11
2.2758
 21
11.5635
 31
0.0000
  0
ARC
  8
21
 10
2.2758
 20
11.7117
 30
0.0000
 40
0.1482
 50
180.0000
 51
270.0000
  0
LINE
  8
21
 10
2.1276
 20
11.7117
 30
0.0000
 11
2.1276
 21
11.9586
 31
0.0000
  0
ARC
  8
21
 10
2.3252
 20
11.9586
 30
0.0000
 40
0.1976
 50
0.0000
 51
180.0000
  0
LINE
  8
21
 10
2.5228
 20
11.9586
 30
0.0000
 11
2.5228
 21
11.8598
 31
0.0000
  0
LINE
  8
21
 10
2.5228
 20
11.8598
 30
0.0000
 11
2.1276
 21
11.8598
 31
0.0000
  0
LINE
  8
21
 10
2.9737
 20
11.5635
 30
0.0000
 11
2.9737
 21
12.1562
 31
0.0000
  0
LINE
  8
21
 10
2.9737
 20
12.1562
 30
0.0000
 11
3.4182
 21
12.1562
 31
0.0000
  0
ARC
  8
21
 10
3.4182
 20
12.0080
 30
0.0000
 40
0.1482
 50
0.0000
 51
90.0000
  0
LINE
  8
21
 10
3.5664
 20
12.0080
 30
0.0000
 11
3.5664
 21
11.5635
 31
0.0000
  0
LINE
  8
21
 10
3.2701
 20
11.5635
 30
0.0000
 11
3.2701
 21
12.1562
 31
0.0000
  0
LINE
  8
21
 10
4.0174
 20
11.7611
 30
0.0000
 11
4.0174
 21
11.9586
 31
0.0000
  0
ARC
  8
21
 10
4.2149
 20
11.9586
 30
0.0000
 40
0.1976
 50
0.0000
 51
180.0000
  0
LINE
  8
21
 10
4.4125
 20
11.9586
 30
0.0000
 11
4.4125
 21
11.7611
 31
0.0000
  0
ARC
  8
21
 10
4.2149
 20
11.7611
 30
0.0000
 40
0.1976
 50
180.0000
 51
0.0000
  0
LINE
  8
21
 10
4.7794
 20
12.1562
 30
0.0000
 11
4.9769
 21
11.5635
 31
0.0000
  0
LINE
  8
21
 10
4.9769
 20
11.5635
 30
0.0000
 11
5.1745
 21
12.1562
 31
0.0000
  0
LINE
  8
21
 10
5.9365
 20
11.5635
 30
0.0000
 11
5.6896
 21
11.5635
 31
0.0000
  0
ARC
  8
21
 10
5.6896
 20
11.7117
 30
0.0000
 40
0.1482
 50
180.0000
 51
270.0000
  0
LINE
  8
21
 10
5.5414
 20
11.7117
 30
0.0000
 11
5.5414
 21
11.9586
 31
0.0000
  0
ARC
  8
21
 10
5.7389
 20
11.9586
 30
0.0000
 40
0.1976
 50
0.0000
 51
180.0000
  0
LINE
  8
21
 10
5.9365
 20
11.9586
 30
0.0000
 11
5.9365
 21
11.8598
 31
0.0000
  0
LINE
  8
21
 10
5.9365
 20
11.8598
 30
0.0000
 11
5.5414
 21
11.8598
 31
0.0000
  0
LINE
  8
21
 10
5.3103
 20
2.0875
 30
0.0000
 11
5.3103
 21
2.6802
 31
0.0000
  0
LINE
  8
21
 10
5.2856
 20
2.9271
 30
0.0000
 11
5.2856
 21
2.9765
 31
0.0000
  0
LINE
  8
21
 10
5.2856
 20
2.9765
 30
0.0000
 11
5.3350
 21
2.9765
 31
0.0000
  0
LINE
  8
21
 10
5.3350
 20
2.9765
 30
0.0000
 11
5.3350
 21
2.9271
 31
0.0000
  0
LINE
  8
21
 10
5.3350
 20
2.9271
 30
0.0000
 11
5.2856
 21
2.9271
 31
0.0000
  0
LINE
  8
21
 10
5.7389
 20
2.0875
 30
0.0000
 11
5.7389
 21
2.8283
 31
0.0000
  0
ARC
  8
21
 10
5.8871
 20
2.8283
 30
0.0000
 40
0.1482
 50
90.0000
 51
180.0000
  0
LINE
  8
21
 10
5.8871
 20
2.9765
 30
0.0000
 11
5.9365
 21
2.9765
 31
0.0000
  0
LINE
  8
21
 10
5.6402
 20
2.6802
 30
0.0000
 11
5.9365
 21
2.6802
 31
0.0000
  0
LINE
  8
21
 10
0.6775
 20
0.5635
 30
0.0000
 11
0.6775
 21
1.1562
 31
0.0000
  0
LINE
  8
21
 10
0.6775
 20
1.1562
 30
0.0000
 11
0.9738
 21
1.1562
 31
0.0000
  0
LINE
  8
21
 10
0.9738
 20
1.1562
 30
0.0000
 11
0.9738
 21
1.0574
 31
0.0000
  0
LINE
  8
21
 10
1.6754
 20
0.5635
 30
0.0000
 11
1.4284
 21
0.5635
 31
0.0000
  0
ARC
  8
21
 10
1.4284
 20
0.7117
 30
0.0000
 40
0.1482
 50
180.0000
 51
270.0000
  0
LINE
  8
21
 10
1.2802
 20
0.7117
 30
0.0000
 11
1.2802
 21
0.9586
 31
0.0000
  0
ARC
  8
21
 10
1.4778
 20
0.9586
 30
0.0000
 40
0.1976
 50
0.0000
 51
180.0000
  0
LINE
  8
21
 10
1.6754
 20
0.9586
 30
0.0000
 11
1.6754
 21
0.8598
 31
0.0000
  0
LINE
  8
21
 10
1.6754
 20
0.8598
 30
0.0000
 11
1.2802
 21
0.8598
 31
0.0000
  0
LINE
  8
21
 10
2.4618
 20
0.2672
 30
0.0000
 11
2.4618
 21
1.1562
 31
0.0000
  0
LINE
  8
21
 10
2.4618
 20
1.1562
 30
0.0000
 11
2.2149
 21
1.1562
 31
0.0000
  0
ARC
  8
21
 10
2.2149
 20
1.0080
 30
0.0000
 40
0.1482
 50
90.0000
 51
179.9988
  0
LINE
  8
21
 10
2.0667
 20
1.0080
 30
0.0000
 11
2.0667
 21
0.7117
 31
0.0000
  0
ARC
  8
21
 10
2.2149
 20
0.7117
 30
0.0000
 40
0.1482
 50
180.0000
 51
270.0000
  0
LINE
  8
21
 10
2.2149
 20
0.5635
 30
0.0000
 11
2.4618
 21
0.5635
 31
0.0000
  0
LINE
  8
21
 10
2.9262
 20
1.1562
 30
0.0000
 11
2.9262
 21
0.7117
 31
0.0000
  0
ARC
  8
21
 10
3.0743
 20
0.7117
 30
0.0000
 40
0.1482
 50
180.0000
 51
270.0000
  0
LINE
  8
21
 10
3.0743
 20
0.5635
 30
0.0000
 11
3.3213
 21
0.5635
 31
0.0000
  0
LINE
  8
21
 10
3.3213
 20
0.5635
 30
0.0000
 11
3.3213
 21
1.1562
 31
0.0000
  0
LINE
  8
21
 10
3.7333
 20
0.5635
 30
0.0000
 11
3.7333
 21
1.1562
 31
0.0000
  0
LINE
  8
21
 10
3.7086
 20
1.4031
 30
0.0000
 11
3.7086
 21
1.4525
 31
0.0000
  0
LINE
  8
21
 10
3.7086
 20
1.4525
 30
0.0000
 11
3.7580
 21
1.4525
 31
0.0000
  0
LINE
  8
21
 10
3.7580
 20
1.4525
 30
0.0000
 11
3.7580
 21
1.4031
 31
0.0000
  0
LINE
  8
21
 10
3.7580
 20
1.4031
 30
0.0000
 11
3.7086
 21
1.4031
 31
0.0000
  0
LINE
  8
21
 10
4.1522
 20
0.5635
 30
0.0000
 11
4.1522
 21
1.1562
 31
0.0000
  0
LINE
  8
21
 10
4.1522
 20
1.1562
 30
0.0000
 11
4.4485
 21
1.1562
 31
0.0000
  0
LINE
  8
21
 10
4.4485
 20
1.1562
 30
0.0000
 11
4.4485
 21
1.0574
 31
0.0000
  0
LINE
  8
21
 10
5.1501
 20
0.5635
 30
0.0000
 11
4.9031
 21
0.5635
 31
0.0000
  0
ARC
  8
21
 10
4.9031
 20
0.7117
 30
0.0000
 40
0.1482
 50
180.0000
 51
270.0000
  0
LINE
  8
21
 10
4.7550
 20
0.7117
 30
0.0000
 11
4.7550
 21
0.9586
 31
0.0000
  0
ARC
  8
21
 10
4.9525
 20
0.9586
 30
0.0000
 40
0.1976
 50
0.0000
 51
180.0000
  0
LINE
  8
21
 10
5.1501
 20
0.9586
 30
0.0000
 11
5.1501
 21
0.8598
 31
0.0000
  0
LINE
  8
21
 10
5.1501
 20
0.8598
 30
0.0000
 11
4.7550
 21
0.8598
 31
0.0000
  0
LINE
  8
21
 10
5.9365
 20
1.4525
 30
0.0000
 11
5.9365
 21
0.5635
 31
0.0000
  0
LINE
  8
21
 10
5.9365
 20
0.5635
 30
0.0000
 11
5.6896
 21
0.5635
 31
0.0000
  0
ARC
  8
21
 10
5.6896
 20
0.7117
 30
0.0000
 40
0.1482
 50
180.0000
 51
270.0000
  0
LINE
  8
21
 10
5.5414
 20
0.7117
 30
0.0000
 11
5.5414
 21
1.0080
 31
0.0000
  0
ARC
  8
21
 10
5.6896
 20
1.0080
 30
0.0000
 40
0.1482
 50
89.9988
 51
180.0000
  0
LINE
  8
21
 10
5.6896
 20
1.1562
 30
0.0000
 11
5.9365
 21
1.1562
 31
0.0000
  0
LINE
  8
21
 10
17.0508
 20
16.4904
 30
0.0000
 11
17.0508
 21
17.0096
 31
0.0000
  0
ARC
  8
21
 10
17.3754
 20
17.0096
 30
0.0000
 40
0.3246
 50
0.0000
 51
180.0000
  0
LINE
  8
21
 10
17.6999
 20
17.0096
 30
0.0000
 11
17.6999
 21
16.4904
 31
0.0000
  0
ARC
  8
21
 10
17.3754
 20
16.4904
 30
0.0000
 40
0.3246
 50
180.0000
 51
0.0000
  0
LINE
  8
21
 10
18.2342
 20
16.1658
 30
0.0000
 11
18.2342
 21
17.3342
 31
0.0000
  0
LINE
  8
21
 10
18.2342
 20
17.3342
 30
0.0000
 11
18.7534
 21
17.3342
 31
0.0000
  0
LINE
  8
21
 10
18.2342
 20
16.8149
 30
0.0000
 11
18.7534
 21
16.8149
 31
0.0000
  0
LINE
  8
21
 10
19.2248
 20
16.1658
 30
0.0000
 11
19.2248
 21
17.3342
 31
0.0000
  0
LINE
  8
21
 10
19.2248
 20
17.3342
 30
0.0000
 11
19.7440
 21
17.3342
 31
0.0000
  0
LINE
  8
21
 10
19.2248
 20
16.8149
 30
0.0000
 11
19.7440
 21
16.8149
 31
0.0000
  0
LINE
  8
21
 10
6.6190
 20
16.4904
 30
0.0000
 11
6.6190
 21
17.0096
 31
0.0000
  0
ARC
  8
21
 10
6.9435
 20
17.0096
 30
0.0000
 40
0.3246
 50
0.0000
 51
180.0000
  0
LINE
  8
21
 10
7.2681
 20
17.0096
 30
0.0000
 11
7.2681
 21
16.4904
 31
0.0000
  0
ARC
  8
21
 10
6.9435
 20
16.4904
 30
0.0000
 40
0.3246
 50
180.0000
 51
0.0000
  0
LINE
  8
21
 10
7.8001
 20
16.1658
 30
0.0000
 11
7.8001
 21
17.3342
 31
0.0000
  0
LINE
  8
21
 10
7.8001
 20
17.3342
 30
0.0000
 11
8.4492
 21
16.1658
 31
0.0000
  0
LINE
  8
21
 10
8.4492
 20
16.1658
 30
0.0000
 11
8.4492
 21
17.3342
 31
0.0000
  0
LINE
  8
21
 10
23.1000
 20
11.0000
 30
0.0000
 11
24.9000
 21
11.0000
 31
0.0000
  0
LINE
  8
21
 10
24.9000
 20
11.0000
 30
0.0000
 11
24.9000
 21
11.8000
 31
0.0000
  0
LINE
  8
21
 10
23.1000
 20
11.0000
 30
0.0000
 11
23.1000
 21
11.8000
 31
0.0000
  0
LINE
  8
21
 10
20.6000
 20
6.0000
 30
0.0000
 11
21.5000
 21
6.0000
 31
0.0000
  0
LINE
  8
21
 10
26.5000
 20
6.0000
 30
0.0000
 11
27.4000
 21
6.0000
 31
0.0000
  0
LINE
  8
21
 10
21.5000
 20
6.0000
 30
0.0000
 11
21.5000
 21
5.0000
 31
0.0000
  0
LINE
  8
21
 10
26.5000
 20
6.0000
 30
0.0000
 11
26.5000
 21
5.0000
 31
0.0000
  0
ARC
  8
21
 10
23.9842
 20
7.9825
 30
0.0000
 40
3.9186
 50
103.0415
 51
172.4112
  0
ARC
  8
21
 10
24.0158
 20
7.9825
 30
0.0000
 40
3.9186
 50
7.5888
 51
76.9585
  0
ARC
  8
21
 10
24.0102
 20
7.9701
 30
0.0000
 40
3.9384
 50
186.8551
 51
210.0148
  0
ARC
  8
21
 10
23.9898
 20
7.9701
 30
0.0000
 40
3.9384
 50
329.9852
 51
353.1449
  0
ARC
  8
21
 10
24.0000
 20
8.0000
 30
0.0000
 40
3.9051
 50
230.1944
 51
309.8056
  0
LINE
  8
21
 10
22.7000
 20
5.0000
 30
0.0000
 11
25.3000
 21
5.0000
 31
0.0000
  0
LINE
  8
21
 10
25.3000
 20
5.0000
 30
0.0000
 11
25.3000
 21
6.5000
 31
0.0000
  0
LINE
  8
21
 10
25.3000
 20
6.5000
 30
0.0000
 11
22.7000
 21
6.5000
 31
0.0000
  0
LINE
  8
21
 10
22.7000
 20
6.5000
 30
0.0000
 11
22.7000
 21
5.0000
 31
0.0000
  0
ARC
  8
21
 10
24.0000
 20
8.0000
 30
0.0000
 40
4.9031
 50
11.7683
 51
168.2317
  0
ARC
  8
21
 10
24.0000
 20
8.0500
 30
0.0000
 40
4.9135
 50
192.3391
 51
347.6609
  0
ARC
  8
51
 10
24.0000
 20
8.0000
 30
0.0000
 40
4.9031
 50
168.2317
 51
191.7683
  0
ARC
  8
51
 10
24.0000
 20
8.0000
 30
0.0000
 40
4.9031
 50
348.2317
 51
11.7683
  0
ARC
  8
51
 10
24.0000
 20
8.0000
 30
0.0000
 40
3.9319
 50
172.6942
 51
187.3058
  0
ARC
  8
51
 10
24.0000
 20
8.0000
 30
0.0000
 40
3.9319
 50
352.6942
 51
7.3058
  0
LINE
  8
21
 10
22.6000
 20
9.0000
 30
0.0000
 11
22.6000
 21
10.2000
 31
0.0000
  0
LINE
  8
21
 10
22.6000
 20
10.2000
 30
0.0000
 11
22.2000
 21
10.2000
 31
0.0000
  0
LINE
  8
21
 10
22.6000
 20
9.0000
 30
0.0000
 11
22.2000
 21
9.0000
 31
0.0000
  0
LINE
  8
21
 10
25.4000
 20
10.2000
 30
0.0000
 11
25.4000
 21
9.0000
 31
0.0000
  0
LINE
  8
21
 10
25.4000
 20
9.0000
 30
0.0000
 11
25.8000
 21
9.0000
 31
0.0000
  0
LINE
  8
21
 10
25.4000
 20
10.2000
 30
0.0000
 11
25.8000
 21
10.2000
 31
0.0000
  0
LINE
  8
51
 10
25.8000
 20
10.2000
 30
0.0000
 11
26.6000
 21
10.2000
 31
0.0000
  0
LINE
  8
51
 10
26.6000
 20
10.2000
 30
0.0000
 11
26.6000
 21
9.0000
 31
0.0000
  0
LINE
  8
51
 10
26.6000
 20
9.0000
 30
0.0000
 11
25.8000
 21
9.0000
 31
0.0000
  0
LINE
  8
51
 10
22.2000
 20
10.2000
 30
0.0000
 11
21.4000
 21
10.2000
 31
0.0000
  0
LINE
  8
51
 10
21.4000
 20
10.2000
 30
0.0000
 11
21.4000
 21
9.0000
 31
0.0000
  0
LINE
  8
51
 10
21.4000
 20
9.0000
 30
0.0000
 11
22.2000
 21
9.0000
 31
0.0000
  0
LINE
  8
21
 10
25.9000
 20
7.0000
 30
0.0000
 11
26.4000
 21
7.0000
 31
0.0000
  0
LINE
  8
21
 10
25.9000
 20
7.0000
 30
0.0000
 11
25.9000
 21
8.2000
 31
0.0000
  0
LINE
  8
21
 10
25.9000
 20
8.2000
 30
0.0000
 11
26.4000
 21
8.2000
 31
0.0000
  0
LINE
  8
21
 10
22.1000
 20
8.2000
 30
0.0000
 11
22.1000
 21
7.0000
 31
0.0000
  0
LINE
  8
21
 10
22.1000
 20
7.0000
 30
0.0000
 11
21.6000
 21
7.0000
 31
0.0000
  0
LINE
  8
21
 10
22.1000
 20
8.2000
 30
0.0000
 11
21.6000
 21
8.2000
 31
0.0000
  0
LINE
  8
51
 10
21.6000
 20
8.2000
 30
0.0000
 11
20.9000
 21
8.2000
 31
0.0000
  0
LINE
  8
51
 10
20.9000
 20
8.2000
 30
0.0000
 11
20.9000
 21
7.0000
 31
0.0000
  0
LINE
  8
51
 10
20.9000
 20
7.0000
 30
0.0000
 11
21.6000
 21
7.0000
 31
0.0000
  0
LINE
  8
51
 10
26.4000
 20
7.0000
 30
0.0000
 11
27.1000
 21
7.0000
 31
0.0000
  0
LINE
  8
51
 10
27.1000
 20
7.0000
 30
0.0000
 11
27.1000
 21
8.2000
 31
0.0000
  0
LINE
  8
51
 10
27.1000
 20
8.2000
 30
0.0000
 11
26.4000
 21
8.2000
 31
0.0000
  0
LINE
  8
21
 10
24.9389
 20
7.8611
 30
0.0000
 11
25.2000
 21
8.0699
 31
0.0000
  0
LINE
  8
21
 10
25.2000
 20
8.0699
 30
0.0000
 11
25.2000
 21
7.1301
 31
0.0000
  0
LINE
  8
21
 10
24.9389
 20
7.1301
 30
0.0000
 11
25.4611
 21
7.1301
 31
0.0000
  0
ARC
  8
21
 10
22.8261
 20
7.8350
 30
0.0000
 40
0.2350
 50
0.0000
 51
90.0000
  0
ARC
  8
21
 10
22.8261
 20
7.7681
 30
0.0000
 40
0.3018
 50
90.0001
 51
162.0550
  0
ARC
  8
21
 10
22.8087
 20
7.8350
 30
0.0000
 40
0.2524
 50
313.6042
 51
359.9995
  0
LINE
  8
21
 10
22.9827
 20
7.6522
 30
0.0000
 11
22.5389
 21
7.1301
 31
0.0000
  0
LINE
  8
21
 10
22.5389
 20
7.1301
 30
0.0000
 11
23.0611
 21
7.1301
 31
0.0000
  0
LINE
  8
21
 10
24.4389
 20
9.1301
 30
0.0000
 11
24.7000
 21
9.1301
 31
0.0000
  0
ARC
  8
21
 10
24.7000
 20
9.3912
 30
0.0000
 40
0.2611
 50
270.0000
 51
90.0000
  0
LINE
  8
21
 10
24.4389
 20
10.0699
 30
0.0000
 11
24.7522
 21
10.0699
 31
0.0000
  0
ARC
  8
21
 10
24.7522
 20
9.8611
 30
0.0000
 40
0.2088
 50
270.0000
 51
90.0000
  0
LINE
  8
21
 10
24.7522
 20
9.6522
 30
0.0000
 11
24.5434
 21
9.6522
 31
0.0000
  0
LINE
  8
21
 10
23.2478
 20
10.0699
 30
0.0000
 11
23.0389
 21
9.3389
 31
0.0000
  0
LINE
  8
21
 10
23.0389
 20
9.3389
 30
0.0000
 11
23.5611
 21
9.3389
 31
0.0000
  0
LINE
  8
21
 10
23.4044
 20
9.5478
 30
0.0000
 11
23.4044
 21
9.1301
 31
0.0000
  0
CIRCLE
  8
21
 10
24.0000
 20
8.0000
 30
0.0000
 40
6.9000
  0
CIRCLE
  8
21
 10
24.0000
 20
8.0000
 30
0.0000
 40
6.0000
  0
CIRCLE
  8
21
 10
24.0000
 20
8.0000
 30
0.0000
 40
5.6000
  0
LINE
  8
25
 10
18.2090
 20
2.3555
 30
0.0000
 11
18.2090
 21
1.4467
 31
0.0000
  0
ARC
  8
25
 10
17.9494
 20
1.4467
 30
0.0000
 40
0.2596
 50
270.0000
 51
0.0000
  0
LINE
  8
25
 10
17.9494
 20
1.1871
 30
0.0000
 11
17.8195
 21
1.1871
 31
0.0000
  0
LINE
  8
25
 10
18.7364
 20
2.0958
 30
0.0000
 11
19.0609
 21
2.3555
 31
0.0000
  0
LINE
  8
25
 10
19.0609
 20
2.3555
 30
0.0000
 11
19.0609
 21
1.1871
 31
0.0000
  0
LINE
  8
25
 10
18.7364
 20
1.1871
 30
0.0000
 11
19.3855
 21
1.1871
 31
0.0000
  0
ARC
  8
21
 10
18.0000
 20
24.0000
 30
0.0000
 40
4.1976
 50
147.3808
 51
212.6192
  0
ARC
  8
21
 10
18.0000
 20
24.0000
 30
0.0000
 40
4.1976
 50
57.3808
 51
122.6192
  0
ARC
  8
21
 10
18.0000
 20
24.0000
 30
0.0000
 40
4.1976
 50
327.3808
 51
32.6192
  0
ARC
  8
21
 10
18.0000
 20
24.0000
 30
0.0000
 40
4.1976
 50
237.3808
 51
302.6192
  0
ARC
  8
21
 10
18.0000
 20
24.0000
 30
0.0000
 40
4.9729
 50
60.1541
 51
119.8459
  0
ARC
  8
21
 10
18.0000
 20
24.0000
 30
0.0000
 40
4.9729
 50
330.1541
 51
29.8459
  0
ARC
  8
21
 10
18.0000
 20
24.0000
 30
0.0000
 40
4.9729
 50
240.1541
 51
299.8459
  0
ARC
  8
21
 10
18.0000
 20
24.0000
 30
0.0000
 40
4.9729
 50
150.1541
 51
209.8459
  0
ARC
  8
51
 10
18.0000
 20
24.0000
 30
0.0000
 40
4.9729
 50
119.8459
 51
150.1541
  0
ARC
  8
51
 10
18.0000
 20
24.0000
 30
0.0000
 40
4.9729
 50
29.8459
 51
60.1541
  0
ARC
  8
51
 10
18.0000
 20
24.0000
 30
0.0000
 40
4.9729
 50
299.8459
 51
330.1541
  0
ARC
  8
51
 10
18.0000
 20
24.0000
 30
0.0000
 40
4.9729
 50
209.8459
 51
240.1541
  0
ARC
  8
51
 10
18.0000
 20
24.0000
 30
0.0000
 40
4.1976
 50
212.6192
 51
237.3808
  0
ARC
  8
51
 10
18.0000
 20
24.0000
 30
0.0000
 40
4.1976
 50
122.6192
 51
147.3808
  0
ARC
  8
51
 10
18.0000
 20
24.0000
 30
0.0000
 40
4.1976
 50
32.6192
 51
57.3808
  0
ARC
  8
51
 10
18.0000
 20
24.0000
 30
0.0000
 40
4.1976
 50
302.6192
 51
327.3808
  0
CIRCLE
  8
21
 10
18.0000
 20
24.0000
 30
0.0000
 40
1.7000
  0
CIRCLE
  8
21
 10
18.0000
 20
24.0000
 30
0.0000
 40
3.1000
  0
LINE
  8
25
 10
11.7980
 20
26.4345
 30
0.0000
 11
12.4406
 21
25.7919
 31
0.0000
  0
ARC
  8
25
 10
12.2570
 20
25.6083
 30
0.0000
 40
0.2596
 50
315.0007
 51
45.0002
  0
LINE
  8
25
 10
12.4406
 20
25.4247
 30
0.0000
 11
12.3488
 21
25.3329
 31
0.0000
  0
LINE
  8
25
 10
12.9971
 20
25.9812
 30
0.0000
 11
13.2265
 21
26.2107
 31
0.0000
  0
ARC
  8
25
 10
12.9971
 20
26.4402
 30
0.0000
 40
0.3246
 50
315.0002
 51
134.9998
  0
LINE
  8
25
 10
12.1709
 20
26.8074
 30
0.0000
 11
12.4463
 21
27.0828
 31
0.0000
  0
ARC
  8
25
 10
12.6299
 20
26.8992
 30
0.0000
 40
0.2596
 50
315.0000
 51
135.0000
  0
LINE
  8
25
 10
12.8135
 20
26.7156
 30
0.0000
 11
12.6299
 21
26.5320
 31
0.0000
  0
ARC
  8
21
 10
30.0000
 20
24.0000
 30
0.0000
 40
4.1976
 50
147.3808
 51
212.6192
  0
ARC
  8
21
 10
30.0000
 20
24.0000
 30
0.0000
 40
4.1976
 50
57.3808
 51
122.6192
  0
ARC
  8
21
 10
30.0000
 20
24.0000
 30
0.0000
 40
4.1976
 50
327.3808
 51
32.6192
  0
ARC
  8
21
 10
30.0000
 20
24.0000
 30
0.0000
 40
4.1976
 50
237.3808
 51
302.6192
  0
ARC
  8
21
 10
30.0000
 20
24.0000
 30
0.0000
 40
4.9729
 50
60.1541
 51
119.8459
  0
ARC
  8
21
 10
30.0000
 20
24.0000
 30
0.0000
 40
4.9729
 50
330.1541
 51
29.8459
  0
ARC
  8
21
 10
30.0000
 20
24.0000
 30
0.0000
 40
4.9729
 50
240.1541
 51
299.8459
  0
ARC
  8
21
 10
30.0000
 20
24.0000
 30
0.0000
 40
4.9729
 50
150.1541
 51
209.8459
  0
ARC
  8
51
 10
30.0000
 20
24.0000
 30
0.0000
 40
4.9729
 50
119.8459
 51
150.1541
  0
ARC
  8
51
 10
30.0000
 20
24.0000
 30
0.0000
 40
4.9729
 50
29.8459
 51
60.1541
  0
ARC
  8
51
 10
30.0000
 20
24.0000
 30
0.0000
 40
4.9729
 50
299.8459
 51
330.1541
  0
ARC
  8
51
 10
30.0000
 20
24.0000
 30
0.0000
 40
4.9729
 50
209.8459
 51
240.1541
  0
ARC
  8
51
 10
30.0000
 20
24.0000
 30
0.0000
 40
4.1976
 50
212.6192
 51
237.3808
  0
ARC
  8
51
 10
30.0000
 20
24.0000
 30
0.0000
 40
4.1976
 50
122.6192
 51
147.3808
  0
ARC
  8
51
 10
30.0000
 20
24.0000
 30
0.0000
 40
4.1976
 50
32.6192
 51
57.3808
  0
ARC
  8
51
 10
30.0000
 20
24.0000
 30
0.0000
 40
4.1976
 50
302.6192
 51
327.3808
  0
CIRCLE
  8
21
 10
30.0000
 20
24.0000
 30
0.0000
 40
1.7000
  0
CIRCLE
  8
21
 10
30.0000
 20
24.0000
 30
0.0000
 40
3.1000
  0
LINE
  8
25
 10
23.7980
 20
26.4345
 30
0.0000
 11
24.4406
 21
25.7919
 31
0.0000
  0
ARC
  8
25
 10
24.2570
 20
25.6083
 30
0.0000
 40
0.2596
 50
315.0007
 51
45.0002
  0
LINE
  8
25
 10
24.4406
 20
25.4247
 30
0.0000
 11
24.3488
 21
25.3329
 31
0.0000
  0
LINE
  8
25
 10
24.3545
 20
26.9910
 30
0.0000
 11
24.8135
 21
26.1648
 31
0.0000
  0
LINE
  8
25
 10
24.8135
 20
26.1648
 30
0.0000
 11
25.2725
 21
26.6238
 31
0.0000
  0
LINE
  8
25
 10
24.9512
 20
26.6697
 30
0.0000
 11
25.3183
 21
26.3025
 31
0.0000
  0
ARC
  8
21
 10
6.0000
 20
24.0000
 30
0.0000
 40
4.1976
 50
147.3808
 51
212.6192
  0
ARC
  8
21
 10
6.0000
 20
24.0000
 30
0.0000
 40
4.1976
 50
57.3808
 51
122.6192
  0
ARC
  8
21
 10
6.0000
 20
24.0000
 30
0.0000
 40
4.1976
 50
327.3808
 51
32.6192
  0
ARC
  8
21
 10
6.0000
 20
24.0000
 30
0.0000
 40
4.1976
 50
237.3808
 51
302.6192
  0
ARC
  8
21
 10
6.0000
 20
24.0000
 30
0.0000
 40
4.9729
 50
60.1541
 51
119.8459
  0
ARC
  8
21
 10
6.0000
 20
24.0000
 30
0.0000
 40
4.9729
 50
330.1541
 51
29.8459
  0
ARC
  8
21
 10
6.0000
 20
24.0000
 30
0.0000
 40
4.9729
 50
240.1541
 51
299.8459
  0
ARC
  8
21
 10
6.0000
 20
24.0000
 30
0.0000
 40
4.9729
 50
150.1541
 51
209.8459
  0
ARC
  8
51
 10
6.0000
 20
24.0000
 30
0.0000
 40
4.9729
 50
119.8459
 51
150.1541
  0
ARC
  8
51
 10
6.0000
 20
24.0000
 30
0.0000
 40
4.9729
 50
29.8459
 51
60.1541
  0
ARC
  8
51
 10
6.0000
 20
24.0000
 30
0.0000
 40
4.9729
 50
299.8459
 51
330.1541
  0
ARC
  8
51
 10
6.0000
 20
24.0000
 30
0.0000
 40
4.9729
 50
209.8459
 51
240.1541
  0
ARC
  8
51
 10
6.0000
 20
24.0000
 30
0.0000
 40
4.1976
 50
212.6192
 51
237.3808
  0
ARC
  8
51
 10
6.0000
 20
24.0000
 30
0.0000
 40
4.1976
 50
122.6192
 51
147.3808
  0
ARC
  8
51
 10
6.0000
 20
24.0000
 30
0.0000
 40
4.1976
 50
32.6192
 51
57.3808
  0
ARC
  8
51
 10
6.0000
 20
24.0000
 30
0.0000
 40
4.1976
 50
302.6192
 51
327.3808
  0
CIRCLE
  8
21
 10
6.0000
 20
24.0000
 30
0.0000
 40
1.7000
  0
CIRCLE
  8
21
 10
6.0000
 20
24.0000
 30
0.0000
 40
3.1000
  0
LINE
  8
25
 10
3.1581
 20
19.0869
 30
0.0000
 11
3.1581
 21
18.1782
 31
0.0000
  0
ARC
  8
25
 10
2.8985
 20
18.1782
 30
0.0000
 40
0.2596
 50
270.0000
 51
0.0000
  0
LINE
  8
25
 10
2.8985
 20
17.9185
 30
0.0000
 11
2.7687
 21
17.9185
 31
0.0000
  0
LINE
  8
25
 10
3.6855
 20
17.9185
 30
0.0000
 11
4.0750
 21
17.9185
 31
0.0000
  0
ARC
  8
25
 10
4.0750
 20
18.1782
 30
0.0000
 40
0.2596
 50
270.0000
 51
0.0000
  0
LINE
  8
25
 10
4.3346
 20
18.1782
 30
0.0000
 11
4.3346
 21
18.3080
 31
0.0000
  0
ARC
  8
25
 10
4.0750
 20
18.3080
 30
0.0000
 40
0.2596
 50
0.0000
 51
90.0000
  0
LINE
  8
25
 10
4.0750
 20
18.5676
 30
0.0000
 11
3.6855
 21
18.5676
 31
0.0000
  0
LINE
  8
25
 10
3.6855
 20
18.5676
 30
0.0000
 11
3.6855
 21
19.0869
 31
0.0000
  0
LINE
  8
25
 10
3.6855
 20
19.0869
 30
0.0000
 11
4.3346
 21
19.0869
 31
0.0000
  0
ARC
  8
21
 10
42.0000
 20
24.0000
 30
0.0000
 40
4.1976
 50
147.3808
 51
212.6192
  0
ARC
  8
21
 10
42.0000
 20
24.0000
 30
0.0000
 40
4.1976
 50
57.3808
 51
122.6192
  0
ARC
  8
21
 10
42.0000
 20
24.0000
 30
0.0000
 40
4.1976
 50
327.3808
 51
32.6192
  0
ARC
  8
21
 10
42.0000
 20
24.0000
 30
0.0000
 40
4.1976
 50
237.3808
 51
302.6192
  0
ARC
  8
21
 10
42.0000
 20
24.0000
 30
0.0000
 40
4.9729
 50
60.1541
 51
119.8459
  0
ARC
  8
21
 10
42.0000
 20
24.0000
 30
0.0000
 40
4.9729
 50
330.1541
 51
29.8459
  0
ARC
  8
21
 10
42.0000
 20
24.0000
 30
0.0000
 40
4.9729
 50
240.1541
 51
299.8459
  0
ARC
  8
21
 10
42.0000
 20
24.0000
 30
0.0000
 40
4.9729
 50
150.1541
 51
209.8459
  0
ARC
  8
51
 10
42.0000
 20
24.0000
 30
0.0000
 40
4.9729
 50
119.8459
 51
150.1541
  0
ARC
  8
51
 10
42.0000
 20
24.0000
 30
0.0000
 40
4.9729
 50
29.8459
 51
60.1541
  0
ARC
  8
51
 10
42.0000
 20
24.0000
 30
0.0000
 40
4.9729
 50
299.8459
 51
330.1541
  0
ARC
  8
51
 10
42.0000
 20
24.0000
 30
0.0000
 40
4.9729
 50
209.8459
 51
240.1541
  0
ARC
  8
51
 10
42.0000
 20
24.0000
 30
0.0000
 40
4.1976
 50
212.6192
 51
237.3808
  0
ARC
  8
51
 10
42.0000
 20
24.0000
 30
0.0000
 40
4.1976
 50
122.6192
 51
147.3808
  0
ARC
  8
51
 10
42.0000
 20
24.0000
 30
0.0000
 40
4.1976
 50
32.6192
 51
57.3808
  0
ARC
  8
51
 10
42.0000
 20
24.0000
 30
0.0000
 40
4.1976
 50
302.6192
 51
327.3808
  0
CIRCLE
  8
21
 10
42.0000
 20
24.0000
 30
0.0000
 40
1.7000
  0
CIRCLE
  8
21
 10
42.0000
 20
24.0000
 30
0.0000
 40
3.1000
  0
LINE
  8
25
 10
43.7769
 20
18.9769
 30
0.0000
 11
43.7769
 21
18.0682
 31
0.0000
  0
ARC
  8
25
 10
43.5173
 20
18.0682
 30
0.0000
 40
0.2596
 50
270.0000
 51
0.0000
  0
LINE
  8
25
 10
43.5173
 20
17.8085
 30
0.0000
 11
43.3874
 21
17.8085
 31
0.0000
  0
LINE
  8
25
 10
44.3042
 20
18.4576
 30
0.0000
 11
44.6937
 21
18.4576
 31
0.0000
  0
ARC
  8
25
 10
44.6937
 20
18.1980
 30
0.0000
 40
0.2596
 50
0.0000
 51
90.0000
  0
LINE
  8
25
 10
44.9533
 20
18.1980
 30
0.0000
 11
44.9533
 21
18.1331
 31
0.0000
  0
ARC
  8
25
 10
44.6288
 20
18.1331
 30
0.0000
 40
0.3246
 50
180.0000
 51
0.0000
  0
LINE
  8
25
 10
44.3042
 20
18.1331
 30
0.0000
 11
44.3042
 21
18.4576
 31
0.0000
  0
ARC
  8
25
 10
44.8235
 20
18.4576
 30
0.0000
 40
0.5193
 50
90.0003
 51
180.0000
  0
LINE
  8
21
 10
13.5900
 20
5.1793
 30
0.0000
 11
13.5900
 21
3.9093
 31
0.0000
  0
LINE
  8
21
 10
13.5900
 20
3.9093
 30
0.0000
 11
12.9550
 21
3.2743
 31
0.0000
  0
LINE
  8
21
 10
12.9550
 20
3.2743
 30
0.0000
 11
11.6850
 21
3.2743
 31
0.0000
  0
LINE
  8
21
 10
11.6850
 20
3.2743
 30
0.0000
 11
11.0500
 21
3.9093
 31
0.0000
  0
LINE
  8
21
 10
12.9550
 20
5.8143
 30
0.0000
 11
11.6850
 21
5.8143
 31
0.0000
  0
LINE
  8
21
 10
13.5900
 20
5.1793
 30
0.0000
 11
12.9550
 21
5.8143
 31
0.0000
  0
LINE
  8
21
 10
11.6850
 20
5.8143
 30
0.0000
 11
11.0500
 21
5.8143
 31
0.0000
  0
LINE
  8
21
 10
11.0500
 20
5.8143
 30
0.0000
 11
11.0500
 21
5.1793
 31
0.0000
  0
LINE
  8
21
 10
11.0500
 20
3.9093
 30
0.0000
 11
11.0500
 21
5.1793
 31
0.0000
  0
LINE
  8
21
 10
12.9550
 20
3.2743
 30
0.0000
 11
13.5900
 21
2.6393
 31
0.0000
  0
LINE
  8
21
 10
13.5900
 20
2.6393
 30
0.0000
 11
13.5900
 21
1.3693
 31
0.0000
  0
LINE
  8
21
 10
13.5900
 20
1.3693
 30
0.0000
 11
12.9550
 21
0.7343
 31
0.0000
  0
LINE
  8
21
 10
12.9550
 20
0.7343
 30
0.0000
 11
11.6850
 21
0.7343
 31
0.0000
  0
LINE
  8
21
 10
11.6850
 20
0.7343
 30
0.0000
 11
11.0500
 21
1.3693
 31
0.0000
  0
LINE
  8
21
 10
11.0500
 20
1.3693
 30
0.0000
 11
11.0500
 21
2.6393
 31
0.0000
  0
LINE
  8
21
 10
11.0500
 20
2.6393
 30
0.0000
 11
11.6850
 21
3.2743
 31
0.0000
  0
INSERT
  8
51
  2
RECT
 10
12.3200
 20
4.5442
 30
0.0000
 41
0.5080
 42
0.5080
 43
1.0000
 50
270.0000
  0
INSERT
  8
51
  2
RECT
 10
12.3200
 20
2.0043
 30
0.0000
 41
0.5080
 42
0.5080
 43
1.0000
 50
270.0000
  0
LINE
  8
25
 10
11.6845
 20
6.7736
 30
0.0000
 11
12.5933
 21
6.7736
 31
0.0000
  0
ARC
  8
25
 10
12.5933
 20
6.5139
 30
0.0000
 40
0.2596
 50
0.0000
 51
90.0000
  0
LINE
  8
25
 10
12.8529
 20
6.5139
 30
0.0000
 11
12.8529
 21
6.3841
 31
0.0000
  0
LINE
  8
25
 10
12.8529
 20
7.3559
 30
0.0000
 11
11.6845
 21
7.3559
 31
0.0000
  0
LINE
  8
25
 10
11.6845
 20
7.3559
 30
0.0000
 11
11.6845
 21
7.6805
 31
0.0000
  0
ARC
  8
25
 10
12.0091
 20
7.6805
 30
0.0000
 40
0.3246
 50
0.0000
 51
180.0000
  0
LINE
  8
25
 10
12.3336
 20
7.6805
 30
0.0000
 11
12.3336
 21
7.3559
 31
0.0000
  0
LINE
  8
25
 10
11.9441
 20
8.4439
 30
0.0000
 11
11.6845
 21
8.7685
 31
0.0000
  0
LINE
  8
25
 10
11.6845
 20
8.7685
 30
0.0000
 11
12.8529
 21
8.7685
 31
0.0000
  0
LINE
  8
25
 10
12.8529
 20
8.4439
 30
0.0000
 11
12.8529
 21
9.0930
 31
0.0000
  0
LINE
  8
21
 10
16.0493
 20
15.2880
 30
0.0000
 11
14.7793
 21
15.2880
 31
0.0000
  0
LINE
  8
21
 10
14.7793
 20
15.2880
 30
0.0000
 11
14.1443
 21
15.9230
 31
0.0000
  0
LINE
  8
21
 10
14.1443
 20
15.9230
 30
0.0000
 11
14.1443
 21
17.1930
 31
0.0000
  0
LINE
  8
21
 10
14.1443
 20
17.1930
 30
0.0000
 11
14.7793
 21
17.8280
 31
0.0000
  0
LINE
  8
21
 10
14.1443
 20
15.9230
 30
0.0000
 11
13.5093
 21
15.2880
 31
0.0000
  0
LINE
  8
21
 10
13.5093
 20
15.2880
 30
0.0000
 11
12.2393
 21
15.2880
 31
0.0000
  0
LINE
  8
21
 10
12.2393
 20
15.2880
 30
0.0000
 11
11.6043
 21
15.9230
 31
0.0000
  0
LINE
  8
21
 10
11.6043
 20
15.9230
 30
0.0000
 11
11.6043
 21
17.1930
 31
0.0000
  0
LINE
  8
21
 10
11.6043
 20
17.1930
 30
0.0000
 11
12.2393
 21
17.8280
 31
0.0000
  0
LINE
  8
21
 10
12.2393
 20
17.8280
 30
0.0000
 11
13.5093
 21
17.8280
 31
0.0000
  0
LINE
  8
21
 10
13.5093
 20
17.8280
 30
0.0000
 11
14.1443
 21
17.1930
 31
0.0000
  0
LINE
  8
21
 10
16.6843
 20
15.9230
 30
0.0000
 11
16.6843
 21
17.1930
 31
0.0000
  0
LINE
  8
21
 10
16.0493
 20
15.2880
 30
0.0000
 11
16.6843
 21
15.9230
 31
0.0000
  0
LINE
  8
21
 10
16.6843
 20
17.1930
 30
0.0000
 11
16.6843
 21
17.8280
 31
0.0000
  0
LINE
  8
21
 10
16.6843
 20
17.8280
 30
0.0000
 11
16.0493
 21
17.8280
 31
0.0000
  0
LINE
  8
21
 10
14.7793
 20
17.8280
 30
0.0000
 11
16.0493
 21
17.8280
 31
0.0000
  0
LINE
  8
21
 10
11.6043
 20
15.9230
 30
0.0000
 11
10.9693
 21
15.2880
 31
0.0000
  0
LINE
  8
21
 10
10.9693
 20
15.2880
 30
0.0000
 11
9.6993
 21
15.2880
 31
0.0000
  0
LINE
  8
21
 10
9.6993
 20
15.2880
 30
0.0000
 11
9.0643
 21
15.9230
 31
0.0000
  0
LINE
  8
21
 10
9.0643
 20
15.9230
 30
0.0000
 11
9.0643
 21
17.1930
 31
0.0000
  0
LINE
  8
21
 10
9.0643
 20
17.1930
 30
0.0000
 11
9.6993
 21
17.8280
 31
0.0000
  0
LINE
  8
21
 10
9.6993
 20
17.8280
 30
0.0000
 11
10.9693
 21
17.8280
 31
0.0000
  0
LINE
  8
21
 10
10.9693
 20
17.8280
 30
0.0000
 11
11.6043
 21
17.1930
 31
0.0000
  0
INSERT
  8
51
  2
RECT
 10
12.8742
 20
16.5580
 30
0.0000
 41
0.5080
 42
0.5080
 43
1.0000
 50
180.0000
  0
INSERT
  8
51
  2
RECT
 10
15.4143
 20
16.5580
 30
0.0000
 41
0.5080
 42
0.5080
 43
1.0000
 50
180.0000
  0
INSERT
  8
51
  2
RECT
 10
10.3343
 20
16.5580
 30
0.0000
 41
0.5080
 42
0.5080
 43
1.0000
 50
180.0000
  0
LINE
  8
25
 10
11.0061
 20
19.4500
 30
0.0000
 11
11.0061
 21
18.5412
 31
0.0000
  0
ARC
  8
25
 10
10.7464
 20
18.5412
 30
0.0000
 40
0.2596
 50
270.0000
 51
0.0000
  0
LINE
  8
25
 10
10.7464
 20
18.2816
 30
0.0000
 11
10.6166
 21
18.2816
 31
0.0000
  0
LINE
  8
25
 10
11.5884
 20
18.2816
 30
0.0000
 11
11.5884
 21
19.4500
 31
0.0000
  0
LINE
  8
25
 10
11.5884
 20
19.4500
 30
0.0000
 11
11.9130
 21
19.4500
 31
0.0000
  0
ARC
  8
25
 10
11.9130
 20
19.1254
 30
0.0000
 40
0.3246
 50
270.0000
 51
90.0000
  0
LINE
  8
25
 10
11.9130
 20
18.8009
 30
0.0000
 11
11.5884
 21
18.8009
 31
0.0000
  0
ARC
  8
25
 10
13.0334
 20
19.1579
 30
0.0000
 40
0.2921
 50
0.0000
 51
90.0000
  0
ARC
  8
25
 10
13.0334
 20
19.0747
 30
0.0000
 40
0.3753
 50
90.0001
 51
162.0549
  0
ARC
  8
25
 10
13.0118
 20
19.1579
 30
0.0000
 40
0.3138
 50
313.6040
 51
359.9996
  0
LINE
  8
25
 10
13.2281
 20
18.9307
 30
0.0000
 11
12.6764
 21
18.2816
 31
0.0000
  0
LINE
  8
25
 10
12.6764
 20
18.2816
 30
0.0000
 11
13.3255
 21
18.2816
 31
0.0000
  0
LINE
  8
21
 10
33.2463
 20
15.2955
 30
0.0000
 11
31.9763
 21
15.2955
 31
0.0000
  0
LINE
  8
21
 10
31.9763
 20
15.2955
 30
0.0000
 11
31.3413
 21
15.9305
 31
0.0000
  0
LINE
  8
21
 10
31.3413
 20
15.9305
 30
0.0000
 11
31.3413
 21
17.2005
 31
0.0000
  0
LINE
  8
21
 10
31.3413
 20
17.2005
 30
0.0000
 11
31.9763
 21
17.8355
 31
0.0000
  0
LINE
  8
21
 10
31.3413
 20
15.9305
 30
0.0000
 11
30.7063
 21
15.2955
 31
0.0000
  0
LINE
  8
21
 10
30.7063
 20
15.2955
 30
0.0000
 11
29.4363
 21
15.2955
 31
0.0000
  0
LINE
  8
21
 10
29.4363
 20
15.2955
 30
0.0000
 11
28.8013
 21
15.9305
 31
0.0000
  0
LINE
  8
21
 10
28.8013
 20
15.9305
 30
0.0000
 11
28.8013
 21
17.2005
 31
0.0000
  0
LINE
  8
21
 10
28.8013
 20
17.2005
 30
0.0000
 11
29.4363
 21
17.8355
 31
0.0000
  0
LINE
  8
21
 10
29.4363
 20
17.8355
 30
0.0000
 11
30.7063
 21
17.8355
 31
0.0000
  0
LINE
  8
21
 10
30.7063
 20
17.8355
 30
0.0000
 11
31.3413
 21
17.2005
 31
0.0000
  0
LINE
  8
21
 10
33.8813
 20
15.9305
 30
0.0000
 11
33.8813
 21
17.2005
 31
0.0000
  0
LINE
  8
21
 10
33.2463
 20
15.2955
 30
0.0000
 11
33.8813
 21
15.9305
 31
0.0000
  0
LINE
  8
21
 10
33.8813
 20
17.2005
 30
0.0000
 11
33.8813
 21
17.8355
 31
0.0000
  0
LINE
  8
21
 10
33.8813
 20
17.8355
 30
0.0000
 11
33.2463
 21
17.8355
 31
0.0000
  0
LINE
  8
21
 10
31.9763
 20
17.8355
 30
0.0000
 11
33.2463
 21
17.8355
 31
0.0000
  0
LINE
  8
21
 10
28.8013
 20
15.9305
 30
0.0000
 11
28.1663
 21
15.2955
 31
0.0000
  0
LINE
  8
21
 10
28.1663
 20
15.2955
 30
0.0000
 11
26.8963
 21
15.2955
 31
0.0000
  0
LINE
  8
21
 10
26.8963
 20
15.2955
 30
0.0000
 11
26.2613
 21
15.9305
 31
0.0000
  0
LINE
  8
21
 10
26.2613
 20
15.9305
 30
0.0000
 11
26.2613
 21
17.2005
 31
0.0000
  0
LINE
  8
21
 10
26.2613
 20
17.2005
 30
0.0000
 11
26.8963
 21
17.8355
 31
0.0000
  0
LINE
  8
21
 10
26.8963
 20
17.8355
 30
0.0000
 11
28.1663
 21
17.8355
 31
0.0000
  0
LINE
  8
21
 10
28.1663
 20
17.8355
 30
0.0000
 11
28.8013
 21
17.2005
 31
0.0000
  0
INSERT
  8
51
  2
RECT
 10
30.0713
 20
16.5655
 30
0.0000
 41
0.5080
 42
0.5080
 43
1.0000
 50
180.0000
  0
INSERT
  8
51
  2
RECT
 10
32.6112
 20
16.5655
 30
0.0000
 41
0.5080
 42
0.5080
 43
1.0000
 50
180.0000
  0
INSERT
  8
51
  2
RECT
 10
27.5313
 20
16.5655
 30
0.0000
 41
0.5080
 42
0.5080
 43
1.0000
 50
180.0000
  0
LINE
  8
25
 10
29.0472
 20
15.0034
 30
0.0000
 11
29.0472
 21
14.0946
 31
0.0000
  0
ARC
  8
25
 10
28.7876
 20
14.0946
 30
0.0000
 40
0.2596
 50
270.0000
 51
0.0000
  0
LINE
  8
25
 10
28.7876
 20
13.8350
 30
0.0000
 11
28.6577
 21
13.8350
 31
0.0000
  0
LINE
  8
25
 10
29.6296
 20
13.8350
 30
0.0000
 11
29.6296
 21
15.0034
 31
0.0000
  0
LINE
  8
25
 10
29.6296
 20
15.0034
 30
0.0000
 11
29.9541
 21
15.0034
 31
0.0000
  0
ARC
  8
25
 10
29.9541
 20
14.6788
 30
0.0000
 40
0.3246
 50
270.0000
 51
90.0000
  0
LINE
  8
25
 10
29.9541
 20
14.3543
 30
0.0000
 11
29.6296
 21
14.3543
 31
0.0000
  0
LINE
  8
25
 10
30.7175
 20
13.8350
 30
0.0000
 11
31.0421
 21
13.8350
 31
0.0000
  0
ARC
  8
25
 10
31.0421
 20
14.1596
 30
0.0000
 40
0.3246
 50
270.0000
 51
90.0000
  0
LINE
  8
25
 10
30.7175
 20
15.0034
 30
0.0000
 11
31.1070
 21
15.0034
 31
0.0000
  0
ARC
  8
25
 10
31.1070
 20
14.7438
 30
0.0000
 40
0.2596
 50
270.0000
 51
90.0000
  0
LINE
  8
25
 10
31.1070
 20
14.4841
 30
0.0000
 11
30.8474
 21
14.4841
 31
0.0000
  0
LINE
  8
21
 10
14.0835
 20
10.8388
 30
0.0000
 11
14.0835
 21
3.2188
 31
0.0000
  0
LINE
  8
21
 10
16.6235
 20
3.2188
 30
0.0000
 11
16.6235
 21
10.8388
 31
0.0000
  0
LINE
  8
21
 10
15.3535
 20
3.2188
 30
0.0000
 11
15.3535
 21
2.4567
 31
0.0000
  0
LINE
  8
21
 10
14.0835
 20
3.2188
 30
0.0000
 11
16.6235
 21
3.2188
 31
0.0000
  0
LINE
  8
21
 10
15.3535
 20
10.8388
 30
0.0000
 11
15.3535
 21
11.6007
 31
0.0000
  0
LINE
  8
21
 10
16.6235
 20
10.8388
 30
0.0000
 11
14.0835
 21
10.8388
 31
0.0000
  0
LINE
  8
25
 10
15.9377
 20
8.3682
 30
0.0000
 11
14.7693
 21
8.3682
 31
0.0000
  0
LINE
  8
25
 10
14.7693
 20
8.3682
 30
0.0000
 11
14.7693
 21
8.6928
 31
0.0000
  0
ARC
  8
25
 10
15.0939
 20
8.6928
 30
0.0000
 40
0.3246
 50
0.0000
 51
180.0000
  0
LINE
  8
25
 10
15.4184
 20
8.6928
 30
0.0000
 11
15.4184
 21
8.3682
 31
0.0000
  0
LINE
  8
25
 10
15.9377
 20
9.0173
 30
0.0000
 11
15.4184
 21
8.7577
 31
0.0000
  0
LINE
  8
25
 10
15.0289
 20
9.5038
 30
0.0000
 11
14.7693
 21
9.8284
 31
0.0000
  0
LINE
  8
25
 10
14.7693
 20
9.8284
 30
0.0000
 11
15.9377
 21
9.8284
 31
0.0000
  0
LINE
  8
25
 10
15.9377
 20
9.5038
 30
0.0000
 11
15.9377
 21
10.1530
 31
0.0000
  0
LINE
  8
48
 10
54.6100
 20
40.6400
 30
0.0000
 11
54.6100
 21
43.8150
 31
0.0000
  0
LINE
  8
48
 10
54.6100
 20
43.8150
 30
0.0000
 11
54.6100
 21
46.9900
 31
0.0000
  0
LINE
  8
48
 10
54.6100
 20
46.9900
 30
0.0000
 11
54.6100
 21
50.1650
 31
0.0000
  0
LINE
  8
48
 10
54.6100
 20
50.1650
 30
0.0000
 11
54.6100
 21
53.3400
 31
0.0000
  0
LINE
  8
48
 10
54.6100
 20
53.3400
 30
0.0000
 11
54.6100
 21
56.5150
 31
0.0000
  0
LINE
  8
48
 10
54.6100
 20
56.5150
 30
0.0000
 11
22.8600
 21
56.5150
 31
0.0000
  0
LINE
  8
48
 10
22.8600
 20
56.5150
 30
0.0000
 11
0.0000
 21
56.5150
 31
0.0000
  0
LINE
  8
48
 10
0.0000
 20
56.5150
 30
0.0000
 11
0.0000
 21
50.1650
 31
0.0000
  0
LINE
  8
48
 10
0.0000
 20
50.1650
 30
0.0000
 11
0.0000
 21
46.9900
 31
0.0000
  0
LINE
  8
48
 10
0.0000
 20
46.9900
 30
0.0000
 11
0.0000
 21
43.8150
 31
0.0000
  0
LINE
  8
48
 10
0.0000
 20
43.8150
 30
0.0000
 11
0.0000
 21
40.6400
 31
0.0000
  0
LINE
  8
48
 10
0.0000
 20
40.6400
 30
0.0000
 11
54.6100
 21
40.6400
 31
0.0000
  0
LINE
  8
48
 10
0.0000
 20
43.8150
 30
0.0000
 11
36.8300
 21
43.8150
 31
0.0000
  0
LINE
  8
48
 10
36.8300
 20
43.8150
 30
0.0000
 11
54.6100
 21
43.8150
 31
0.0000
  0
LINE
  8
48
 10
0.0000
 20
46.9900
 30
0.0000
 11
36.8300
 21
46.9900
 31
0.0000
  0
LINE
  8
48
 10
36.8300
 20
46.9900
 30
0.0000
 11
54.6100
 21
46.9900
 31
0.0000
  0
LINE
  8
48
 10
0.0000
 20
50.1650
 30
0.0000
 11
22.8600
 21
50.1650
 31
0.0000
  0
LINE
  8
48
 10
22.8600
 20
50.1650
 30
0.0000
 11
36.8300
 21
50.1650
 31
0.0000
  0
LINE
  8
48
 10
36.8300
 20
50.1650
 30
0.0000
 11
54.6100
 21
50.1650
 31
0.0000
  0
LINE
  8
48
 10
22.8600
 20
56.5150
 30
0.0000
 11
22.8600
 21
53.3400
 31
0.0000
  0
LINE
  8
48
 10
22.8600
 20
53.3400
 30
0.0000
 11
22.8600
 21
50.1650
 31
0.0000
  0
LINE
  8
48
 10
22.8600
 20
53.3400
 30
0.0000
 11
36.8300
 21
53.3400
 31
0.0000
  0
LINE
  8
48
 10
36.8300
 20
53.3400
 30
0.0000
 11
54.6100
 21
53.3400
 31
0.0000
  0
LINE
  8
48
 10
36.8300
 20
53.3400
 30
0.0000
 11
36.8300
 21
50.1650
 31
0.0000
  0
LINE
  8
48
 10
36.8300
 20
46.9900
 30
0.0000
 11
36.8300
 21
43.8150
 31
0.0000
  0
LINE
  8
21
 10
1.3589
 20
41.5502
 30
0.0000
 11
1.3589
 21
42.8964
 31
0.0000
  0
LINE
  8
21
 10
1.3589
 20
42.8964
 30
0.0000
 11
1.7328
 21
42.8964
 31
0.0000
  0
ARC
  8
21
 10
1.7328
 20
42.6720
 30
0.0000
 40
0.2244
 50
0.0000
 51
90.0000
  0
LINE
  8
21
 10
1.9572
 20
42.6720
 30
0.0000
 11
1.9572
 21
42.2233
 31
0.0000
  0
ARC
  8
21
 10
1.7328
 20
42.2233
 30
0.0000
 40
0.2244
 50
270.0008
 51
0.0000
  0
LINE
  8
21
 10
1.7328
 20
41.9989
 30
0.0000
 11
1.3589
 21
41.9989
 31
0.0000
  0
LINE
  8
21
 10
2.5485
 20
43.3451
 30
0.0000
 11
2.5485
 21
42.2233
 31
0.0000
  0
ARC
  8
21
 10
2.7729
 20
42.2233
 30
0.0000
 40
0.2244
 50
180.0000
 51
270.0000
  0
LINE
  8
21
 10
3.8564
 20
42.5224
 30
0.0000
 11
3.5199
 21
42.5224
 31
0.0000
  0
ARC
  8
21
 10
3.5199
 20
42.2607
 30
0.0000
 40
0.2618
 50
90.0000
 51
270.0000
  0
LINE
  8
21
 10
3.5199
 20
41.9989
 30
0.0000
 11
3.8564
 21
41.9989
 31
0.0000
  0
LINE
  8
21
 10
3.8564
 20
41.9989
 30
0.0000
 11
3.8564
 21
42.6720
 31
0.0000
  0
ARC
  8
21
 10
3.6320
 20
42.6720
 30
0.0000
 40
0.2244
 50
0.0000
 51
90.0000
  0
LINE
  8
21
 10
3.6320
 20
42.8964
 30
0.0000
 11
3.3329
 21
42.8964
 31
0.0000
  0
LINE
  8
21
 10
5.0241
 20
41.9989
 30
0.0000
 11
4.7250
 21
41.9989
 31
0.0000
  0
ARC
  8
21
 10
4.7250
 20
42.2233
 30
0.0000
 40
0.2244
 50
180.0000
 51
270.0000
  0
LINE
  8
21
 10
4.5006
 20
42.2233
 30
0.0000
 11
4.5006
 21
42.6720
 31
0.0000
  0
ARC
  8
21
 10
4.7250
 20
42.6720
 30
0.0000
 40
0.2244
 50
89.9992
 51
180.0000
  0
LINE
  8
21
 10
4.7250
 20
42.8964
 30
0.0000
 11
5.0241
 21
42.8964
 31
0.0000
  0
LINE
  8
21
 10
6.1464
 20
41.9989
 30
0.0000
 11
5.7725
 21
41.9989
 31
0.0000
  0
ARC
  8
21
 10
5.7725
 20
42.2233
 30
0.0000
 40
0.2244
 50
180.0000
 51
270.0000
  0
LINE
  8
21
 10
5.5481
 20
42.2233
 30
0.0000
 11
5.5481
 21
42.5972
 31
0.0000
  0
ARC
  8
21
 10
5.8473
 20
42.5972
 30
0.0000
 40
0.2992
 50
0.0000
 51
180.0000
  0
LINE
  8
21
 10
6.1464
 20
42.5972
 30
0.0000
 11
6.1464
 21
42.4476
 31
0.0000
  0
LINE
  8
21
 10
6.1464
 20
42.4476
 30
0.0000
 11
5.5481
 21
42.4476
 31
0.0000
  0
LINE
  8
21
 10
6.8130
 20
41.9989
 30
0.0000
 11
6.8130
 21
42.8964
 31
0.0000
  0
LINE
  8
21
 10
6.8130
 20
42.8964
 30
0.0000
 11
7.4861
 21
42.8964
 31
0.0000
  0
ARC
  8
21
 10
7.4861
 20
42.6720
 30
0.0000
 40
0.2244
 50
0.0000
 51
90.0000
  0
LINE
  8
21
 10
7.7105
 20
42.6720
 30
0.0000
 11
7.7105
 21
41.9989
 31
0.0000
  0
LINE
  8
21
 10
7.2617
 20
41.9989
 30
0.0000
 11
7.2617
 21
42.8964
 31
0.0000
  0
LINE
  8
21
 10
8.9754
 20
41.9989
 30
0.0000
 11
8.6014
 21
41.9989
 31
0.0000
  0
ARC
  8
21
 10
8.6014
 20
42.2233
 30
0.0000
 40
0.2244
 50
180.0000
 51
270.0000
  0
LINE
  8
21
 10
8.3771
 20
42.2233
 30
0.0000
 11
8.3771
 21
42.5972
 31
0.0000
  0
ARC
  8
21
 10
8.6762
 20
42.5972
 30
0.0000
 40
0.2992
 50
0.0000
 51
180.0000
  0
LINE
  8
21
 10
8.9754
 20
42.5972
 30
0.0000
 11
8.9754
 21
42.4476
 31
0.0000
  0
LINE
  8
21
 10
8.9754
 20
42.4476
 30
0.0000
 11
8.3771
 21
42.4476
 31
0.0000
  0
LINE
  8
21
 10
9.6090
 20
41.9989
 30
0.0000
 11
9.6090
 21
42.8964
 31
0.0000
  0
LINE
  8
21
 10
9.6090
 20
42.8964
 30
0.0000
 11
9.9830
 21
42.8964
 31
0.0000
  0
ARC
  8
21
 10
9.9830
 20
42.6720
 30
0.0000
 40
0.2244
 50
0.0000
 51
90.0000
  0
LINE
  8
21
 10
10.2074
 20
42.6720
 30
0.0000
 11
10.2074
 21
41.9989
 31
0.0000
  0
LINE
  8
21
 10
10.7198
 20
42.8964
 30
0.0000
 11
11.1685
 21
42.8964
 31
0.0000
  0
LINE
  8
21
 10
10.8694
 20
43.3451
 30
0.0000
 11
10.8694
 21
42.2233
 31
0.0000
  0
ARC
  8
21
 10
11.0937
 20
42.2233
 30
0.0000
 40
0.2244
 50
180.0000
 51
270.0000
  0
LINE
  8
21
 10
11.0937
 20
41.9989
 30
0.0000
 11
11.1685
 21
41.9989
 31
0.0000
  0
LINE
  8
21
 10
12.9635
 20
41.9989
 30
0.0000
 11
12.6643
 21
41.9989
 31
0.0000
  0
ARC
  8
21
 10
12.6643
 20
42.2233
 30
0.0000
 40
0.2244
 50
180.0000
 51
270.0000
  0
LINE
  8
21
 10
12.4400
 20
42.2233
 30
0.0000
 11
12.4400
 21
42.6720
 31
0.0000
  0
ARC
  8
21
 10
12.6643
 20
42.6720
 30
0.0000
 40
0.2244
 50
89.9992
 51
180.0000
  0
LINE
  8
21
 10
12.6643
 20
42.8964
 30
0.0000
 11
12.9635
 21
42.8964
 31
0.0000
  0
LINE
  8
21
 10
13.4875
 20
42.2981
 30
0.0000
 11
13.4875
 21
42.5972
 31
0.0000
  0
ARC
  8
21
 10
13.7866
 20
42.5972
 30
0.0000
 40
0.2992
 50
0.0000
 51
180.0000
  0
LINE
  8
21
 10
14.0858
 20
42.5972
 30
0.0000
 11
14.0858
 21
42.2981
 31
0.0000
  0
ARC
  8
21
 10
13.7866
 20
42.2981
 30
0.0000
 40
0.2992
 50
180.0000
 51
0.0000
  0
LINE
  8
21
 10
14.7524
 20
41.9989
 30
0.0000
 11
14.7524
 21
42.8964
 31
0.0000
  0
LINE
  8
21
 10
14.7524
 20
42.8964
 30
0.0000
 11
15.4255
 21
42.8964
 31
0.0000
  0
ARC
  8
21
 10
15.4255
 20
42.6720
 30
0.0000
 40
0.2244
 50
0.0000
 51
90.0000
  0
LINE
  8
21
 10
15.6498
 20
42.6720
 30
0.0000
 11
15.6498
 21
41.9989
 31
0.0000
  0
LINE
  8
21
 10
15.2011
 20
41.9989
 30
0.0000
 11
15.2011
 21
42.8964
 31
0.0000
  0
LINE
  8
21
 10
16.3706
 20
41.5502
 30
0.0000
 11
16.3706
 21
42.8964
 31
0.0000
  0
LINE
  8
21
 10
16.3706
 20
42.8964
 30
0.0000
 11
16.7446
 21
42.8964
 31
0.0000
  0
ARC
  8
21
 10
16.7446
 20
42.6720
 30
0.0000
 40
0.2244
 50
0.0000
 51
90.0000
  0
LINE
  8
21
 10
16.9690
 20
42.6720
 30
0.0000
 11
16.9690
 21
42.2233
 31
0.0000
  0
ARC
  8
21
 10
16.7446
 20
42.2233
 30
0.0000
 40
0.2244
 50
270.0008
 51
0.0000
  0
LINE
  8
21
 10
16.7446
 20
41.9989
 30
0.0000
 11
16.3706
 21
41.9989
 31
0.0000
  0
LINE
  8
21
 10
17.5484
 20
42.2981
 30
0.0000
 11
17.5484
 21
42.5972
 31
0.0000
  0
ARC
  8
21
 10
17.8475
 20
42.5972
 30
0.0000
 40
0.2992
 50
0.0000
 51
180.0000
  0
LINE
  8
21
 10
18.1467
 20
42.5972
 30
0.0000
 11
18.1467
 21
42.2981
 31
0.0000
  0
ARC
  8
21
 10
17.8475
 20
42.2981
 30
0.0000
 40
0.2992
 50
180.0000
 51
0.0000
  0
LINE
  8
21
 10
18.7804
 20
41.9989
 30
0.0000
 11
18.7804
 21
42.8964
 31
0.0000
  0
LINE
  8
21
 10
18.7804
 20
42.8964
 30
0.0000
 11
19.1543
 21
42.8964
 31
0.0000
  0
ARC
  8
21
 10
19.1543
 20
42.6720
 30
0.0000
 40
0.2244
 50
0.0000
 51
90.0000
  0
LINE
  8
21
 10
19.3787
 20
42.6720
 30
0.0000
 11
19.3787
 21
41.9989
 31
0.0000
  0
LINE
  8
21
 10
20.6106
 20
41.9989
 30
0.0000
 11
20.2367
 21
41.9989
 31
0.0000
  0
ARC
  8
21
 10
20.2367
 20
42.2233
 30
0.0000
 40
0.2244
 50
180.0000
 51
270.0000
  0
LINE
  8
21
 10
20.0123
 20
42.2233
 30
0.0000
 11
20.0123
 21
42.5972
 31
0.0000
  0
ARC
  8
21
 10
20.3115
 20
42.5972
 30
0.0000
 40
0.2992
 50
0.0000
 51
180.0000
  0
LINE
  8
21
 10
20.6106
 20
42.5972
 30
0.0000
 11
20.6106
 21
42.4476
 31
0.0000
  0
LINE
  8
21
 10
20.6106
 20
42.4476
 30
0.0000
 11
20.0123
 21
42.4476
 31
0.0000
  0
LINE
  8
21
 10
21.2443
 20
41.9989
 30
0.0000
 11
21.2443
 21
42.8964
 31
0.0000
  0
LINE
  8
21
 10
21.2443
 20
42.8964
 30
0.0000
 11
21.6182
 21
42.8964
 31
0.0000
  0
ARC
  8
21
 10
21.6182
 20
42.6720
 30
0.0000
 40
0.2244
 50
0.0000
 51
90.0000
  0
LINE
  8
21
 10
21.8426
 20
42.6720
 30
0.0000
 11
21.8426
 21
41.9989
 31
0.0000
  0
LINE
  8
21
 10
22.3550
 20
42.8964
 30
0.0000
 11
22.8038
 21
42.8964
 31
0.0000
  0
LINE
  8
21
 10
22.5046
 20
43.3451
 30
0.0000
 11
22.5046
 21
42.2233
 31
0.0000
  0
ARC
  8
21
 10
22.7290
 20
42.2233
 30
0.0000
 40
0.2244
 50
180.0000
 51
270.0000
  0
LINE
  8
21
 10
22.7290
 20
41.9989
 30
0.0000
 11
22.8038
 21
41.9989
 31
0.0000
  0
LINE
  8
21
 10
24.5594
 20
42.3728
 30
0.0000
 11
24.1854
 21
42.5224
 31
0.0000
  0
ARC
  8
21
 10
24.2574
 20
42.7025
 30
0.0000
 40
0.1939
 50
89.1810
 51
248.1986
  0
ARC
  8
21
 10
24.2481
 20
42.0471
 30
0.0000
 40
0.8493
 50
65.7609
 51
89.1810
  0
ARC
  8
21
 10
24.4874
 20
42.1928
 30
0.0000
 40
0.1939
 50
269.1810
 51
68.1986
  0
ARC
  8
21
 10
24.5027
 20
43.2672
 30
0.0000
 40
1.2684
 50
250.2096
 51
269.1810
  0
LINE
  8
21
 10
25.2393
 20
41.9989
 30
0.0000
 11
25.2393
 21
42.8964
 31
0.0000
  0
LINE
  8
21
 10
25.2019
 20
43.2703
 30
0.0000
 11
25.2019
 21
43.3451
 31
0.0000
  0
LINE
  8
21
 10
25.2019
 20
43.3451
 30
0.0000
 11
25.2767
 21
43.3451
 31
0.0000
  0
LINE
  8
21
 10
25.2767
 20
43.3451
 30
0.0000
 11
25.2767
 21
43.2703
 31
0.0000
  0
LINE
  8
21
 10
25.2767
 20
43.2703
 30
0.0000
 11
25.2019
 21
43.2703
 31
0.0000
  0
LINE
  8
21
 10
26.3968
 20
43.3451
 30
0.0000
 11
26.3968
 21
41.9989
 31
0.0000
  0
LINE
  8
21
 10
26.3968
 20
41.9989
 30
0.0000
 11
26.0229
 21
41.9989
 31
0.0000
  0
ARC
  8
21
 10
26.0229
 20
42.2233
 30
0.0000
 40
0.2244
 50
180.0000
 51
270.0000
  0
LINE
  8
21
 10
25.7985
 20
42.2233
 30
0.0000
 11
25.7985
 21
42.6720
 31
0.0000
  0
ARC
  8
21
 10
26.0229
 20
42.6720
 30
0.0000
 40
0.2244
 50
89.9992
 51
180.0000
  0
LINE
  8
21
 10
26.0229
 20
42.8964
 30
0.0000
 11
26.3968
 21
42.8964
 31
0.0000
  0
LINE
  8
21
 10
27.6374
 20
41.9989
 30
0.0000
 11
27.2635
 21
41.9989
 31
0.0000
  0
ARC
  8
21
 10
27.2635
 20
42.2233
 30
0.0000
 40
0.2244
 50
180.0000
 51
270.0000
  0
LINE
  8
21
 10
27.0391
 20
42.2233
 30
0.0000
 11
27.0391
 21
42.5972
 31
0.0000
  0
ARC
  8
21
 10
27.3382
 20
42.5972
 30
0.0000
 40
0.2992
 50
0.0000
 51
180.0000
  0
LINE
  8
21
 10
27.6374
 20
42.5972
 30
0.0000
 11
27.6374
 21
42.4476
 31
0.0000
  0
LINE
  8
21
 10
27.6374
 20
42.4476
 30
0.0000
 11
27.0391
 21
42.4476
 31
0.0000
  0
LINE
  8
48
 10
24.2316
 20
54.0766
 30
0.0000
 11
24.2316
 21
55.5498
 31
0.0000
  0
LINE
  8
48
 10
24.2316
 20
55.5498
 30
0.0000
 11
24.6408
 21
55.5498
 31
0.0000
  0
ARC
  8
48
 10
24.6408
 20
55.1406
 30
0.0000
 40
0.4092
 50
359.9996
 51
90.0000
  0
LINE
  8
48
 10
25.0500
 20
55.1406
 30
0.0000
 11
25.0500
 21
54.4858
 31
0.0000
  0
ARC
  8
48
 10
24.6408
 20
54.4858
 30
0.0000
 40
0.4092
 50
270.0004
 51
360.0000
  0
LINE
  8
48
 10
24.6408
 20
54.0766
 30
0.0000
 11
24.2316
 21
54.0766
 31
0.0000
  0
LINE
  8
48
 10
25.7505
 20
54.4040
 30
0.0000
 11
25.7505
 21
54.7314
 31
0.0000
  0
ARC
  8
48
 10
26.0778
 20
54.7314
 30
0.0000
 40
0.3274
 50
0.0000
 51
180.0000
  0
LINE
  8
48
 10
26.4052
 20
54.7314
 30
0.0000
 11
26.4052
 21
54.4040
 31
0.0000
  0
ARC
  8
48
 10
26.0778
 20
54.4040
 30
0.0000
 40
0.3274
 50
180.0000
 51
0.0000
  0
LINE
  8
48
 10
27.6139
 20
54.0766
 30
0.0000
 11
27.2865
 21
54.0766
 31
0.0000
  0
ARC
  8
48
 10
27.2865
 20
54.3221
 30
0.0000
 40
0.2455
 50
180.0000
 51
270.0000
  0
LINE
  8
48
 10
27.0410
 20
54.3221
 30
0.0000
 11
27.0410
 21
54.8132
 31
0.0000
  0
ARC
  8
48
 10
27.2865
 20
54.8132
 30
0.0000
 40
0.2455
 50
90.0000
 51
180.0000
  0
LINE
  8
48
 10
27.2865
 20
55.0587
 30
0.0000
 11
27.6139
 21
55.0587
 31
0.0000
  0
LINE
  8
48
 10
28.1181
 20
54.0766
 30
0.0000
 11
28.1181
 21
54.1584
 31
0.0000
  0
LINE
  8
48
 10
28.1181
 20
54.1584
 30
0.0000
 11
28.2000
 21
54.1584
 31
0.0000
  0
LINE
  8
48
 10
28.2000
 20
54.1584
 30
0.0000
 11
28.2000
 21
54.0766
 31
0.0000
  0
LINE
  8
48
 10
28.2000
 20
54.0766
 30
0.0000
 11
28.1181
 21
54.0766
 31
0.0000
  0
LINE
  8
48
 10
28.8077
 20
54.6495
 30
0.0000
 11
29.7898
 21
54.6495
 31
0.0000
  0
LINE
  8
48
 10
30.5248
 20
54.0766
 30
0.0000
 11
30.5248
 21
55.5498
 31
0.0000
  0
LINE
  8
48
 10
30.5248
 20
55.5498
 30
0.0000
 11
31.3432
 21
54.0766
 31
0.0000
  0
LINE
  8
48
 10
31.3432
 20
54.0766
 30
0.0000
 11
31.3432
 21
55.5498
 31
0.0000
  0
LINE
  8
48
 10
32.0436
 20
54.4040
 30
0.0000
 11
32.0436
 21
54.7314
 31
0.0000
  0
ARC
  8
48
 10
32.3710
 20
54.7314
 30
0.0000
 40
0.3274
 50
0.0000
 51
180.0000
  0
LINE
  8
48
 10
32.6984
 20
54.7314
 30
0.0000
 11
32.6984
 21
54.4040
 31
0.0000
  0
ARC
  8
48
 10
32.3710
 20
54.4040
 30
0.0000
 40
0.3274
 50
180.0000
 51
0.0000
  0
LINE
  8
48
 10
33.2716
 20
54.0766
 30
0.0000
 11
33.2716
 21
54.1584
 31
0.0000
  0
LINE
  8
48
 10
33.2716
 20
54.1584
 30
0.0000
 11
33.3534
 21
54.1584
 31
0.0000
  0
LINE
  8
48
 10
33.3534
 20
54.1584
 30
0.0000
 11
33.3534
 21
54.0766
 31
0.0000
  0
LINE
  8
48
 10
33.3534
 20
54.0766
 30
0.0000
 11
33.2716
 21
54.0766
 31
0.0000
  0
LINE
  8
48
 10
33.9158
 20
54.1994
 30
0.0000
 11
33.9158
 21
54.2812
 31
0.0000
  0
LINE
  8
48
 10
33.9158
 20
54.2812
 30
0.0000
 11
33.9976
 21
54.2812
 31
0.0000
  0
LINE
  8
48
 10
33.9976
 20
54.2812
 30
0.0000
 11
33.9976
 21
54.1994
 31
0.0000
  0
LINE
  8
48
 10
33.9976
 20
54.1994
 30
0.0000
 11
33.9158
 21
54.1994
 31
0.0000
  0
LINE
  8
48
 10
33.9158
 20
54.8541
 30
0.0000
 11
33.9158
 21
54.9360
 31
0.0000
  0
LINE
  8
48
 10
33.9158
 20
54.9360
 30
0.0000
 11
33.9976
 21
54.9360
 31
0.0000
  0
LINE
  8
48
 10
33.9976
 20
54.9360
 30
0.0000
 11
33.9976
 21
54.8541
 31
0.0000
  0
LINE
  8
48
 10
33.9976
 20
54.8541
 30
0.0000
 11
33.9158
 21
54.8541
 31
0.0000
  0
LINE
  8
48
 10
38.2016
 20
44.5516
 30
0.0000
 11
38.2016
 21
46.0248
 31
0.0000
  0
LINE
  8
48
 10
38.2016
 20
46.0248
 30
0.0000
 11
38.6108
 21
46.0248
 31
0.0000
  0
ARC
  8
48
 10
38.6108
 20
45.6156
 30
0.0000
 40
0.4092
 50
270.0000
 51
90.0000
  0
LINE
  8
48
 10
38.6108
 20
45.2064
 30
0.0000
 11
38.2016
 21
45.2064
 31
0.0000
  0
LINE
  8
48
 10
39.0200
 20
44.5516
 30
0.0000
 11
38.6927
 21
45.2064
 31
0.0000
  0
LINE
  8
48
 10
40.3143
 20
44.5516
 30
0.0000
 11
39.9051
 21
44.5516
 31
0.0000
  0
ARC
  8
48
 10
39.9051
 20
44.7971
 30
0.0000
 40
0.2455
 50
180.0000
 51
270.0000
  0
LINE
  8
48
 10
39.6596
 20
44.7971
 30
0.0000
 11
39.6596
 21
45.2064
 31
0.0000
  0
ARC
  8
48
 10
39.9870
 20
45.2064
 30
0.0000
 40
0.3274
 50
0.0000
 51
180.0000
  0
LINE
  8
48
 10
40.3143
 20
45.2064
 30
0.0000
 11
40.3143
 21
45.0427
 31
0.0000
  0
LINE
  8
48
 10
40.3143
 20
45.0427
 30
0.0000
 11
39.6596
 21
45.0427
 31
0.0000
  0
LINE
  8
48
 10
40.8984
 20
45.5337
 30
0.0000
 11
41.2258
 21
44.5516
 31
0.0000
  0
LINE
  8
48
 10
41.2258
 20
44.5516
 30
0.0000
 11
41.5532
 21
45.5337
 31
0.0000
  0
LINE
  8
48
 10
42.0768
 20
44.5516
 30
0.0000
 11
42.0768
 21
44.6334
 31
0.0000
  0
LINE
  8
48
 10
42.0768
 20
44.6334
 30
0.0000
 11
42.1586
 21
44.6334
 31
0.0000
  0
LINE
  8
48
 10
42.1586
 20
44.6334
 30
0.0000
 11
42.1586
 21
44.5516
 31
0.0000
  0
LINE
  8
48
 10
42.1586
 20
44.5516
 30
0.0000
 11
42.0768
 21
44.5516
 31
0.0000
  0
LINE
  8
48
 10
42.7210
 20
44.6744
 30
0.0000
 11
42.7210
 21
44.7562
 31
0.0000
  0
LINE
  8
48
 10
42.7210
 20
44.7562
 30
0.0000
 11
42.8028
 21
44.7562
 31
0.0000
  0
LINE
  8
48
 10
42.8028
 20
44.7562
 30
0.0000
 11
42.8028
 21
44.6744
 31
0.0000
  0
LINE
  8
48
 10
42.8028
 20
44.6744
 30
0.0000
 11
42.7210
 21
44.6744
 31
0.0000
  0
LINE
  8
48
 10
42.7210
 20
45.3291
 30
0.0000
 11
42.7210
 21
45.4110
 31
0.0000
  0
LINE
  8
48
 10
42.7210
 20
45.4110
 30
0.0000
 11
42.8028
 21
45.4110
 31
0.0000
  0
LINE
  8
48
 10
42.8028
 20
45.4110
 30
0.0000
 11
42.8028
 21
45.3291
 31
0.0000
  0
LINE
  8
48
 10
42.8028
 20
45.3291
 30
0.0000
 11
42.7210
 21
45.3291
 31
0.0000
  0
LINE
  8
48
 10
38.8564
 20
50.9016
 30
0.0000
 11
38.5290
 21
50.9016
 31
0.0000
  0
ARC
  8
48
 10
38.5290
 20
51.2290
 30
0.0000
 40
0.3274
 50
180.0000
 51
270.0000
  0
LINE
  8
48
 10
38.2016
 20
51.2290
 30
0.0000
 11
38.2016
 21
52.0474
 31
0.0000
  0
ARC
  8
48
 10
38.5290
 20
52.0474
 30
0.0000
 40
0.3274
 50
90.0005
 51
180.0000
  0
LINE
  8
48
 10
38.5290
 20
52.3748
 30
0.0000
 11
38.8564
 21
52.3748
 31
0.0000
  0
LINE
  8
48
 10
39.4777
 20
51.8837
 30
0.0000
 11
39.4777
 21
51.1471
 31
0.0000
  0
ARC
  8
48
 10
39.7232
 20
51.1471
 30
0.0000
 40
0.2455
 50
180.0000
 51
270.0000
  0
LINE
  8
48
 10
39.7232
 20
50.9016
 30
0.0000
 11
40.1324
 21
50.9016
 31
0.0000
  0
LINE
  8
48
 10
40.1324
 20
50.9016
 30
0.0000
 11
40.1324
 21
51.8837
 31
0.0000
  0
LINE
  8
48
 10
40.8501
 20
51.4745
 30
0.0000
 11
41.8322
 21
51.4745
 31
0.0000
  0
LINE
  8
48
 10
42.5708
 20
52.3748
 30
0.0000
 11
42.5708
 21
50.9016
 31
0.0000
  0
LINE
  8
48
 10
42.5708
 20
50.9016
 30
0.0000
 11
43.2256
 21
50.9016
 31
0.0000
  0
LINE
  8
48
 10
44.4344
 20
51.4745
 30
0.0000
 11
44.0661
 21
51.4745
 31
0.0000
  0
ARC
  8
48
 10
44.0661
 20
51.1881
 30
0.0000
 40
0.2865
 50
90.0000
 51
270.0000
  0
LINE
  8
48
 10
44.0661
 20
50.9016
 30
0.0000
 11
44.4344
 21
50.9016
 31
0.0000
  0
LINE
  8
48
 10
44.4344
 20
50.9016
 30
0.0000
 11
44.4344
 21
51.6382
 31
0.0000
  0
ARC
  8
48
 10
44.1889
 20
51.6382
 30
0.0000
 40
0.2455
 50
0.0000
 51
90.0000
  0
LINE
  8
48
 10
44.1889
 20
51.8837
 30
0.0000
 11
43.8615
 21
51.8837
 31
0.0000
  0
LINE
  8
48
 10
45.0771
 20
50.4105
 30
0.0000
 11
45.2408
 21
50.4105
 31
0.0000
  0
LINE
  8
48
 10
45.2408
 20
50.4105
 30
0.0000
 11
45.7319
 21
51.8837
 31
0.0000
  0
LINE
  8
48
 10
45.0771
 20
51.8837
 30
0.0000
 11
45.4045
 21
50.9016
 31
0.0000
  0
LINE
  8
48
 10
46.9707
 20
50.9016
 30
0.0000
 11
46.5615
 21
50.9016
 31
0.0000
  0
ARC
  8
48
 10
46.5615
 20
51.1471
 30
0.0000
 40
0.2455
 50
180.0000
 51
270.0000
  0
LINE
  8
48
 10
46.3159
 20
51.1471
 30
0.0000
 11
46.3159
 21
51.5564
 31
0.0000
  0
ARC
  8
48
 10
46.6433
 20
51.5564
 30
0.0000
 40
0.3274
 50
0.0000
 51
180.0000
  0
LINE
  8
48
 10
46.9707
 20
51.5564
 30
0.0000
 11
46.9707
 21
51.3927
 31
0.0000
  0
LINE
  8
48
 10
46.9707
 20
51.3927
 30
0.0000
 11
46.3159
 21
51.3927
 31
0.0000
  0
LINE
  8
48
 10
47.6643
 20
50.9016
 30
0.0000
 11
47.6643
 21
51.8837
 31
0.0000
  0
LINE
  8
48
 10
47.6643
 20
51.8837
 30
0.0000
 11
48.1553
 21
51.8837
 31
0.0000
  0
LINE
  8
48
 10
48.1553
 20
51.8837
 30
0.0000
 11
48.1553
 21
51.7200
 31
0.0000
  0
LINE
  8
48
 10
49.1769
 20
51.3108
 30
0.0000
 11
48.7677
 21
51.4745
 31
0.0000
  0
ARC
  8
48
 10
48.8465
 20
51.6715
 30
0.0000
 40
0.2122
 50
89.1816
 51
248.1986
  0
ARC
  8
48
 10
48.8362
 20
50.9544
 30
0.0000
 40
0.9294
 50
65.7610
 51
89.1816
  0
ARC
  8
48
 10
49.0981
 20
51.1138
 30
0.0000
 40
0.2122
 50
269.1816
 51
68.1989
  0
ARC
  8
48
 10
49.1149
 20
52.2895
 30
0.0000
 40
1.3880
 50
250.2089
 51
269.1815
  0
LINE
  8
48
 10
49.9224
 20
51.0244
 30
0.0000
 11
49.9224
 21
51.1062
 31
0.0000
  0
LINE
  8
48
 10
49.9224
 20
51.1062
 30
0.0000
 11
50.0043
 21
51.1062
 31
0.0000
  0
LINE
  8
48
 10
50.0043
 20
51.1062
 30
0.0000
 11
50.0043
 21
51.0244
 31
0.0000
  0
LINE
  8
48
 10
50.0043
 20
51.0244
 30
0.0000
 11
49.9224
 21
51.0244
 31
0.0000
  0
LINE
  8
48
 10
49.9224
 20
51.6791
 30
0.0000
 11
49.9224
 21
51.7610
 31
0.0000
  0
LINE
  8
48
 10
49.9224
 20
51.7610
 30
0.0000
 11
50.0043
 21
51.7610
 31
0.0000
  0
LINE
  8
48
 10
50.0043
 20
51.7610
 30
0.0000
 11
50.0043
 21
51.6791
 31
0.0000
  0
LINE
  8
48
 10
50.0043
 20
51.6791
 30
0.0000
 11
49.9224
 21
51.6791
 31
0.0000
  0
LINE
  8
48
 10
24.8864
 20
50.9016
 30
0.0000
 11
24.5590
 21
50.9016
 31
0.0000
  0
ARC
  8
48
 10
24.5590
 20
51.2290
 30
0.0000
 40
0.3274
 50
180.0000
 51
270.0000
  0
LINE
  8
48
 10
24.2316
 20
51.2290
 30
0.0000
 11
24.2316
 21
52.0474
 31
0.0000
  0
ARC
  8
48
 10
24.5590
 20
52.0474
 30
0.0000
 40
0.3274
 50
90.0005
 51
180.0000
  0
LINE
  8
48
 10
24.5590
 20
52.3748
 30
0.0000
 11
24.8864
 21
52.3748
 31
0.0000
  0
LINE
  8
48
 10
25.5077
 20
51.8837
 30
0.0000
 11
25.5077
 21
51.1471
 31
0.0000
  0
ARC
  8
48
 10
25.7532
 20
51.1471
 30
0.0000
 40
0.2455
 50
180.0000
 51
270.0000
  0
LINE
  8
48
 10
25.7532
 20
50.9016
 30
0.0000
 11
26.1624
 21
50.9016
 31
0.0000
  0
LINE
  8
48
 10
26.1624
 20
50.9016
 30
0.0000
 11
26.1624
 21
51.8837
 31
0.0000
  0
LINE
  8
48
 10
26.8347
 20
51.0244
 30
0.0000
 11
26.8347
 21
51.1062
 31
0.0000
  0
LINE
  8
48
 10
26.8347
 20
51.1062
 30
0.0000
 11
26.9166
 21
51.1062
 31
0.0000
  0
LINE
  8
48
 10
26.9166
 20
51.1062
 30
0.0000
 11
26.9166
 21
51.0244
 31
0.0000
  0
LINE
  8
48
 10
26.9166
 20
51.0244
 30
0.0000
 11
26.8347
 21
51.0244
 31
0.0000
  0
LINE
  8
48
 10
26.8347
 20
51.6791
 30
0.0000
 11
26.8347
 21
51.7610
 31
0.0000
  0
LINE
  8
48
 10
26.8347
 20
51.7610
 30
0.0000
 11
26.9166
 21
51.7610
 31
0.0000
  0
LINE
  8
48
 10
26.9166
 20
51.7610
 30
0.0000
 11
26.9166
 21
51.6791
 31
0.0000
  0
LINE
  8
48
 10
26.9166
 20
51.6791
 30
0.0000
 11
26.8347
 21
51.6791
 31
0.0000
  0
LINE
  8
48
 10
2.0264
 20
47.7266
 30
0.0000
 11
1.6990
 21
47.7266
 31
0.0000
  0
ARC
  8
48
 10
1.6990
 20
48.0540
 30
0.0000
 40
0.3274
 50
180.0000
 51
270.0000
  0
LINE
  8
48
 10
1.3716
 20
48.0540
 30
0.0000
 11
1.3716
 21
48.8724
 31
0.0000
  0
ARC
  8
48
 10
1.6990
 20
48.8724
 30
0.0000
 40
0.3274
 50
90.0005
 51
180.0000
  0
LINE
  8
48
 10
1.6990
 20
49.1998
 30
0.0000
 11
2.0264
 21
49.1998
 31
0.0000
  0
LINE
  8
48
 10
2.6154
 20
48.5450
 30
0.0000
 11
3.1064
 21
48.5450
 31
0.0000
  0
ARC
  8
48
 10
3.1064
 20
48.2177
 30
0.0000
 40
0.3274
 50
0.0000
 51
90.0000
  0
LINE
  8
48
 10
3.4338
 20
48.2177
 30
0.0000
 11
3.4338
 21
48.1358
 31
0.0000
  0
ARC
  8
48
 10
3.0246
 20
48.1358
 30
0.0000
 40
0.4092
 50
180.0000
 51
0.0000
  0
LINE
  8
48
 10
2.6154
 20
48.1358
 30
0.0000
 11
2.6154
 21
48.5450
 31
0.0000
  0
ARC
  8
48
 10
3.2701
 20
48.5450
 30
0.0000
 40
0.6548
 50
90.0003
 51
180.0000
  0
LINE
  8
48
 10
4.4293
 20
49.1998
 30
0.0000
 11
4.1020
 21
48.0540
 31
0.0000
  0
LINE
  8
48
 10
4.1020
 20
48.0540
 30
0.0000
 11
4.9204
 21
48.0540
 31
0.0000
  0
LINE
  8
48
 10
4.6749
 20
48.3814
 30
0.0000
 11
4.6749
 21
47.7266
 31
0.0000
  0
LINE
  8
48
 10
5.5217
 20
47.5629
 30
0.0000
 11
6.1765
 21
47.5629
 31
0.0000
  0
LINE
  8
48
 10
6.6960
 20
47.7266
 30
0.0000
 11
7.1870
 21
49.1998
 31
0.0000
  0
LINE
  8
48
 10
7.1870
 20
49.1998
 30
0.0000
 11
7.6781
 21
47.7266
 31
0.0000
  0
LINE
  8
48
 10
7.5553
 20
48.0949
 30
0.0000
 11
6.8187
 21
48.0949
 31
0.0000
  0
LINE
  8
48
 10
8.1825
 20
49.1998
 30
0.0000
 11
8.6736
 21
47.7266
 31
0.0000
  0
LINE
  8
48
 10
8.6736
 20
47.7266
 30
0.0000
 11
9.1647
 21
49.1998
 31
0.0000
  0
LINE
  8
48
 10
9.7682
 20
48.2995
 30
0.0000
 11
10.7504
 21
48.2995
 31
0.0000
  0
LINE
  8
48
 10
11.3539
 20
47.7266
 30
0.0000
 11
11.8450
 21
49.1998
 31
0.0000
  0
LINE
  8
48
 10
11.8450
 20
49.1998
 30
0.0000
 11
12.3360
 21
47.7266
 31
0.0000
  0
LINE
  8
48
 10
12.2133
 20
48.0949
 30
0.0000
 11
11.4767
 21
48.0949
 31
0.0000
  0
LINE
  8
48
 10
13.5508
 20
49.1998
 30
0.0000
 11
13.5508
 21
47.7266
 31
0.0000
  0
LINE
  8
48
 10
13.5508
 20
47.7266
 30
0.0000
 11
13.1415
 21
47.7266
 31
0.0000
  0
ARC
  8
48
 10
13.1415
 20
47.9721
 30
0.0000
 40
0.2455
 50
180.0000
 51
270.0000
  0
LINE
  8
48
 10
12.8960
 20
47.9721
 30
0.0000
 11
12.8960
 21
48.4632
 31
0.0000
  0
ARC
  8
48
 10
13.1415
 20
48.4632
 30
0.0000
 40
0.2455
 50
90.0000
 51
180.0000
  0
LINE
  8
48
 10
13.1415
 20
48.7087
 30
0.0000
 11
13.5508
 21
48.7087
 31
0.0000
  0
LINE
  8
48
 10
14.8887
 20
48.2995
 30
0.0000
 11
14.5204
 21
48.2995
 31
0.0000
  0
ARC
  8
48
 10
14.5204
 20
48.0131
 30
0.0000
 40
0.2865
 50
90.0000
 51
270.0000
  0
LINE
  8
48
 10
14.5204
 20
47.7266
 30
0.0000
 11
14.8887
 21
47.7266
 31
0.0000
  0
LINE
  8
48
 10
14.8887
 20
47.7266
 30
0.0000
 11
14.8887
 21
48.4632
 31
0.0000
  0
ARC
  8
48
 10
14.6432
 20
48.4632
 30
0.0000
 40
0.2455
 50
0.0000
 51
90.0000
  0
LINE
  8
48
 10
14.6432
 20
48.7087
 30
0.0000
 11
14.3158
 21
48.7087
 31
0.0000
  0
LINE
  8
48
 10
15.6395
 20
47.2355
 30
0.0000
 11
15.6395
 21
48.7087
 31
0.0000
  0
LINE
  8
48
 10
15.6395
 20
48.7087
 30
0.0000
 11
16.0488
 21
48.7087
 31
0.0000
  0
ARC
  8
48
 10
16.0488
 20
48.4632
 30
0.0000
 40
0.2455
 50
0.0000
 51
90.0000
  0
LINE
  8
48
 10
16.2943
 20
48.4632
 30
0.0000
 11
16.2943
 21
47.9721
 31
0.0000
  0
ARC
  8
48
 10
16.0488
 20
47.9721
 30
0.0000
 40
0.2455
 50
270.0000
 51
0.0000
  0
LINE
  8
48
 10
16.0488
 20
47.7266
 30
0.0000
 11
15.6395
 21
47.7266
 31
0.0000
  0
LINE
  8
48
 10
16.7882
 20
48.7087
 30
0.0000
 11
17.2792
 21
48.7087
 31
0.0000
  0
LINE
  8
48
 10
16.9518
 20
49.1998
 30
0.0000
 11
16.9518
 21
47.9721
 31
0.0000
  0
ARC
  8
48
 10
17.1974
 20
47.9721
 30
0.0000
 40
0.2455
 50
180.0000
 51
270.0007
  0
LINE
  8
48
 10
17.1974
 20
47.7266
 30
0.0000
 11
17.2792
 21
47.7266
 31
0.0000
  0
LINE
  8
48
 10
17.8603
 20
48.0540
 30
0.0000
 11
17.8603
 21
48.3814
 31
0.0000
  0
ARC
  8
48
 10
18.1877
 20
48.3814
 30
0.0000
 40
0.3274
 50
0.0000
 51
180.0000
  0
LINE
  8
48
 10
18.5151
 20
48.3814
 30
0.0000
 11
18.5151
 21
48.0540
 31
0.0000
  0
ARC
  8
48
 10
18.1877
 20
48.0540
 30
0.0000
 40
0.3274
 50
180.0000
 51
0.0000
  0
LINE
  8
48
 10
19.2086
 20
47.7266
 30
0.0000
 11
19.2086
 21
48.7087
 31
0.0000
  0
LINE
  8
48
 10
19.2086
 20
48.7087
 30
0.0000
 11
19.6997
 21
48.7087
 31
0.0000
  0
LINE
  8
48
 10
19.6997
 20
48.7087
 30
0.0000
 11
19.6997
 21
48.5450
 31
0.0000
  0
ARC
  8
48
 10
2.5856
 20
45.2882
 30
0.0000
 40
1.2140
 50
154.0109
 51
180.0000
  0
ARC
  8
48
 10
1.7808
 20
45.7220
 30
0.0000
 40
0.3028
 50
90.0000
 51
161.0756
  0
ARC
  8
48
 10
1.7808
 20
45.7220
 30
0.0000
 40
0.3028
 50
18.9237
 51
90.0001
  0
ARC
  8
48
 10
0.9760
 20
45.2882
 30
0.0000
 40
1.2140
 50
360.0000
 51
25.9897
  0
ARC
  8
48
 10
2.5856
 20
45.2882
 30
0.0000
 40
1.2140
 50
180.0000
 51
205.9889
  0
ARC
  8
48
 10
1.7808
 20
44.8544
 30
0.0000
 40
0.3028
 50
198.9251
 51
270.0001
  0
ARC
  8
48
 10
0.9760
 20
45.2882
 30
0.0000
 40
1.2140
 50
334.0105
 51
359.9999
  0
ARC
  8
48
 10
1.7808
 20
44.8544
 30
0.0000
 40
0.3028
 50
270.0000
 51
341.0759
  0
LINE
  8
48
 10
1.4534
 20
44.8790
 30
0.0000
 11
2.1082
 21
45.6974
 31
0.0000
  0
LINE
  8
48
 10
2.8582
 20
45.8611
 30
0.0000
 11
2.8582
 21
46.0248
 31
0.0000
  0
LINE
  8
48
 10
2.8582
 20
46.0248
 30
0.0000
 11
3.6766
 21
46.0248
 31
0.0000
  0
LINE
  8
48
 10
3.6766
 20
46.0248
 30
0.0000
 11
3.2674
 21
44.5516
 31
0.0000
  0
LINE
  8
48
 10
4.2671
 20
44.5516
 30
0.0000
 11
4.2671
 21
44.6334
 31
0.0000
  0
LINE
  8
48
 10
4.2671
 20
44.6334
 30
0.0000
 11
4.3489
 21
44.6334
 31
0.0000
  0
LINE
  8
48
 10
4.3489
 20
44.6334
 30
0.0000
 11
4.3489
 21
44.5516
 31
0.0000
  0
LINE
  8
48
 10
4.3489
 20
44.5516
 30
0.0000
 11
4.2671
 21
44.5516
 31
0.0000
  0
LINE
  8
48
 10
4.9394
 20
45.6974
 30
0.0000
 11
5.3486
 21
46.0248
 31
0.0000
  0
LINE
  8
48
 10
5.3486
 20
46.0248
 30
0.0000
 11
5.3486
 21
44.5516
 31
0.0000
  0
LINE
  8
48
 10
4.9394
 20
44.5516
 30
0.0000
 11
5.7578
 21
44.5516
 31
0.0000
  0
ARC
  8
48
 10
7.6400
 20
45.2882
 30
0.0000
 40
1.2140
 50
154.0109
 51
180.0000
  0
ARC
  8
48
 10
6.8352
 20
45.7220
 30
0.0000
 40
0.3028
 50
90.0000
 51
161.0756
  0
ARC
  8
48
 10
6.8352
 20
45.7220
 30
0.0000
 40
0.3028
 50
18.9237
 51
90.0001
  0
ARC
  8
48
 10
6.0304
 20
45.2882
 30
0.0000
 40
1.2140
 50
360.0000
 51
25.9897
  0
ARC
  8
48
 10
7.6400
 20
45.2882
 30
0.0000
 40
1.2140
 50
180.0000
 51
205.9889
  0
ARC
  8
48
 10
6.8352
 20
44.8544
 30
0.0000
 40
0.3028
 50
198.9251
 51
270.0001
  0
ARC
  8
48
 10
6.0304
 20
45.2882
 30
0.0000
 40
1.2140
 50
334.0105
 51
359.9999
  0
ARC
  8
48
 10
6.8352
 20
44.8544
 30
0.0000
 40
0.3028
 50
270.0000
 51
341.0759
  0
LINE
  8
48
 10
6.5078
 20
44.8790
 30
0.0000
 11
7.1626
 21
45.6974
 31
0.0000
  0
LINE
  8
48
 10
7.8349
 20
44.5516
 30
0.0000
 11
7.8349
 21
44.6334
 31
0.0000
  0
LINE
  8
48
 10
7.8349
 20
44.6334
 30
0.0000
 11
7.9167
 21
44.6334
 31
0.0000
  0
LINE
  8
48
 10
7.9167
 20
44.6334
 30
0.0000
 11
7.9167
 21
44.5516
 31
0.0000
  0
LINE
  8
48
 10
7.9167
 20
44.5516
 30
0.0000
 11
7.8349
 21
44.5516
 31
0.0000
  0
ARC
  8
48
 10
8.9573
 20
45.6565
 30
0.0000
 40
0.3683
 50
0.0000
 51
90.0000
  0
ARC
  8
48
 10
8.9573
 20
45.5516
 30
0.0000
 40
0.4732
 50
90.0000
 51
162.0549
  0
ARC
  8
48
 10
8.9300
 20
45.6565
 30
0.0000
 40
0.3956
 50
313.6022
 51
0.0000
  0
LINE
  8
48
 10
9.2028
 20
45.3700
 30
0.0000
 11
8.5072
 21
44.5516
 31
0.0000
  0
LINE
  8
48
 10
8.5072
 20
44.5516
 30
0.0000
 11
9.3256
 21
44.5516
 31
0.0000
  0
ARC
  8
48
 10
11.2078
 20
45.2882
 30
0.0000
 40
1.2140
 50
154.0109
 51
180.0000
  0
ARC
  8
48
 10
10.4029
 20
45.7220
 30
0.0000
 40
0.3028
 50
90.0000
 51
161.0756
  0
ARC
  8
48
 10
10.4029
 20
45.7220
 30
0.0000
 40
0.3028
 50
18.9237
 51
90.0001
  0
ARC
  8
48
 10
9.5982
 20
45.2882
 30
0.0000
 40
1.2140
 50
360.0000
 51
25.9897
  0
ARC
  8
48
 10
11.2078
 20
45.2882
 30
0.0000
 40
1.2140
 50
180.0000
 51
205.9889
  0
ARC
  8
48
 10
10.4029
 20
44.8544
 30
0.0000
 40
0.3028
 50
198.9251
 51
270.0001
  0
ARC
  8
48
 10
9.5981
 20
45.2882
 30
0.0000
 40
1.2140
 50
334.0105
 51
359.9999
  0
ARC
  8
48
 10
10.4029
 20
44.8544
 30
0.0000
 40
0.3028
 50
270.0000
 51
341.0759
  0
LINE
  8
48
 10
10.0756
 20
44.8790
 30
0.0000
 11
10.7303
 21
45.6974
 31
0.0000
  0
LINE
  8
48
 10
11.4803
 20
45.6974
 30
0.0000
 11
11.8895
 21
46.0248
 31
0.0000
  0
LINE
  8
48
 10
11.8895
 20
46.0248
 30
0.0000
 11
11.8895
 21
44.5516
 31
0.0000
  0
LINE
  8
48
 10
11.4803
 20
44.5516
 30
0.0000
 11
12.2987
 21
44.5516
 31
0.0000
  0
LINE
  8
48
 10
13.7853
 20
45.2064
 30
0.0000
 11
13.2942
 21
45.2064
 31
0.0000
  0
ARC
  8
48
 10
13.2942
 20
45.5337
 30
0.0000
 40
0.3274
 50
179.9995
 51
270.0000
  0
LINE
  8
48
 10
12.9669
 20
45.5337
 30
0.0000
 11
12.9669
 21
45.6156
 31
0.0000
  0
ARC
  8
48
 10
13.3761
 20
45.6156
 30
0.0000
 40
0.4092
 50
0.0000
 51
180.0000
  0
LINE
  8
48
 10
13.7853
 20
45.6156
 30
0.0000
 11
13.7853
 21
45.2064
 31
0.0000
  0
ARC
  8
48
 10
13.1306
 20
45.2064
 30
0.0000
 40
0.6548
 50
269.9997
 51
360.0000
  0
LINE
  8
48
 10
15.2463
 20
45.6974
 30
0.0000
 11
15.6555
 21
46.0248
 31
0.0000
  0
LINE
  8
48
 10
15.6555
 20
46.0248
 30
0.0000
 11
15.6555
 21
44.5516
 31
0.0000
  0
LINE
  8
48
 10
15.2463
 20
44.5516
 30
0.0000
 11
16.0647
 21
44.5516
 31
0.0000
  0
LINE
  8
48
 10
16.7329
 20
45.6974
 30
0.0000
 11
17.1421
 21
46.0248
 31
0.0000
  0
LINE
  8
48
 10
17.1421
 20
46.0248
 30
0.0000
 11
17.1421
 21
44.5516
 31
0.0000
  0
LINE
  8
48
 10
16.7329
 20
44.5516
 30
0.0000
 11
17.5513
 21
44.5516
 31
0.0000
  0
LINE
  8
48
 10
18.1913
 20
44.6744
 30
0.0000
 11
18.1913
 21
44.7562
 31
0.0000
  0
LINE
  8
48
 10
18.1913
 20
44.7562
 30
0.0000
 11
18.2732
 21
44.7562
 31
0.0000
  0
LINE
  8
48
 10
18.2732
 20
44.7562
 30
0.0000
 11
18.2732
 21
44.6744
 31
0.0000
  0
LINE
  8
48
 10
18.2732
 20
44.6744
 30
0.0000
 11
18.1913
 21
44.6744
 31
0.0000
  0
LINE
  8
48
 10
18.1913
 20
45.3291
 30
0.0000
 11
18.1913
 21
45.4110
 31
0.0000
  0
LINE
  8
48
 10
18.1913
 20
45.4110
 30
0.0000
 11
18.2732
 21
45.4110
 31
0.0000
  0
LINE
  8
48
 10
18.2732
 20
45.4110
 30
0.0000
 11
18.2732
 21
45.3291
 31
0.0000
  0
LINE
  8
48
 10
18.2732
 20
45.3291
 30
0.0000
 11
18.1913
 21
45.3291
 31
0.0000
  0
LINE
  8
48
 10
19.2405
 20
46.0248
 30
0.0000
 11
18.9132
 21
44.8790
 31
0.0000
  0
LINE
  8
48
 10
18.9132
 20
44.8790
 30
0.0000
 11
19.7316
 21
44.8790
 31
0.0000
  0
LINE
  8
48
 10
19.4861
 20
45.2064
 30
0.0000
 11
19.4861
 21
44.5516
 31
0.0000
  0
ARC
  8
48
 10
21.6138
 20
45.2882
 30
0.0000
 40
1.2140
 50
154.0109
 51
180.0000
  0
ARC
  8
48
 10
20.8090
 20
45.7220
 30
0.0000
 40
0.3028
 50
90.0000
 51
161.0756
  0
ARC
  8
48
 10
20.8090
 20
45.7220
 30
0.0000
 40
0.3028
 50
18.9237
 51
90.0001
  0
ARC
  8
48
 10
20.0042
 20
45.2882
 30
0.0000
 40
1.2140
 50
360.0000
 51
25.9897
  0
ARC
  8
48
 10
21.6138
 20
45.2882
 30
0.0000
 40
1.2140
 50
180.0000
 51
205.9889
  0
ARC
  8
48
 10
20.8090
 20
44.8544
 30
0.0000
 40
0.3028
 50
198.9251
 51
270.0001
  0
ARC
  8
48
 10
20.0042
 20
45.2882
 30
0.0000
 40
1.2140
 50
334.0105
 51
359.9999
  0
ARC
  8
48
 10
20.8090
 20
44.8544
 30
0.0000
 40
0.3028
 50
270.0000
 51
341.0759
  0
LINE
  8
48
 10
20.4816
 20
44.8790
 30
0.0000
 11
21.1363
 21
45.6974
 31
0.0000
  0
ENDSEC
  0
EOF
